<?xml version="1.0" encoding="UTF-8" standalone="no"?>
<!-- Created with Inkscape (http://www.inkscape.org/) -->
<svg xmlns:dc="http://purl.org/dc/elements/1.1/" xmlns:cc="http://creativecommons.org/ns#" xmlns:rdf="http://www.w3.org/1999/02/22-rdf-syntax-ns#" xmlns:svg="http://www.w3.org/2000/svg" xmlns="http://www.w3.org/2000/svg" xmlns:sodipodi="http://sodipodi.sourceforge.net/DTD/sodipodi-0.dtd" xmlns:inkscape="http://www.inkscape.org/namespaces/inkscape" width="468px" height="60px" id="svg3813" version="1.1" inkscape:version="0.47 r22583" sodipodi:docname="open-udc-banner-468x60.svg">
  <title id="title2856">Open UDC banner 468x60</title>
  <defs id="defs3815">
    <inkscape:perspective sodipodi:type="inkscape:persp3d" inkscape:vp_x="0 : 30 : 1" inkscape:vp_y="0 : 1000 : 0" inkscape:vp_z="468 : 30 : 1" inkscape:persp3d-origin="234 : 20 : 1" id="perspective3821"/>
    <inkscape:perspective id="perspective3766" inkscape:persp3d-origin="0.5 : 0.33333333 : 1" inkscape:vp_z="1 : 0.5 : 1" inkscape:vp_y="0 : 1000 : 0" inkscape:vp_x="0 : 0.5 : 1" sodipodi:type="inkscape:persp3d"/>
    <inkscape:perspective id="perspective2894" inkscape:persp3d-origin="0.5 : 0.33333333 : 1" inkscape:vp_z="1 : 0.5 : 1" inkscape:vp_y="0 : 1000 : 0" inkscape:vp_x="0 : 0.5 : 1" sodipodi:type="inkscape:persp3d"/>
    <filter id="filter2940" inkscape:label="Glow" inkscape:menu="Shadows and Glows" inkscape:menu-tooltip="Glow of object's own color at the edges" color-interpolation-filters="sRGB">
      <feGaussianBlur id="feGaussianBlur2942" stdDeviation="5" result="result91"/>
      <feComposite id="feComposite2944" in2="result91" in="SourceGraphic" operator="over"/>
    </filter>
    <inkscape:perspective id="perspective2880" inkscape:persp3d-origin="0.5 : 0.33333333 : 1" inkscape:vp_z="1 : 0.5 : 1" inkscape:vp_y="0 : 1000 : 0" inkscape:vp_x="0 : 0.5 : 1" sodipodi:type="inkscape:persp3d"/>
    <inkscape:perspective id="perspective2902" inkscape:persp3d-origin="0.5 : 0.33333333 : 1" inkscape:vp_z="1 : 0.5 : 1" inkscape:vp_y="0 : 1000 : 0" inkscape:vp_x="0 : 0.5 : 1" sodipodi:type="inkscape:persp3d"/>
    <inkscape:perspective id="perspective2902-8" inkscape:persp3d-origin="0.5 : 0.33333333 : 1" inkscape:vp_z="1 : 0.5 : 1" inkscape:vp_y="0 : 1000 : 0" inkscape:vp_x="0 : 0.5 : 1" sodipodi:type="inkscape:persp3d"/>
    <inkscape:perspective id="perspective2902-9" inkscape:persp3d-origin="0.5 : 0.33333333 : 1" inkscape:vp_z="1 : 0.5 : 1" inkscape:vp_y="0 : 1000 : 0" inkscape:vp_x="0 : 0.5 : 1" sodipodi:type="inkscape:persp3d"/>
    <inkscape:perspective id="perspective2902-3" inkscape:persp3d-origin="0.5 : 0.33333333 : 1" inkscape:vp_z="1 : 0.5 : 1" inkscape:vp_y="0 : 1000 : 0" inkscape:vp_x="0 : 0.5 : 1" sodipodi:type="inkscape:persp3d"/>
    <inkscape:perspective id="perspective2902-81" inkscape:persp3d-origin="0.5 : 0.33333333 : 1" inkscape:vp_z="1 : 0.5 : 1" inkscape:vp_y="0 : 1000 : 0" inkscape:vp_x="0 : 0.5 : 1" sodipodi:type="inkscape:persp3d"/>
    <inkscape:perspective id="perspective2902-4" inkscape:persp3d-origin="0.5 : 0.33333333 : 1" inkscape:vp_z="1 : 0.5 : 1" inkscape:vp_y="0 : 1000 : 0" inkscape:vp_x="0 : 0.5 : 1" sodipodi:type="inkscape:persp3d"/>
    <inkscape:perspective id="perspective2902-44" inkscape:persp3d-origin="0.5 : 0.33333333 : 1" inkscape:vp_z="1 : 0.5 : 1" inkscape:vp_y="0 : 1000 : 0" inkscape:vp_x="0 : 0.5 : 1" sodipodi:type="inkscape:persp3d"/>
    <inkscape:perspective id="perspective2902-2" inkscape:persp3d-origin="0.5 : 0.33333333 : 1" inkscape:vp_z="1 : 0.5 : 1" inkscape:vp_y="0 : 1000 : 0" inkscape:vp_x="0 : 0.5 : 1" sodipodi:type="inkscape:persp3d"/>
    <inkscape:perspective id="perspective2902-27" inkscape:persp3d-origin="0.5 : 0.33333333 : 1" inkscape:vp_z="1 : 0.5 : 1" inkscape:vp_y="0 : 1000 : 0" inkscape:vp_x="0 : 0.5 : 1" sodipodi:type="inkscape:persp3d"/>
    <inkscape:perspective id="perspective2902-1" inkscape:persp3d-origin="0.5 : 0.33333333 : 1" inkscape:vp_z="1 : 0.5 : 1" inkscape:vp_y="0 : 1000 : 0" inkscape:vp_x="0 : 0.5 : 1" sodipodi:type="inkscape:persp3d"/>
    <inkscape:perspective id="perspective2902-41" inkscape:persp3d-origin="0.5 : 0.33333333 : 1" inkscape:vp_z="1 : 0.5 : 1" inkscape:vp_y="0 : 1000 : 0" inkscape:vp_x="0 : 0.5 : 1" sodipodi:type="inkscape:persp3d"/>
    <inkscape:perspective id="perspective2902-7" inkscape:persp3d-origin="0.5 : 0.33333333 : 1" inkscape:vp_z="1 : 0.5 : 1" inkscape:vp_y="0 : 1000 : 0" inkscape:vp_x="0 : 0.5 : 1" sodipodi:type="inkscape:persp3d"/>
    <inkscape:perspective id="perspective2902-89" inkscape:persp3d-origin="0.5 : 0.33333333 : 1" inkscape:vp_z="1 : 0.5 : 1" inkscape:vp_y="0 : 1000 : 0" inkscape:vp_x="0 : 0.5 : 1" sodipodi:type="inkscape:persp3d"/>
    <inkscape:perspective id="perspective2902-0" inkscape:persp3d-origin="0.5 : 0.33333333 : 1" inkscape:vp_z="1 : 0.5 : 1" inkscape:vp_y="0 : 1000 : 0" inkscape:vp_x="0 : 0.5 : 1" sodipodi:type="inkscape:persp3d"/>
    <inkscape:perspective id="perspective2902-5" inkscape:persp3d-origin="0.5 : 0.33333333 : 1" inkscape:vp_z="1 : 0.5 : 1" inkscape:vp_y="0 : 1000 : 0" inkscape:vp_x="0 : 0.5 : 1" sodipodi:type="inkscape:persp3d"/>
    <inkscape:perspective id="perspective2862" inkscape:persp3d-origin="0.5 : 0.33333333 : 1" inkscape:vp_z="1 : 0.5 : 1" inkscape:vp_y="0 : 1000 : 0" inkscape:vp_x="0 : 0.5 : 1" sodipodi:type="inkscape:persp3d"/>
    <filter id="filter2940-1" inkscape:label="Glow" inkscape:menu="Shadows and Glows" inkscape:menu-tooltip="Glow of object's own color at the edges" color-interpolation-filters="sRGB">
      <feGaussianBlur id="feGaussianBlur2942-2" stdDeviation="5" result="result91"/>
      <feComposite id="feComposite2944-6" in2="result91" in="SourceGraphic" operator="over"/>
    </filter>
    <inkscape:perspective id="perspective2857" inkscape:persp3d-origin="0.5 : 0.33333333 : 1" inkscape:vp_z="1 : 0.5 : 1" inkscape:vp_y="0 : 1000 : 0" inkscape:vp_x="0 : 0.5 : 1" sodipodi:type="inkscape:persp3d"/>
    <inkscape:perspective id="perspective2949" inkscape:persp3d-origin="0.5 : 0.33333333 : 1" inkscape:vp_z="1 : 0.5 : 1" inkscape:vp_y="0 : 1000 : 0" inkscape:vp_x="0 : 0.5 : 1" sodipodi:type="inkscape:persp3d"/>
  </defs>
  <sodipodi:namedview id="base" pagecolor="#ffffff" bordercolor="#666666" borderopacity="1.0" inkscape:pageopacity="0.0" inkscape:pageshadow="2" inkscape:zoom="1.6970563" inkscape:cx="179.28492" inkscape:cy="26.132578" inkscape:document-units="px" inkscape:current-layer="flowRoot3693" showgrid="true" inkscape:window-width="1369" inkscape:window-height="790" inkscape:window-x="3" inkscape:window-y="75" inkscape:window-maximized="0" inkscape:snap-grids="false" showguides="true" inkscape:guide-bbox="true">
    <inkscape:grid type="xygrid" id="grid3643"/>
  </sodipodi:namedview>
  <metadata id="metadata3818">
    <rdf:RDF>
      <cc:Work rdf:about="">
        <dc:format>image/svg+xml</dc:format>
        <dc:type rdf:resource="http://purl.org/dc/dcmitype/StillImage"/>
        <dc:title>Open UDC banner 468x60</dc:title>
        <dc:creator>
          <cc:Agent>
            <dc:title>Thomas Guillot</dc:title>
          </cc:Agent>
        </dc:creator>
        <cc:license rdf:resource="http://creativecommons.org/licenses/by-sa/3.0/"/>
      </cc:Work>
      <cc:License rdf:about="http://creativecommons.org/licenses/by-sa/3.0/">
        <cc:permits rdf:resource="http://creativecommons.org/ns#Reproduction"/>
        <cc:permits rdf:resource="http://creativecommons.org/ns#Distribution"/>
        <cc:requires rdf:resource="http://creativecommons.org/ns#Notice"/>
        <cc:requires rdf:resource="http://creativecommons.org/ns#Attribution"/>
        <cc:permits rdf:resource="http://creativecommons.org/ns#DerivativeWorks"/>
        <cc:requires rdf:resource="http://creativecommons.org/ns#ShareAlike"/>
      </cc:License>
    </rdf:RDF>
  </metadata>
  <g id="layer1" inkscape:label="Layer 1" inkscape:groupmode="layer">
    <g transform="matrix(1.0410031,0,0,1.0410031,-13.808214,-0.77961523)" style="font-size:18px;font-style:normal;font-weight:normal;text-align:start;line-height:125%;writing-mode:lr-tb;text-anchor:start;fill:#000000;fill-opacity:1;stroke:none;display:inline;font-family:Bitstream Vera Sans" id="flowRoot3693">
      <path d="m 312.58691,22.205611 4.45606,0 -2.24121,-6.372071 -2.21485,6.372071 m 4.93067,1.362304 -5.40528,0 -1.17773,3.38379 -1.80176,0 c 0.0762,-0.175782 0.15528,-0.360352 0.23731,-0.553711 0.082,-0.193359 0.16992,-0.410156 0.26367,-0.650391 0.0996,-0.246092 0.20801,-0.524412 0.32519,-0.834961 0.11719,-0.310544 0.25196,-0.670896 0.4043,-1.081055 l 3.51563,-9.711914 1.88964,0 3.51563,9.711914 c 0.14647,0.410159 0.27831,0.770511 0.39551,1.081055 0.11717,0.310549 0.22557,0.588869 0.32519,0.834961 0.0996,0.240235 0.19042,0.457032 0.27246,0.650391 0.082,0.193359 0.16112,0.377929 0.23731,0.553711 l -1.80176,0 -1.19531,-3.38379" style="fill:#4d4d4d;font-family:Andika Basic;-inkscape-font-specification:Andika Basic" id="path3735"/>
      <path d="m 326.25391,18.206587 1.75781,0 0,-1.538086 c 0,-1.318347 0.2666,-2.305651 0.7998,-2.961914 0.53906,-0.662095 1.2832,-0.993149 2.23243,-0.993164 0.34569,1.5e-5 0.68554,0.05568 1.01953,0.166992 0.33397,0.105483 0.63866,0.254897 0.91406,0.448243 l -0.4043,1.318359 c -0.22266,-0.16405 -0.46875,-0.292956 -0.73828,-0.386719 -0.26954,-0.09374 -0.53321,-0.140612 -0.79101,-0.140625 -0.22853,1.3e-5 -0.43067,0.04103 -0.60645,0.123047 -0.17579,0.07619 -0.32227,0.202161 -0.43945,0.37793 -0.11719,0.175793 -0.20801,0.404309 -0.27246,0.685547 -0.0586,0.275402 -0.0879,0.612315 -0.0879,1.010742 l 0,1.889648 2.37304,0 0,1.274414 -2.37304,0 0,3.128907 c -1e-5,0.427738 0.003,0.852542 0.009,1.274414 0.0117,0.416018 0.0264,0.814455 0.0439,1.195312 0.0234,0.375002 0.0527,0.723634 0.0879,1.045899 0.0351,0.322266 0.0762,0.597656 0.12305,0.826172 l -1.88965,0 0,-7.470704 -1.75781,0 0,-1.274414" style="fill:#4d4d4d;font-family:Andika Basic;-inkscape-font-specification:Andika Basic" id="path3737"/>
      <path d="m 333.87402,26.951705 0,-5.405274 c 0,-0.867181 -0.0498,-1.599602 -0.14941,-2.197266 -0.0937,-0.603507 -0.19043,-1.057608 -0.29004,-1.362304 l 1.58203,0 c 0.0703,0.164071 0.13183,0.372079 0.18457,0.624023 0.0586,0.246102 0.10547,0.521492 0.14063,0.826172 0.041,0.304695 0.0703,0.62989 0.0879,0.975586 0.0176,0.345709 0.0264,0.694342 0.0264,1.045898 l 0,0.57129 c 0.29883,-0.826167 0.5918,-1.508783 0.87891,-2.047852 0.28711,-0.544914 0.57129,-0.978508 0.85254,-1.300781 0.2871,-0.322257 0.57421,-0.547843 0.86133,-0.676758 0.2871,-0.128897 0.58007,-0.19335 0.8789,-0.193359 0.22265,9e-6 0.42773,0.02052 0.61524,0.06152 0.18749,0.04102 0.37792,0.108407 0.57129,0.202148 l -0.26367,1.625977 c -0.16993,-0.07031 -0.31935,-0.11718 -0.44825,-0.140625 -0.12891,-0.02343 -0.28711,-0.03515 -0.47461,-0.03516 -0.24024,7e-6 -0.49219,0.102546 -0.75586,0.307617 -0.26367,0.199226 -0.52441,0.465827 -0.78222,0.799805 -0.25196,0.33399 -0.49219,0.711919 -0.7207,1.133789 -0.22852,0.421879 -0.43067,0.855473 -0.60645,1.300781 -0.16993,0.439456 -0.30762,0.87012 -0.41309,1.291992 -0.0996,0.421877 -0.14941,0.796877 -0.14941,1.125 0,0.146486 0,0.281251 0,0.404297 0.006,0.123048 0.0147,0.243165 0.0264,0.360352 0.0176,0.111328 0.0381,0.225586 0.0615,0.342773 0.0234,0.111328 0.0527,0.231445 0.0879,0.360352 l -1.80176,0" style="fill:#4d4d4d;font-family:Andika Basic;-inkscape-font-specification:Andika Basic" id="path3739"/>
      <path d="m 345.40527,17.81108 c 0.48047,9e-6 0.90527,0.0586 1.27442,0.175781 0.36913,0.111337 0.68847,0.26954 0.95801,0.474609 0.26952,0.199227 0.4951,0.433602 0.67675,0.703125 0.18164,0.269539 0.32519,0.559578 0.43067,0.870117 0.11132,0.310554 0.19042,0.635749 0.2373,0.975586 0.0469,0.33399 0.0703,0.665045 0.0703,0.993164 l 0,0.342774 c 0,0.146489 -0.003,0.260746 -0.009,0.342773 l -6.23145,0 c 0.0176,0.515629 0.0967,0.963871 0.2373,1.344727 0.14649,0.380862 0.34278,0.697268 0.58887,0.949219 0.25195,0.246095 0.54492,0.430665 0.87891,0.55371 0.33984,0.123049 0.70898,0.184572 1.10742,0.184571 0.56835,10e-7 1.12499,-0.06445 1.66992,-0.19336 0.54492,-0.128904 1.08691,-0.35742 1.62598,-0.685546 l 0.17578,1.450195 c -0.31056,0.158203 -0.61524,0.292969 -0.91406,0.404297 -0.29884,0.111328 -0.59767,0.202148 -0.89649,0.272461 -0.29883,0.07031 -0.60352,0.120117 -0.91406,0.149414 -0.30469,0.03516 -0.62696,0.05273 -0.9668,0.05273 -0.5625,0 -1.09863,-0.09668 -1.6084,-0.290039 -0.50976,-0.199218 -0.95801,-0.489257 -1.34472,-0.870117 -0.38672,-0.386718 -0.69434,-0.864256 -0.92285,-1.432617 -0.22852,-0.568357 -0.34278,-1.227536 -0.34278,-1.977539 0,-0.726558 0.0967,-1.382807 0.29004,-1.96875 0.19922,-0.59179 0.48047,-1.095696 0.84375,-1.511719 0.36328,-0.421867 0.80566,-0.744132 1.32715,-0.966797 0.52148,-0.228507 1.10742,-0.342764 1.75781,-0.342773 m -0.13183,1.318359 c -0.64454,8e-6 -1.17188,0.190437 -1.58203,0.571289 -0.41016,0.375007 -0.67969,0.960944 -0.8086,1.757812 l 4.58789,0 c 0,-0.374994 -0.0557,-0.706048 -0.16699,-0.993164 -0.10547,-0.292962 -0.25782,-0.539055 -0.45703,-0.738281 -0.19337,-0.199211 -0.42481,-0.348625 -0.69434,-0.448242 -0.26953,-0.0996 -0.5625,-0.149406 -0.8789,-0.149414" style="fill:#4d4d4d;font-family:Andika Basic;-inkscape-font-specification:Andika Basic" id="path3741"/>
      <path d="m 355.03809,17.81108 c 0.48046,9e-6 0.90526,0.0586 1.27441,0.175781 0.36913,0.111337 0.68847,0.26954 0.95801,0.474609 0.26952,0.199227 0.49511,0.433602 0.67676,0.703125 0.18163,0.269539 0.32518,0.559578 0.43066,0.870117 0.11132,0.310554 0.19042,0.635749 0.2373,0.975586 0.0469,0.33399 0.0703,0.665045 0.0703,0.993164 l 0,0.342774 c -1e-5,0.146489 -0.003,0.260746 -0.009,0.342773 l -6.23145,0 c 0.0176,0.515629 0.0967,0.963871 0.23731,1.344727 0.14648,0.380862 0.34277,0.697268 0.58886,0.949219 0.25195,0.246095 0.54492,0.430665 0.87891,0.55371 0.33984,0.123049 0.70898,0.184572 1.10742,0.184571 0.56836,10e-7 1.125,-0.06445 1.66992,-0.19336 0.54492,-0.128904 1.08691,-0.35742 1.62598,-0.685546 l 0.17578,1.450195 c -0.31055,0.158203 -0.61524,0.292969 -0.91406,0.404297 -0.29884,0.111328 -0.59766,0.202148 -0.89648,0.272461 -0.29884,0.07031 -0.60353,0.120117 -0.91407,0.149414 -0.30469,0.03516 -0.62696,0.05273 -0.96679,0.05273 -0.56251,0 -1.09864,-0.09668 -1.6084,-0.290039 -0.50977,-0.199218 -0.95801,-0.489257 -1.34473,-0.870117 -0.38672,-0.386718 -0.69434,-0.864256 -0.92285,-1.432617 -0.22852,-0.568357 -0.34277,-1.227536 -0.34277,-1.977539 0,-0.726558 0.0967,-1.382807 0.29003,-1.96875 0.19922,-0.59179 0.48047,-1.095696 0.84375,-1.511719 0.36328,-0.421867 0.80567,-0.744132 1.32715,-0.966797 0.52148,-0.228507 1.10742,-0.342764 1.75782,-0.342773 m -0.13184,1.318359 c -0.64454,8e-6 -1.17188,0.190437 -1.58203,0.571289 -0.41016,0.375007 -0.67969,0.960944 -0.8086,1.757812 l 4.5879,0 c -1e-5,-0.374994 -0.0557,-0.706048 -0.167,-0.993164 -0.10547,-0.292962 -0.25782,-0.539055 -0.45703,-0.738281 -0.19336,-0.199211 -0.42481,-0.348625 -0.69433,-0.448242 -0.26954,-0.0996 -0.56251,-0.149406 -0.87891,-0.149414" style="fill:#4d4d4d;font-family:Andika Basic;-inkscape-font-specification:Andika Basic" id="path3743"/>
      <path d="m 368.99512,17.81108 c 0.3164,9e-6 0.6123,0.02052 0.88769,0.06152 0.28125,0.04102 0.53613,0.09669 0.76465,0.166992 0.23437,0.06446 0.44824,0.140634 0.6416,0.228516 0.19335,0.08204 0.36621,0.164071 0.51856,0.246094 L 371.5,20.05229 c -0.14649,-0.08788 -0.31348,-0.178703 -0.50098,-0.27246 -0.1875,-0.0996 -0.39258,-0.190423 -0.61523,-0.272461 -0.2168,-0.08202 -0.45118,-0.149407 -0.70313,-0.202149 -0.24609,-0.05859 -0.50391,-0.08788 -0.77343,-0.08789 -0.32227,7e-6 -0.59473,0.03516 -0.81739,0.105468 -0.2168,0.07032 -0.39258,0.161141 -0.52734,0.272461 -0.12891,0.105476 -0.22266,0.228523 -0.28125,0.369141 -0.0586,0.134772 -0.0879,0.266608 -0.0879,0.395508 0,0.15235 0.0234,0.287115 0.0703,0.404297 0.0469,0.117193 0.14355,0.225591 0.29004,0.325195 0.15234,0.09962 0.36621,0.196295 0.6416,0.290039 0.27539,0.09375 0.64453,0.193365 1.10742,0.298828 0.39844,0.0879 0.77344,0.202154 1.125,0.342773 0.35156,0.134771 0.65918,0.307622 0.92286,0.518555 0.26366,0.210942 0.47167,0.465824 0.62402,0.764649 0.15234,0.292972 0.22851,0.644534 0.22851,1.054687 0,0.39844 -0.0879,0.76758 -0.26367,1.107422 -0.17579,0.339845 -0.41602,0.638673 -0.7207,0.896484 -0.30469,0.251954 -0.66212,0.448243 -1.07227,0.588868 -0.41016,0.146484 -0.85254,0.219726 -1.32714,0.219726 -0.35743,0 -0.70313,-0.02637 -1.03711,-0.0791 -0.32813,-0.05274 -0.63868,-0.125977 -0.93164,-0.219727 -0.28712,-0.09375 -0.55079,-0.202148 -0.79102,-0.325195 -0.24024,-0.123047 -0.44824,-0.251953 -0.62402,-0.386719 l 0.43945,-1.582031 c 0.19922,0.175783 0.42187,0.336916 0.66797,0.483398 0.25195,0.146486 0.50976,0.272463 0.77344,0.37793 0.26367,0.10547 0.52734,0.187501 0.79101,0.246094 0.26953,0.05273 0.52148,0.0791 0.75586,0.0791 0.25781,1e-6 0.49218,-0.03222 0.70313,-0.09668 0.21679,-0.07031 0.40136,-0.158201 0.55371,-0.263671 0.15819,-0.111327 0.28124,-0.237303 0.36914,-0.37793 0.0879,-0.146482 0.13183,-0.295896 0.13183,-0.448242 0,-0.16406 -0.0352,-0.316404 -0.10547,-0.457032 -0.0645,-0.146481 -0.1875,-0.284176 -0.36914,-0.413086 -0.17578,-0.134762 -0.42188,-0.263668 -0.73828,-0.386718 -0.31055,-0.123043 -0.71192,-0.24609 -1.2041,-0.369141 -0.5332,-0.128902 -0.96973,-0.281246 -1.30957,-0.457031 -0.33399,-0.175777 -0.59766,-0.369136 -0.79101,-0.580078 -0.18751,-0.210933 -0.31641,-0.439448 -0.38672,-0.685547 -0.0703,-0.246088 -0.10547,-0.50683 -0.10547,-0.782227 0,-0.134759 0.0205,-0.292962 0.0615,-0.474609 0.0469,-0.181634 0.12012,-0.369133 0.21973,-0.5625 0.10547,-0.199211 0.24023,-0.39257 0.40429,-0.580078 0.16992,-0.193351 0.38086,-0.363273 0.63282,-0.509766 0.25195,-0.152335 0.54785,-0.275382 0.88769,-0.36914 0.33984,-0.09374 0.73242,-0.140616 1.17774,-0.140625" style="fill:#4d4d4d;font-family:Andika Basic;-inkscape-font-specification:Andika Basic" id="path3745"/>
      <path d="m 375.40234,22.513228 c 0,0.50977 0.0615,0.9668 0.18457,1.371094 0.12305,0.404299 0.2959,0.747072 0.51856,1.02832 0.22851,0.275392 0.49804,0.48633 0.80859,0.632813 0.31055,0.146485 0.65625,0.219727 1.03711,0.219726 0.35156,1e-6 0.68261,-0.07324 0.99317,-0.219726 0.31054,-0.146483 0.58007,-0.357421 0.80859,-0.632813 0.23437,-0.281248 0.41601,-0.624021 0.54492,-1.02832 0.13476,-0.404294 0.20214,-0.861324 0.20215,-1.371094 -10e-6,-0.51562 -0.0615,-0.975581 -0.18457,-1.379883 -0.12305,-0.41015 -0.29884,-0.755853 -0.52734,-1.037109 -0.22267,-0.287102 -0.4922,-0.503899 -0.8086,-0.650391 -0.31055,-0.152336 -0.65332,-0.228508 -1.02832,-0.228515 -0.35742,7e-6 -0.69141,0.07618 -1.00195,0.228515 -0.31055,0.146492 -0.58008,0.363289 -0.8086,0.650391 -0.22851,0.281256 -0.41015,0.626959 -0.54492,1.037109 -0.12891,0.404302 -0.19336,0.864263 -0.19336,1.379883 m -1.62597,0 c 0,-0.755854 0.11425,-1.423822 0.34277,-2.003906 0.22851,-0.585931 0.53613,-1.078118 0.92285,-1.476563 0.38672,-0.404288 0.83789,-0.708976 1.35352,-0.914062 0.51562,-0.205069 1.06347,-0.307608 1.64355,-0.307617 0.60351,9e-6 1.15429,0.102548 1.65235,0.307617 0.5039,0.205086 0.93456,0.509774 1.29199,0.914062 0.36327,0.398445 0.64452,0.890632 0.84375,1.476563 0.19921,0.580084 0.29882,1.248052 0.29883,2.003906 -1e-5,0.755863 -0.11427,1.423831 -0.34278,2.003906 -0.22852,0.58008 -0.53614,1.066408 -0.92285,1.458985 -0.38672,0.392578 -0.8379,0.691406 -1.35351,0.896484 -0.51564,0.199219 -1.06349,0.298828 -1.64356,0.298828 -0.60352,0 -1.15723,-0.09961 -1.66113,-0.298828 -0.49805,-0.205078 -0.92871,-0.503906 -1.29199,-0.896484 -0.35743,-0.392577 -0.63575,-0.878905 -0.83496,-1.458985 -0.19922,-0.580075 -0.29883,-1.248043 -0.29883,-2.003906" style="fill:#4d4d4d;font-family:Andika Basic;-inkscape-font-specification:Andika Basic" id="path3747"/>
      <path d="m 383.3125,18.206587 1.75781,0 0,-1.538086 c 0,-1.318347 0.2666,-2.305651 0.79981,-2.961914 0.53906,-0.662095 1.2832,-0.993149 2.23242,-0.993164 0.3457,1.5e-5 0.68554,0.05568 1.01953,0.166992 0.33398,0.105483 0.63867,0.254897 0.91406,0.448243 l -0.40429,1.318359 c -0.22267,-0.16405 -0.46876,-0.292956 -0.73829,-0.386719 -0.26953,-0.09374 -0.5332,-0.140612 -0.79101,-0.140625 -0.22852,1.3e-5 -0.43067,0.04103 -0.60645,0.123047 -0.17578,0.07619 -0.32227,0.202161 -0.43945,0.37793 -0.11719,0.175793 -0.20801,0.404309 -0.27246,0.685547 -0.0586,0.275402 -0.0879,0.612315 -0.0879,1.010742 l 0,1.889648 2.37305,0 0,1.274414 -2.37305,0 0,3.128907 c 0,0.427738 0.003,0.852542 0.009,1.274414 0.0117,0.416018 0.0264,0.814455 0.0439,1.195312 0.0234,0.375002 0.0527,0.723634 0.0879,1.045899 0.0352,0.322266 0.0762,0.597656 0.12305,0.826172 l -1.88965,0 0,-7.470704 -1.75781,0 0,-1.274414" style="fill:#4d4d4d;font-family:Andika Basic;-inkscape-font-specification:Andika Basic" id="path3749"/>
      <path d="m 389.83398,18.206587 1.75782,0 0,-2.856445 1.62597,0 0,2.856445 2.85645,0 0,1.274414 -2.85645,0 0,4.042969 c 0,0.451175 0.0205,0.820315 0.0615,1.107422 0.0469,0.287111 0.11425,0.512697 0.20215,0.676758 0.0937,0.158204 0.21093,0.266603 0.35156,0.325195 0.14062,0.0586 0.31054,0.08789 0.50976,0.08789 0.25195,1e-6 0.53613,-0.05566 0.85254,-0.166992 0.3164,-0.111327 0.66796,-0.275389 1.05469,-0.492188 l 0,1.40625 c -0.4043,0.263672 -0.79102,0.445313 -1.16016,0.544922 -0.36914,0.105469 -0.70899,0.158203 -1.01953,0.158203 -0.3457,0 -0.66797,-0.04102 -0.96679,-0.123047 -0.29884,-0.07617 -0.56251,-0.213867 -0.79102,-0.413086 -0.22266,-0.199218 -0.39844,-0.46289 -0.52734,-0.791015 -0.12891,-0.333983 -0.19337,-0.755858 -0.19336,-1.265625 l 0,-5.097657 -1.75782,0 0,-1.274414" style="fill:#4d4d4d;font-family:Andika Basic;-inkscape-font-specification:Andika Basic" id="path3751"/>
      <path d="m 404.38867,17.986861 2.28516,7.075195 1.8457,-7.075195 1.62598,0 c -0.10548,0.333993 -0.19923,0.63575 -0.28125,0.905273 -0.0762,0.26368 -0.14943,0.518562 -0.21973,0.764649 -0.0703,0.240241 -0.14064,0.477546 -0.21094,0.711914 -0.0645,0.228522 -0.13477,0.474615 -0.21093,0.738281 l -1.62598,5.844727 -1.66992,0 -2.19727,-6.899415 -2.19726,6.899415 -1.66993,0 -1.62597,-5.844727 c -0.0645,-0.234369 -0.13184,-0.465814 -0.20215,-0.694336 -0.0644,-0.228509 -0.13477,-0.465813 -0.21094,-0.711914 -0.0703,-0.246086 -0.14648,-0.509758 -0.22851,-0.791016 -0.082,-0.281241 -0.17579,-0.588858 -0.28125,-0.922851 l 1.62597,0 1.84571,7.075195 2.28515,-7.075195 1.31836,0" style="fill:#4d4d4d;font-family:Andika Basic;-inkscape-font-specification:Andika Basic" id="path3753"/>
      <path d="m 415.78809,19.30522 c -0.18751,8e-6 -0.37794,0.02345 -0.57129,0.07031 -0.18751,0.04102 -0.37501,0.114265 -0.5625,0.219726 -0.18165,0.105476 -0.36036,0.246101 -0.53614,0.421875 -0.16992,0.169929 -0.33105,0.386726 -0.48339,0.650391 -0.15821,0.269537 -0.28712,0.606451 -0.38672,1.010742 -0.0938,0.398442 -0.14063,0.808598 -0.14063,1.230469 0,0.486331 0.0439,0.905276 0.13184,1.256836 0.0937,0.345705 0.21386,0.632814 0.36035,0.861328 0.15234,0.222658 0.32226,0.38672 0.50976,0.492187 0.19336,0.10547 0.38672,0.158205 0.58008,0.158203 0.24609,2e-6 0.51269,-0.07617 0.79981,-0.228515 0.29296,-0.152342 0.57714,-0.35449 0.85254,-0.606445 0.27538,-0.251951 0.53319,-0.54199 0.77343,-0.870118 0.24609,-0.328121 0.44824,-0.667965 0.60645,-1.019531 l 0,-3.295898 c -0.0879,-0.04101 -0.20216,-0.08202 -0.34277,-0.123047 -0.13478,-0.04101 -0.28712,-0.07909 -0.45704,-0.114258 -0.16406,-0.03515 -0.3457,-0.06152 -0.54492,-0.0791 -0.19336,-0.02343 -0.38965,-0.03515 -0.58886,-0.03516 m 3.55957,2.988281 c -1e-5,1.107426 0.0615,2.039066 0.18457,2.794922 0.12303,0.750001 0.28124,1.371095 0.47461,1.863282 l -1.53809,0 c -0.0293,-0.07617 -0.0703,-0.181641 -0.12305,-0.316407 -0.0527,-0.134765 -0.1084,-0.287108 -0.16699,-0.457031 -0.0527,-0.17578 -0.10548,-0.36328 -0.1582,-0.5625 -0.0469,-0.199217 -0.0879,-0.398436 -0.12305,-0.597656 -0.22852,0.29297 -0.47169,0.568361 -0.72949,0.826172 -0.25196,0.257813 -0.51856,0.486328 -0.79981,0.685547 -0.28125,0.199219 -0.57422,0.354492 -0.8789,0.46582 -0.30469,0.117187 -0.61524,0.175781 -0.93164,0.175781 -0.36915,0 -0.73829,-0.0791 -1.10742,-0.237305 -0.36329,-0.158203 -0.69141,-0.395507 -0.98438,-0.711914 -0.29297,-0.316405 -0.53027,-0.711912 -0.71191,-1.186523 -0.18165,-0.480466 -0.27247,-1.042966 -0.27246,-1.6875 -10e-6,-0.673824 0.0732,-1.283198 0.21972,-1.828125 0.15234,-0.550775 0.35742,-1.040033 0.61524,-1.467774 0.22851,-0.374992 0.47167,-0.703117 0.72949,-0.984375 0.25781,-0.281241 0.53906,-0.512686 0.84375,-0.694335 0.31054,-0.187492 0.65039,-0.328117 1.01953,-0.421875 0.36914,-0.09374 0.77929,-0.140616 1.23047,-0.140625 0.22265,9e-6 0.46874,0.01759 0.73828,0.05273 0.27538,0.02931 0.5537,0.07325 0.83496,0.131836 0.2871,0.0586 0.57128,0.128915 0.85254,0.210937 0.28124,0.08204 0.54198,0.169931 0.78223,0.263672 l 0,3.823242" style="fill:#4d4d4d;font-family:Andika Basic;-inkscape-font-specification:Andika Basic" id="path3755"/>
      <path d="m 422.0459,26.951705 0,-5.405274 c 0,-0.867181 -0.0498,-1.599602 -0.14942,-2.197266 -0.0937,-0.603507 -0.19043,-1.057608 -0.29003,-1.362304 l 1.58203,0 c 0.0703,0.164071 0.13183,0.372079 0.18457,0.624023 0.0586,0.246102 0.10546,0.521492 0.14062,0.826172 0.041,0.304695 0.0703,0.62989 0.0879,0.975586 0.0176,0.345709 0.0264,0.694342 0.0264,1.045898 l 0,0.57129 c 0.29882,-0.826167 0.59179,-1.508783 0.87891,-2.047852 0.2871,-0.544914 0.57128,-0.978508 0.85253,-1.300781 0.28711,-0.322257 0.57422,-0.547843 0.86133,-0.676758 0.28711,-0.128897 0.58008,-0.19335 0.87891,-0.193359 0.22265,9e-6 0.42773,0.02052 0.61523,0.06152 0.1875,0.04102 0.37793,0.108407 0.57129,0.202148 l -0.26367,1.625977 c -0.16993,-0.07031 -0.31934,-0.11718 -0.44824,-0.140625 -0.12891,-0.02343 -0.28712,-0.03515 -0.47461,-0.03516 -0.24024,7e-6 -0.49219,0.102546 -0.75586,0.307617 -0.26368,0.199226 -0.52442,0.465827 -0.78223,0.799805 -0.25195,0.33399 -0.49219,0.711919 -0.7207,1.133789 -0.22852,0.421879 -0.43067,0.855473 -0.60645,1.300781 -0.16992,0.439456 -0.30762,0.87012 -0.41308,1.291992 -0.0996,0.421877 -0.14942,0.796877 -0.14942,1.125 0,0.146486 0,0.281251 0,0.404297 0.006,0.123048 0.0146,0.243165 0.0264,0.360352 0.0176,0.111328 0.0381,0.225586 0.0615,0.342773 0.0234,0.111328 0.0527,0.231445 0.0879,0.360352 l -1.80176,0" style="fill:#4d4d4d;font-family:Andika Basic;-inkscape-font-specification:Andika Basic" id="path3757"/>
      <path d="m 433.57715,17.81108 c 0.48046,9e-6 0.90527,0.0586 1.27441,0.175781 0.36914,0.111337 0.68847,0.26954 0.95801,0.474609 0.26952,0.199227 0.49511,0.433602 0.67676,0.703125 0.18163,0.269539 0.32519,0.559578 0.43066,0.870117 0.11132,0.310554 0.19042,0.635749 0.23731,0.975586 0.0469,0.33399 0.0703,0.665045 0.0703,0.993164 l 0,0.342774 c -1e-5,0.146489 -0.003,0.260746 -0.009,0.342773 l -6.23145,0 c 0.0176,0.515629 0.0967,0.963871 0.23731,1.344727 0.14648,0.380862 0.34277,0.697268 0.58887,0.949219 0.25195,0.246095 0.54491,0.430665 0.8789,0.55371 0.33984,0.123049 0.70898,0.184572 1.10742,0.184571 0.56836,10e-7 1.125,-0.06445 1.66993,-0.19336 0.54491,-0.128904 1.0869,-0.35742 1.62597,-0.685546 l 0.17578,1.450195 c -0.31055,0.158203 -0.61524,0.292969 -0.91406,0.404297 -0.29883,0.111328 -0.59766,0.202148 -0.89648,0.272461 -0.29884,0.07031 -0.60352,0.120117 -0.91406,0.149414 -0.3047,0.03516 -0.62696,0.05273 -0.9668,0.05273 -0.56251,0 -1.09864,-0.09668 -1.6084,-0.290039 -0.50977,-0.199218 -0.95801,-0.489257 -1.34473,-0.870117 -0.38672,-0.386718 -0.69433,-0.864256 -0.92285,-1.432617 -0.22851,-0.568357 -0.34277,-1.227536 -0.34277,-1.977539 0,-0.726558 0.0967,-1.382807 0.29004,-1.96875 0.19921,-0.59179 0.48046,-1.095696 0.84375,-1.511719 0.36328,-0.421867 0.80566,-0.744132 1.32715,-0.966797 0.52148,-0.228507 1.10741,-0.342764 1.75781,-0.342773 m -0.13184,1.318359 c -0.64453,8e-6 -1.17188,0.190437 -1.58203,0.571289 -0.41016,0.375007 -0.67969,0.960944 -0.80859,1.757812 l 4.58789,0 c -10e-6,-0.374994 -0.0557,-0.706048 -0.16699,-0.993164 -0.10548,-0.292962 -0.25782,-0.539055 -0.45704,-0.738281 -0.19336,-0.199211 -0.42481,-0.348625 -0.69433,-0.448242 -0.26954,-0.0996 -0.56251,-0.149406 -0.87891,-0.149414" style="fill:#4d4d4d;font-family:Andika Basic;-inkscape-font-specification:Andika Basic" id="path3759"/>
      <path d="m 309.13281,40.706587 1.75781,0 0,-1.538086 c 0,-1.318347 0.2666,-2.305651 0.79981,-2.961914 0.53906,-0.662095 1.2832,-0.993149 2.23242,-0.993164 0.3457,1.5e-5 0.68554,0.05568 1.01953,0.166992 0.33398,0.105483 0.63867,0.254897 0.91407,0.448243 l -0.4043,1.318359 c -0.22266,-0.16405 -0.46876,-0.292956 -0.73828,-0.386719 -0.26954,-0.09374 -0.53321,-0.140612 -0.79102,-0.140625 -0.22852,1.3e-5 -0.43067,0.04103 -0.60644,0.123047 -0.17579,0.07619 -0.32227,0.202161 -0.43946,0.37793 -0.11719,0.175793 -0.20801,0.404309 -0.27246,0.685547 -0.0586,0.275402 -0.0879,0.612315 -0.0879,1.010742 l 0,1.889648 2.37305,0 0,1.274414 -2.37305,0 0,3.128907 c 0,0.427738 0.003,0.852542 0.009,1.274414 0.0117,0.416018 0.0264,0.814455 0.0439,1.195312 0.0234,0.375002 0.0527,0.723634 0.0879,1.045899 0.0351,0.322266 0.0762,0.597656 0.12304,0.826172 l -1.88965,0 0,-7.470704 -1.75781,0 0,-1.274414" style="fill:#4d4d4d;font-family:Andika Basic;-inkscape-font-specification:Andika Basic" id="path3761"/>
      <path d="m 317.85156,45.013228 c 0,0.50977 0.0615,0.9668 0.18457,1.371094 0.12305,0.404299 0.2959,0.747072 0.51856,1.02832 0.22851,0.275392 0.49804,0.48633 0.80859,0.632813 0.31054,0.146485 0.65625,0.219727 1.03711,0.219726 0.35156,1e-6 0.68261,-0.07324 0.99316,-0.219726 0.31055,-0.146483 0.58008,-0.357421 0.8086,-0.632813 0.23437,-0.281248 0.41601,-0.624021 0.54492,-1.02832 0.13476,-0.404294 0.20214,-0.861324 0.20215,-1.371094 -1e-5,-0.51562 -0.0615,-0.975581 -0.18457,-1.379883 -0.12306,-0.41015 -0.29884,-0.755853 -0.52735,-1.037109 -0.22266,-0.287102 -0.49219,-0.503899 -0.80859,-0.650391 -0.31055,-0.152336 -0.65332,-0.228508 -1.02832,-0.228515 -0.35743,7e-6 -0.69141,0.07618 -1.00195,0.228515 -0.31055,0.146492 -0.58008,0.363289 -0.8086,0.650391 -0.22851,0.281256 -0.41016,0.626959 -0.54492,1.037109 -0.12891,0.404302 -0.19336,0.864263 -0.19336,1.379883 m -1.62597,0 c 0,-0.755854 0.11425,-1.423822 0.34277,-2.003906 0.22851,-0.585931 0.53613,-1.078118 0.92285,-1.476563 0.38672,-0.404288 0.83789,-0.708976 1.35352,-0.914062 0.51562,-0.205069 1.06347,-0.307608 1.64355,-0.307617 0.60351,9e-6 1.15429,0.102548 1.65234,0.307617 0.5039,0.205086 0.93457,0.509774 1.292,0.914062 0.36327,0.398445 0.64452,0.890632 0.84375,1.476563 0.19921,0.580084 0.29882,1.248052 0.29883,2.003906 -10e-6,0.755863 -0.11427,1.423831 -0.34278,2.003906 -0.22852,0.58008 -0.53614,1.066408 -0.92285,1.458985 -0.38673,0.392578 -0.8379,0.691406 -1.35352,0.896484 -0.51563,0.199219 -1.06348,0.298828 -1.64355,0.298828 -0.60352,0 -1.15723,-0.09961 -1.66113,-0.298828 -0.49805,-0.205078 -0.92872,-0.503906 -1.292,-0.896484 -0.35742,-0.392577 -0.63574,-0.878905 -0.83496,-1.458985 -0.19922,-0.580075 -0.29882,-1.248043 -0.29882,-2.003906" style="fill:#4d4d4d;font-family:Andika Basic;-inkscape-font-specification:Andika Basic" id="path3763"/>
      <path d="m 326.77246,49.451705 0,-5.405274 c 0,-0.867181 -0.0498,-1.599602 -0.14941,-2.197266 -0.0937,-0.603507 -0.19043,-1.057608 -0.29004,-1.362304 l 1.58203,0 c 0.0703,0.164071 0.13183,0.372079 0.18457,0.624023 0.0586,0.246102 0.10547,0.521492 0.14062,0.826172 0.041,0.304695 0.0703,0.62989 0.0879,0.975586 0.0176,0.345709 0.0264,0.694342 0.0264,1.045898 l 0,0.57129 c 0.29883,-0.826167 0.5918,-1.508783 0.87891,-2.047852 0.2871,-0.544914 0.57128,-0.978508 0.85254,-1.300781 0.2871,-0.322257 0.57421,-0.547843 0.86133,-0.676758 0.2871,-0.128897 0.58007,-0.19335 0.8789,-0.193359 0.22265,9e-6 0.42773,0.02052 0.61524,0.06152 0.18749,0.04103 0.37792,0.108407 0.57129,0.202148 l -0.26368,1.625977 c -0.16993,-0.0703 -0.31934,-0.11718 -0.44824,-0.140625 -0.12891,-0.02343 -0.28711,-0.03515 -0.47461,-0.03516 -0.24024,7e-6 -0.49219,0.102546 -0.75586,0.307617 -0.26367,0.199226 -0.52442,0.465827 -0.78222,0.799805 -0.25196,0.33399 -0.4922,0.711919 -0.72071,1.133789 -0.22852,0.421879 -0.43066,0.855473 -0.60644,1.300781 -0.16993,0.439456 -0.30762,0.87012 -0.41309,1.291992 -0.0996,0.421877 -0.14942,0.796877 -0.14941,1.125 -1e-5,0.146486 -1e-5,0.281251 0,0.404297 0.006,0.123048 0.0146,0.243165 0.0264,0.360352 0.0176,0.111328 0.0381,0.225586 0.0615,0.342773 0.0234,0.111328 0.0527,0.231445 0.0879,0.360352 l -1.80176,0" style="fill:#4d4d4d;font-family:Andika Basic;-inkscape-font-specification:Andika Basic" id="path3765"/>
      <path d="m 338.45312,40.706587 1.75782,0 0,-1.538086 c 0,-1.318347 0.2666,-2.305651 0.7998,-2.961914 0.53906,-0.662095 1.2832,-0.993149 2.23242,-0.993164 0.3457,1.5e-5 0.68555,0.05568 1.01954,0.166992 0.33397,0.105483 0.63866,0.254897 0.91406,0.448243 l -0.4043,1.318359 c -0.22266,-0.16405 -0.46876,-0.292956 -0.73828,-0.386719 -0.26954,-0.09374 -0.53321,-0.140612 -0.79102,-0.140625 -0.22852,1.3e-5 -0.43066,0.04103 -0.60644,0.123047 -0.17579,0.07619 -0.32227,0.202161 -0.43945,0.37793 -0.1172,0.175793 -0.20802,0.404309 -0.27247,0.685547 -0.0586,0.275402 -0.0879,0.612315 -0.0879,1.010742 l 0,1.889648 2.37305,0 0,1.274414 -2.37305,0 0,3.128907 c 0,0.427738 0.003,0.852542 0.009,1.274414 0.0117,0.416018 0.0264,0.814455 0.0439,1.195312 0.0234,0.375002 0.0527,0.723634 0.0879,1.045899 0.0352,0.322266 0.0762,0.597656 0.12305,0.826172 l -1.88965,0 0,-7.470704 -1.75782,0 0,-1.274414" style="fill:#4d4d4d;font-family:Andika Basic;-inkscape-font-specification:Andika Basic" id="path3767"/>
      <path d="m 346.07324,49.451705 0,-5.405274 c 0,-0.867181 -0.0498,-1.599602 -0.14941,-2.197266 -0.0937,-0.603507 -0.19043,-1.057608 -0.29004,-1.362304 l 1.58203,0 c 0.0703,0.164071 0.13183,0.372079 0.18457,0.624023 0.0586,0.246102 0.10547,0.521492 0.14063,0.826172 0.041,0.304695 0.0703,0.62989 0.0879,0.975586 0.0176,0.345709 0.0264,0.694342 0.0264,1.045898 l 0,0.57129 c 0.29883,-0.826167 0.5918,-1.508783 0.87891,-2.047852 0.2871,-0.544914 0.57128,-0.978508 0.85254,-1.300781 0.2871,-0.322257 0.57421,-0.547843 0.86133,-0.676758 0.2871,-0.128897 0.58007,-0.19335 0.8789,-0.193359 0.22265,9e-6 0.42773,0.02052 0.61524,0.06152 0.18749,0.04103 0.37792,0.108407 0.57129,0.202148 l -0.26368,1.625977 c -0.16992,-0.0703 -0.31934,-0.11718 -0.44824,-0.140625 -0.12891,-0.02343 -0.28711,-0.03515 -0.47461,-0.03516 -0.24024,7e-6 -0.49219,0.102546 -0.75586,0.307617 -0.26367,0.199226 -0.52442,0.465827 -0.78222,0.799805 -0.25196,0.33399 -0.49219,0.711919 -0.72071,1.133789 -0.22852,0.421879 -0.43066,0.855473 -0.60644,1.300781 -0.16993,0.439456 -0.30762,0.87012 -0.41309,1.291992 -0.0996,0.421877 -0.14941,0.796877 -0.14941,1.125 0,0.146486 0,0.281251 0,0.404297 0.006,0.123048 0.0146,0.243165 0.0264,0.360352 0.0176,0.111328 0.0381,0.225586 0.0615,0.342773 0.0234,0.111328 0.0527,0.231445 0.0879,0.360352 l -1.80176,0" style="fill:#4d4d4d;font-family:Andika Basic;-inkscape-font-specification:Andika Basic" id="path3769"/>
      <path d="m 357.60449,40.31108 c 0.48047,9e-6 0.90527,0.0586 1.27442,0.175781 0.36913,0.111337 0.68847,0.26954 0.958,0.474609 0.26953,0.199227 0.49511,0.433602 0.67676,0.703125 0.18163,0.269539 0.32519,0.559578 0.43067,0.870117 0.11132,0.310554 0.19042,0.635749 0.2373,0.975586 0.0469,0.33399 0.0703,0.665045 0.0703,0.993164 l 0,0.342774 c -10e-6,0.146489 -0.003,0.260746 -0.009,0.342773 l -6.23144,0 c 0.0176,0.515629 0.0967,0.963871 0.2373,1.344727 0.14648,0.380862 0.34277,0.697268 0.58887,0.949219 0.25195,0.246095 0.54492,0.430665 0.87891,0.55371 0.33984,0.123049 0.70898,0.184572 1.10742,0.184571 0.56835,1e-6 1.12499,-0.06445 1.66992,-0.19336 0.54492,-0.128904 1.08691,-0.35742 1.62598,-0.685546 l 0.17578,1.450195 c -0.31056,0.158203 -0.61524,0.292969 -0.91406,0.404297 -0.29884,0.111328 -0.59767,0.202148 -0.89649,0.272461 -0.29883,0.07031 -0.60352,0.120117 -0.91406,0.149414 -0.30469,0.03516 -0.62696,0.05273 -0.9668,0.05273 -0.5625,0 -1.09863,-0.09668 -1.6084,-0.290039 -0.50976,-0.199218 -0.95801,-0.489257 -1.34472,-0.870117 -0.38672,-0.386718 -0.69434,-0.864256 -0.92285,-1.432617 -0.22852,-0.568357 -0.34278,-1.227536 -0.34278,-1.977539 0,-0.726558 0.0967,-1.382807 0.29004,-1.96875 0.19922,-0.59179 0.48047,-1.095696 0.84375,-1.511719 0.36328,-0.421867 0.80566,-0.744132 1.32715,-0.966797 0.52148,-0.228507 1.10742,-0.342764 1.75781,-0.342773 m -0.13183,1.318359 c -0.64454,8e-6 -1.17188,0.190437 -1.58204,0.571289 -0.41015,0.375007 -0.67969,0.960944 -0.80859,1.757812 l 4.58789,0 c -10e-6,-0.374994 -0.0557,-0.706048 -0.16699,-0.993164 -0.10548,-0.292962 -0.25782,-0.539055 -0.45703,-0.738281 -0.19337,-0.199211 -0.42481,-0.348625 -0.69434,-0.448242 -0.26953,-0.0996 -0.5625,-0.149406 -0.8789,-0.149414" style="fill:#4d4d4d;font-family:Andika Basic;-inkscape-font-specification:Andika Basic" id="path3771"/>
      <path d="m 367.2373,40.31108 c 0.48047,9e-6 0.90527,0.0586 1.27442,0.175781 0.36913,0.111337 0.68847,0.26954 0.95801,0.474609 0.26952,0.199227 0.49511,0.433602 0.67675,0.703125 0.18164,0.269539 0.32519,0.559578 0.43067,0.870117 0.11132,0.310554 0.19042,0.635749 0.2373,0.975586 0.0469,0.33399 0.0703,0.665045 0.0703,0.993164 l 0,0.342774 c -10e-6,0.146489 -0.003,0.260746 -0.009,0.342773 l -6.23145,0 c 0.0176,0.515629 0.0967,0.963871 0.23731,1.344727 0.14648,0.380862 0.34277,0.697268 0.58886,0.949219 0.25195,0.246095 0.54492,0.430665 0.87891,0.55371 0.33984,0.123049 0.70898,0.184572 1.10742,0.184571 0.56835,1e-6 1.12499,-0.06445 1.66992,-0.19336 0.54492,-0.128904 1.08691,-0.35742 1.62598,-0.685546 l 0.17578,1.450195 c -0.31055,0.158203 -0.61524,0.292969 -0.91406,0.404297 -0.29884,0.111328 -0.59767,0.202148 -0.89649,0.272461 -0.29883,0.07031 -0.60352,0.120117 -0.91406,0.149414 -0.30469,0.03516 -0.62696,0.05273 -0.9668,0.05273 -0.5625,0 -1.09863,-0.09668 -1.60839,-0.290039 -0.50977,-0.199218 -0.95801,-0.489257 -1.34473,-0.870117 -0.38672,-0.386718 -0.69434,-0.864256 -0.92285,-1.432617 -0.22852,-0.568357 -0.34278,-1.227536 -0.34278,-1.977539 0,-0.726558 0.0967,-1.382807 0.29004,-1.96875 0.19922,-0.59179 0.48047,-1.095696 0.84375,-1.511719 0.36328,-0.421867 0.80567,-0.744132 1.32715,-0.966797 0.52148,-0.228507 1.10742,-0.342764 1.75781,-0.342773 m -0.13183,1.318359 c -0.64454,8e-6 -1.17188,0.190437 -1.58203,0.571289 -0.41016,0.375007 -0.67969,0.960944 -0.8086,1.757812 l 4.58789,0 c 0,-0.374994 -0.0557,-0.706048 -0.16699,-0.993164 -0.10547,-0.292962 -0.25782,-0.539055 -0.45703,-0.738281 -0.19336,-0.199211 -0.42481,-0.348625 -0.69434,-0.448242 -0.26953,-0.0996 -0.5625,-0.149406 -0.8789,-0.149414" style="fill:#4d4d4d;font-family:Andika Basic;-inkscape-font-specification:Andika Basic" id="path3773"/>
      <path d="m 384.97363,49.451705 -1.62597,0 0,-5.009766 c -1e-5,-0.544916 -0.0205,-0.984369 -0.0615,-1.318359 -0.041,-0.339838 -0.11133,-0.603509 -0.21093,-0.791016 -0.0938,-0.193352 -0.22267,-0.322258 -0.38672,-0.386719 -0.16407,-0.06444 -0.36915,-0.09667 -0.61524,-0.09668 -0.2168,8e-6 -0.4336,0.04395 -0.65039,0.131836 -0.2168,0.0879 -0.42481,0.213875 -0.62402,0.37793 -0.19337,0.15821 -0.37501,0.34864 -0.54492,0.571289 -0.16407,0.216803 -0.30469,0.457037 -0.42188,0.720703 l 0,5.800782 -1.62598,0 0,-5.405274 c 0,-0.867181 -0.0498,-1.599602 -0.14941,-2.197266 -0.0996,-0.603507 -0.19629,-1.057608 -0.29004,-1.362304 l 1.58203,0 c 0.0644,0.187509 0.12012,0.410165 0.16699,0.667969 0.0469,0.251961 0.085,0.483406 0.11426,0.694335 0.26953,-0.310538 0.52734,-0.565421 0.77344,-0.764648 0.24609,-0.19921 0.48925,-0.354483 0.72949,-0.46582 0.24609,-0.117179 0.48926,-0.19628 0.72949,-0.237305 0.24023,-0.04687 0.48633,-0.0703 0.73829,-0.07031 0.2871,9e-6 0.54784,0.04102 0.78222,0.123046 0.23437,0.08204 0.43945,0.190439 0.61524,0.325196 0.18163,0.134774 0.3369,0.292977 0.46582,0.474609 0.1289,0.175789 0.2285,0.36036 0.29883,0.553711 0.27538,-0.29882 0.54198,-0.541984 0.7998,-0.729492 0.2578,-0.193351 0.50976,-0.342765 0.75586,-0.448242 0.24608,-0.11132 0.48632,-0.187491 0.7207,-0.228516 0.24023,-0.04687 0.4746,-0.0703 0.70313,-0.07031 0.4453,9e-6 0.8203,0.07325 1.125,0.219726 0.30467,0.140634 0.54784,0.351571 0.72949,0.632813 0.18749,0.281258 0.31932,0.62989 0.39551,1.045898 0.082,0.416022 0.12303,0.896491 0.12304,1.441406 l 0,5.800782 -1.62597,0 0,-4.833985 c -10e-6,-0.568354 -0.0205,-1.031244 -0.0615,-1.388672 -0.041,-0.357415 -0.11134,-0.638665 -0.21093,-0.84375 -0.0938,-0.205071 -0.22267,-0.345695 -0.38672,-0.421875 -0.16408,-0.07616 -0.36915,-0.11425 -0.61524,-0.114258 -0.2168,8e-6 -0.43067,0.04395 -0.6416,0.131836 -0.21095,0.08204 -0.41602,0.202156 -0.61523,0.360352 -0.19337,0.152351 -0.37501,0.339851 -0.54492,0.5625 -0.16408,0.222663 -0.31056,0.471686 -0.43946,0.74707 l 0,5.800782" style="fill:#008000;font-family:Andika Basic;-inkscape-font-specification:Andika Basic" id="path3775"/>
      <path d="m 393.92969,45.013228 c 0,0.50977 0.0615,0.9668 0.18457,1.371094 0.12304,0.404299 0.29589,0.747072 0.51855,1.02832 0.22851,0.275392 0.49805,0.48633 0.8086,0.632813 0.31054,0.146485 0.65624,0.219727 1.03711,0.219726 0.35155,1e-6 0.68261,-0.07324 0.99316,-0.219726 0.31054,-0.146483 0.58007,-0.357421 0.80859,-0.632813 0.23437,-0.281248 0.41601,-0.624021 0.54493,-1.02832 0.13475,-0.404294 0.20214,-0.861324 0.20214,-1.371094 0,-0.51562 -0.0615,-0.975581 -0.18457,-1.379883 -0.12305,-0.41015 -0.29883,-0.755853 -0.52734,-1.037109 -0.22266,-0.287102 -0.49219,-0.503899 -0.80859,-0.650391 -0.31056,-0.152336 -0.65333,-0.228508 -1.02832,-0.228515 -0.35743,7e-6 -0.69141,0.07618 -1.00196,0.228515 -0.31055,0.146492 -0.58008,0.363289 -0.80859,0.650391 -0.22852,0.281256 -0.41016,0.626959 -0.54492,1.037109 -0.12891,0.404302 -0.19336,0.864263 -0.19336,1.379883 m -1.62598,0 c 0,-0.755854 0.11426,-1.423822 0.34277,-2.003906 0.22852,-0.585931 0.53614,-1.078118 0.92286,-1.476563 0.38671,-0.404288 0.83788,-0.708976 1.35351,-0.914062 0.51562,-0.205069 1.06347,-0.307608 1.64356,-0.307617 0.60351,9e-6 1.15429,0.102548 1.65234,0.307617 0.5039,0.205086 0.93456,0.509774 1.29199,0.914062 0.36328,0.398445 0.64452,0.890632 0.84375,1.476563 0.19921,0.580084 0.29882,1.248052 0.29883,2.003906 -1e-5,0.755863 -0.11427,1.423831 -0.34277,2.003906 -0.22853,0.58008 -0.53614,1.066408 -0.92285,1.458985 -0.38673,0.392578 -0.8379,0.691406 -1.35352,0.896484 -0.51563,0.199219 -1.06348,0.298828 -1.64356,0.298828 -0.60351,0 -1.15723,-0.09961 -1.66113,-0.298828 -0.49805,-0.205078 -0.92871,-0.503906 -1.29199,-0.896484 -0.35742,-0.392577 -0.63574,-0.878905 -0.83496,-1.458985 -0.19922,-0.580075 -0.29883,-1.248043 -0.29883,-2.003906" style="fill:#008000;font-family:Andika Basic;-inkscape-font-specification:Andika Basic" id="path3777"/>
      <path d="m 407.80762,40.31108 c 0.93749,9e-6 1.65526,0.307626 2.15332,0.922851 0.49804,0.609383 0.74706,1.517585 0.74707,2.724609 l 0,5.493165 -1.62598,0 0,-4.833985 c -10e-6,-0.550776 -0.0381,-1.004877 -0.11426,-1.362305 -0.0703,-0.357415 -0.17871,-0.638665 -0.32519,-0.84375 -0.14063,-0.21093 -0.32227,-0.357414 -0.54492,-0.439453 -0.21681,-0.08202 -0.47462,-0.123039 -0.77344,-0.123047 -0.31641,8e-6 -0.62696,0.07618 -0.93164,0.228516 -0.29883,0.146492 -0.57422,0.339851 -0.82617,0.580078 -0.25196,0.234382 -0.47462,0.500983 -0.66797,0.799805 -0.19337,0.298834 -0.33692,0.597662 -0.43067,0.896484 l 0,5.097657 -1.62597,0 0,-5.405274 c 0,-0.867181 -0.0498,-1.599602 -0.14942,-2.197266 -0.0937,-0.603507 -0.19043,-1.057608 -0.29004,-1.362304 l 1.58203,0 c 0.0352,0.09376 0.0703,0.216805 0.10547,0.36914 0.0352,0.146493 0.0674,0.301767 0.0967,0.465821 0.0293,0.16407 0.0557,0.325203 0.0791,0.483398 l 0.0703,0.395508 c 0.55663,-0.667961 1.11913,-1.148429 1.6875,-1.441406 0.56835,-0.298819 1.16308,-0.448233 1.78418,-0.448242" style="fill:#008000;font-family:Andika Basic;-inkscape-font-specification:Andika Basic" id="path3779"/>
      <path d="m 416.94824,40.31108 c 0.48047,9e-6 0.90527,0.0586 1.27442,0.175781 0.36913,0.111337 0.68847,0.26954 0.958,0.474609 0.26953,0.199227 0.49511,0.433602 0.67676,0.703125 0.18163,0.269539 0.32519,0.559578 0.43067,0.870117 0.11132,0.310554 0.19042,0.635749 0.2373,0.975586 0.0469,0.33399 0.0703,0.665045 0.0703,0.993164 l 0,0.342774 c -10e-6,0.146489 -0.003,0.260746 -0.009,0.342773 l -6.23144,0 c 0.0176,0.515629 0.0967,0.963871 0.2373,1.344727 0.14648,0.380862 0.34277,0.697268 0.58887,0.949219 0.25195,0.246095 0.54492,0.430665 0.87891,0.55371 0.33984,0.123049 0.70898,0.184572 1.10742,0.184571 0.56835,1e-6 1.12499,-0.06445 1.66992,-0.19336 0.54492,-0.128904 1.08691,-0.35742 1.62598,-0.685546 l 0.17578,1.450195 c -0.31056,0.158203 -0.61524,0.292969 -0.91406,0.404297 -0.29884,0.111328 -0.59767,0.202148 -0.89649,0.272461 -0.29883,0.07031 -0.60352,0.120117 -0.91406,0.149414 -0.30469,0.03516 -0.62696,0.05273 -0.9668,0.05273 -0.5625,0 -1.09863,-0.09668 -1.6084,-0.290039 -0.50976,-0.199218 -0.95801,-0.489257 -1.34472,-0.870117 -0.38672,-0.386718 -0.69434,-0.864256 -0.92285,-1.432617 -0.22852,-0.568357 -0.34278,-1.227536 -0.34278,-1.977539 0,-0.726558 0.0967,-1.382807 0.29004,-1.96875 0.19922,-0.59179 0.48047,-1.095696 0.84375,-1.511719 0.36328,-0.421867 0.80566,-0.744132 1.32715,-0.966797 0.52148,-0.228507 1.10742,-0.342764 1.75781,-0.342773 m -0.13183,1.318359 c -0.64454,8e-6 -1.17188,0.190437 -1.58204,0.571289 -0.41015,0.375007 -0.67969,0.960944 -0.80859,1.757812 l 4.58789,0 c -10e-6,-0.374994 -0.0557,-0.706048 -0.16699,-0.993164 -0.10548,-0.292962 -0.25782,-0.539055 -0.45703,-0.738281 -0.19337,-0.199211 -0.42481,-0.348625 -0.69434,-0.448242 -0.26953,-0.0996 -0.5625,-0.149406 -0.8789,-0.149414" style="fill:#008000;font-family:Andika Basic;-inkscape-font-specification:Andika Basic" id="path3781"/>
      <path d="m 427.28418,49.451705 c -0.30469,0.843749 -0.60352,1.532225 -0.89648,2.065429 -0.29298,0.533201 -0.59181,0.952146 -0.89649,1.256836 -0.29883,0.310543 -0.61231,0.521481 -0.94043,0.632813 -0.32227,0.117183 -0.6709,0.175777 -1.0459,0.175781 -0.4043,-4e-6 -0.78515,-0.06446 -1.14258,-0.193359 -0.35156,-0.128911 -0.68847,-0.313481 -1.01074,-0.553711 l 0.52735,-1.40625 c 0.0937,0.07617 0.20214,0.152341 0.32519,0.228515 0.12891,0.08203 0.26367,0.152342 0.4043,0.210938 0.14648,0.06445 0.2959,0.117185 0.44824,0.158203 0.15234,0.04101 0.30176,0.06152 0.44824,0.06152 0.17578,-2e-6 0.34863,-0.03223 0.51856,-0.09668 0.16992,-0.0586 0.33984,-0.175784 0.50976,-0.351563 0.17578,-0.169924 0.35449,-0.413088 0.53614,-0.729492 0.18163,-0.310548 0.37499,-0.720704 0.58007,-1.230469 l -2.45214,-6.073242 c -0.16407,-0.398431 -0.3545,-0.846673 -0.57129,-1.344727 -0.2168,-0.498039 -0.49512,-1.089835 -0.83496,-1.77539 l 1.75781,0 2.83887,7.180664 c 0.11132,-0.316404 0.23144,-0.659177 0.36035,-1.02832 0.13476,-0.374997 0.27245,-0.758786 0.41308,-1.151368 0.14062,-0.398433 0.28125,-0.79687 0.42188,-1.195312 0.14062,-0.404291 0.27538,-0.79101 0.40429,-1.160156 0.30469,-0.867181 0.6123,-1.749016 0.92286,-2.645508 l 1.75781,0 c -0.15235,0.339852 -0.29005,0.656258 -0.41309,0.949219 -0.12305,0.287117 -0.23731,0.559577 -0.34277,0.817382 -0.10548,0.25196 -0.20216,0.489265 -0.29004,0.711914 -0.082,0.222663 -0.15821,0.43653 -0.22852,0.641602 l -2.10937,5.844727" style="fill:#008000;font-family:Andika Basic;-inkscape-font-specification:Andika Basic" id="path3783"/>
      <path d="m 435.37012,40.31108 c 0.3164,9e-6 0.6123,0.02052 0.88769,0.06152 0.28125,0.04103 0.53613,0.09669 0.76465,0.166992 0.23437,0.06446 0.44824,0.140634 0.6416,0.228516 0.19335,0.08204 0.36621,0.164071 0.51856,0.246094 L 437.875,42.55229 c -0.14649,-0.08788 -0.31348,-0.178703 -0.50098,-0.27246 -0.1875,-0.0996 -0.39258,-0.190423 -0.61523,-0.272461 -0.2168,-0.08202 -0.45118,-0.149407 -0.70313,-0.202149 -0.24609,-0.05859 -0.50391,-0.08788 -0.77343,-0.08789 -0.32227,7e-6 -0.59473,0.03516 -0.81739,0.105468 -0.2168,0.07032 -0.39258,0.161141 -0.52734,0.272461 -0.12891,0.105476 -0.22266,0.228523 -0.28125,0.369141 -0.0586,0.134772 -0.0879,0.266608 -0.0879,0.395508 0,0.15235 0.0234,0.287115 0.0703,0.404297 0.0469,0.117193 0.14355,0.225591 0.29004,0.325195 0.15234,0.09962 0.36621,0.196295 0.6416,0.290039 0.27539,0.09376 0.64453,0.193365 1.10742,0.298828 0.39844,0.0879 0.77344,0.202154 1.125,0.342773 0.35156,0.134771 0.65918,0.307622 0.92286,0.518555 0.26366,0.210942 0.47167,0.465824 0.62402,0.764649 0.15234,0.292972 0.22851,0.644534 0.22851,1.054687 0,0.39844 -0.0879,0.76758 -0.26367,1.107422 -0.17579,0.339845 -0.41602,0.638673 -0.7207,0.896484 -0.30469,0.251954 -0.66212,0.448243 -1.07227,0.588868 -0.41016,0.146484 -0.85254,0.219726 -1.32714,0.219726 -0.35743,0 -0.70313,-0.02637 -1.03711,-0.0791 -0.32813,-0.05273 -0.63868,-0.125977 -0.93164,-0.219727 -0.28712,-0.09375 -0.55079,-0.202148 -0.79102,-0.325195 -0.24024,-0.123047 -0.44824,-0.251953 -0.62402,-0.386719 L 432.25,47.078658 c 0.19922,0.175783 0.42187,0.336916 0.66797,0.483398 0.25195,0.146486 0.50976,0.272463 0.77344,0.37793 0.26367,0.10547 0.52734,0.187501 0.79101,0.246094 0.26953,0.05274 0.52148,0.0791 0.75586,0.0791 0.25781,10e-7 0.49218,-0.03222 0.70313,-0.09668 0.21679,-0.07031 0.40136,-0.158201 0.55371,-0.263671 0.15819,-0.111327 0.28124,-0.237303 0.36914,-0.37793 0.0879,-0.146482 0.13183,-0.295896 0.13183,-0.448242 0,-0.16406 -0.0352,-0.316404 -0.10547,-0.457032 -0.0645,-0.146481 -0.1875,-0.284176 -0.36914,-0.413086 -0.17578,-0.134762 -0.42188,-0.263668 -0.73828,-0.386718 -0.31055,-0.123043 -0.71192,-0.24609 -1.2041,-0.369141 -0.5332,-0.128902 -0.96973,-0.281246 -1.30957,-0.457031 -0.33399,-0.175777 -0.59766,-0.369136 -0.79101,-0.580078 -0.18751,-0.210933 -0.31641,-0.439448 -0.38672,-0.685547 -0.0703,-0.246088 -0.10547,-0.50683 -0.10547,-0.782227 0,-0.134759 0.0205,-0.292962 0.0615,-0.474609 0.0469,-0.181634 0.12012,-0.369133 0.21973,-0.5625 0.10547,-0.199211 0.24023,-0.39257 0.40429,-0.580078 0.16992,-0.193351 0.38086,-0.363273 0.63282,-0.509766 0.25195,-0.152335 0.54785,-0.275382 0.88769,-0.36914 0.33984,-0.09374 0.73242,-0.140616 1.17774,-0.140625" style="fill:#008000;font-family:Andika Basic;-inkscape-font-specification:Andika Basic" id="path3785"/>
      <path d="m 450.4873,48.493697 c -1e-5,-0.164062 0.0293,-0.316405 0.0879,-0.457032 0.0644,-0.146482 0.1494,-0.272459 0.25488,-0.377929 0.10546,-0.105467 0.2285,-0.187498 0.36914,-0.246094 0.14647,-0.06445 0.30174,-0.09668 0.46582,-0.09668 0.16405,2e-6 0.31639,0.03223 0.45703,0.09668 0.14647,0.0586 0.27245,0.140627 0.37793,0.246094 0.10546,0.10547 0.18749,0.231447 0.24609,0.377929 0.0644,0.140627 0.0967,0.29297 0.0967,0.457032 -10e-6,0.164063 -0.0322,0.319336 -0.0967,0.46582 -0.0586,0.140625 -0.14063,0.263672 -0.24609,0.369141 -0.10548,0.105468 -0.23146,0.1875 -0.37793,0.246093 -0.14064,0.06445 -0.29298,0.09668 -0.45703,0.09668 -0.16408,0 -0.31935,-0.03223 -0.46582,-0.09668 -0.14064,-0.05859 -0.26368,-0.140625 -0.36914,-0.246093 -0.10548,-0.105469 -0.19044,-0.228516 -0.25488,-0.369141 -0.0586,-0.146484 -0.0879,-0.301757 -0.0879,-0.46582 m -4.77246,0 c 0,-0.164062 0.0293,-0.316405 0.0879,-0.457032 0.0645,-0.146482 0.14941,-0.272459 0.25489,-0.377929 0.10546,-0.105467 0.22851,-0.187498 0.36914,-0.246094 0.14647,-0.06445 0.30175,-0.09668 0.46582,-0.09668 0.16405,2e-6 0.3164,0.03223 0.45703,0.09668 0.14648,0.0586 0.27245,0.140627 0.37793,0.246094 0.10546,0.10547 0.18749,0.231447 0.24609,0.377929 0.0644,0.140627 0.0967,0.29297 0.0967,0.457032 -10e-6,0.164063 -0.0322,0.319336 -0.0967,0.46582 -0.0586,0.140625 -0.14063,0.263672 -0.24609,0.369141 -0.10548,0.105468 -0.23145,0.1875 -0.37793,0.246093 -0.14063,0.06445 -0.29298,0.09668 -0.45703,0.09668 -0.16407,0 -0.31935,-0.03223 -0.46582,-0.09668 -0.14063,-0.05859 -0.26368,-0.140625 -0.36914,-0.246093 -0.10548,-0.105469 -0.19044,-0.228516 -0.25489,-0.369141 -0.0586,-0.146484 -0.0879,-0.301757 -0.0879,-0.46582 m -4.77246,0 c 0,-0.164062 0.0293,-0.316405 0.0879,-0.457032 0.0645,-0.146482 0.14942,-0.272459 0.25489,-0.377929 0.10546,-0.105467 0.22851,-0.187498 0.36914,-0.246094 0.14648,-0.06445 0.30175,-0.09668 0.46582,-0.09668 0.16406,2e-6 0.3164,0.03223 0.45703,0.09668 0.14648,0.0586 0.27246,0.140627 0.37793,0.246094 0.10546,0.10547 0.18749,0.231447 0.24609,0.377929 0.0645,0.140627 0.0967,0.29297 0.0967,0.457032 0,0.164063 -0.0322,0.319336 -0.0967,0.46582 -0.0586,0.140625 -0.14063,0.263672 -0.24609,0.369141 -0.10547,0.105468 -0.23145,0.1875 -0.37793,0.246093 -0.14063,0.06445 -0.29297,0.09668 -0.45703,0.09668 -0.16407,0 -0.31934,-0.03223 -0.46582,-0.09668 -0.14063,-0.05859 -0.26368,-0.140625 -0.36914,-0.246093 -0.10547,-0.105469 -0.19044,-0.228516 -0.25489,-0.369141 -0.0586,-0.146484 -0.0879,-0.301757 -0.0879,-0.46582" style="fill:#008000;font-family:Andika Basic;-inkscape-font-specification:Andika Basic" id="path3787"/>
    </g>
    <g transform="matrix(1.0989785,0,0,1.0991871,-6.4588698,-12.423312)" style="font-size:40px;font-style:normal;font-weight:normal;fill:#000000;fill-opacity:1;stroke:#000000;stroke-opacity:1;font-family:Andika Basic;-inkscape-font-specification:Andika Basic" id="flowRoot3676">
      <path d="m 46.140239,38.349078 c -3.1e-5,2.953136 -0.442996,5.594538 -1.328905,7.924215 -0.869564,2.329698 -2.034407,4.306649 -3.494535,5.930858 -1.443774,1.607813 -3.092596,2.838286 -4.946478,3.691405 -1.853927,0.853121 -3.765256,1.279689 -5.733996,1.27969 -1.985161,-1e-6 -3.888288,-0.401953 -5.709361,-1.205858 -1.821104,-0.803903 -3.428922,-1.985161 -4.823449,-3.54375 -1.39453,-1.558579 -2.51015,-3.46991 -3.34688,-5.733986 -0.836718,-2.280454 -1.255075,-4.897248 -1.255072,-7.850384 -3e-6,-1.96874 0.196877,-3.798026 0.590619,-5.487901 0.410162,-1.689811 0.967972,-3.232 1.67345,-4.62656 0.721865,-1.394502 1.574995,-2.633174 2.559371,-3.716013 0.984362,-1.082778 2.050766,-1.993325 3.199223,-2.731642 1.164826,-0.738251 2.387087,-1.296061 3.666789,-1.67344 1.29608,-0.393714 2.608579,-0.590585 3.9375,-0.59062 1.952335,3.5e-5 3.830837,0.401987 5.635546,1.205857 1.821071,0.803938 3.420687,1.985187 4.798833,3.54375 1.394504,1.558624 2.501923,3.478147 3.322262,5.758595 0.836694,2.264083 1.255052,4.872675 1.255083,7.825784 m -4.798823,0.615238 c -3.2e-5,-2.26405 -0.254334,-4.298428 -0.762902,-6.103136 -0.492206,-1.821065 -1.19767,-3.363252 -2.116405,-4.626562 -0.918763,-1.263248 -2.02619,-2.231222 -3.322263,-2.903906 -1.279709,-0.672625 -2.698849,-1.008947 -4.257426,-1.008988 -1.55861,4.1e-5 -2.985945,0.328161 -4.282025,0.98438 -1.296107,0.639875 -2.411727,1.566826 -3.34688,2.780858 -0.935155,1.197691 -1.665246,2.657838 -2.190238,4.380475 -0.508602,1.70627 -0.762889,3.625804 -0.762882,5.758595 -7e-6,2.247669 0.246088,4.273845 0.738285,6.078511 0.508586,1.804691 1.222254,3.34688 2.141002,4.62656 0.935155,1.263292 2.050774,2.239458 3.34688,2.928523 1.296082,0.67265 2.748033,1.008981 4.355858,1.008977 1.509361,4e-6 2.903885,-0.311711 4.183595,-0.935145 1.279667,-0.63985 2.378881,-1.550396 3.297664,-2.731642 0.93513,-1.197657 1.665206,-2.657801 2.190237,-4.380475 0.524968,-1.722642 0.787468,-3.674984 0.7875,-5.857025" style="fill:#008000;stroke:#008000;stroke-width:1.05000103;stroke-opacity:1" id="path2847"/>
      <path d="m 58.075786,45.854936 c -8e-6,2.444534 0.01642,4.601958 0.04927,6.472262 0.03284,1.853908 0.139445,3.264856 0.319921,4.23281 l -5.414061,0 c 0.180462,-0.984359 0.287104,-2.4035 0.319918,-4.257417 0.03285,-1.870313 0.04927,-4.019526 0.04927,-6.447655 l 0,-17.42344 c -4e-6,-1.148411 -0.01643,-2.214815 -0.04927,-3.199224 -0.01643,-1.000744 -0.04928,-1.894886 -0.09838,-2.682418 -0.04928,-0.787466 -0.123057,-1.427311 -0.22149,-1.919534 1.033589,-0.03281 2.124603,-0.07384 3.273047,-0.123047 0.984365,-0.03282 2.09179,-0.05745 3.322265,-0.07384 1.246863,-0.03281 2.534754,-0.04924 3.863675,-0.04927 1.985136,3.8e-5 3.781622,0.229725 5.389453,0.689065 1.60779,0.443003 2.977714,1.123861 4.109762,2.042577 1.132006,0.902376 2.001542,2.03441 2.608595,3.396095 0.623409,1.345337 0.935133,2.912139 0.93516,4.700392 -2.7e-5,1.804711 -0.303543,3.428929 -0.910546,4.872655 -0.590658,1.443772 -1.451979,2.674232 -2.583991,3.691405 -1.115644,1.0008 -2.485568,1.771895 -4.109764,2.313285 -1.607828,0.541419 -3.420718,0.812125 -5.438669,0.812111 -0.90236,1.4e-5 -1.829313,-0.01641 -2.780862,-0.04927 -0.951574,-0.04926 -1.829308,-0.114825 -2.633206,-0.19687 l 0,3.199221 m 0,-7.013676 c 0.787491,0.09842 1.591396,0.164076 2.411721,0.19687 0.820301,0.03287 1.698034,0.04929 2.633206,0.04927 1.722639,2e-5 3.141776,-0.196852 4.257421,-0.590629 1.132012,-0.393722 2.026154,-0.926934 2.68242,-1.5996 0.672637,-0.689048 1.14021,-1.476547 1.402733,-2.362503 0.262477,-0.902327 0.393734,-1.845684 0.393757,-2.830083 -2.3e-5,-0.984345 -0.147686,-1.919503 -0.442975,-2.805466 -0.278925,-0.902317 -0.754709,-1.689817 -1.42734,-2.362501 -0.656274,-0.672627 -1.534008,-1.205829 -2.633206,-1.599609 -1.099232,-0.410125 -2.469158,-0.615203 -4.109763,-0.615238 -0.574234,3.5e-5 -1.091032,0.0078 -1.550393,0.02464 -0.459387,3.1e-5 -0.88595,0.0078 -1.279688,0.02464 -0.393761,3.1e-5 -0.779309,0.0078 -1.156641,0.02464 -0.377354,0.01646 -0.771101,0.03288 -1.181252,0.04927 l 0,14.396489" style="fill:#008000;stroke:#008000;stroke-width:1.05000103;stroke-opacity:1" id="path2849"/>
      <path d="m 101.53596,35.765091 0,3.9375 -14.027365,0 0,12.79687 6.49688,0 c 2.444516,4e-6 4.495291,-0.01642 6.152355,-0.04927 1.65701,-0.03285 2.97766,-0.139448 3.96216,-0.319927 l 0,4.429689 -21.656302,0 c 0.180451,-0.984375 0.287093,-2.403503 0.319907,-4.257422 0.03285,-1.870308 0.04927,-4.019521 0.04927,-6.44765 l 0,-14.519535 c -5e-6,-2.428102 -0.01643,-4.569113 -0.04927,-6.423047 -0.03285,-1.870283 -0.139456,-3.297626 -0.319907,-4.282039 l 20.917982,0 0,4.060547 -15.873075,0 0,11.074219 14.027365,0" style="fill:#008000;stroke:#008000;stroke-width:1.05000103;stroke-opacity:1" id="path2851"/>
      <path d="m 115.44025,28.210009 0,28.349999 -4.42975,0 c 0.18047,-0.984359 0.28722,-2.4035 0.31999,-4.257417 0.0332,-1.870313 0.0489,-4.019526 0.0489,-6.447655 l 0,-14.519535 c 0,-2.428099 -0.0156,-4.569113 -0.0489,-6.423047 -0.0333,-1.870278 -0.13952,-3.297621 -0.31999,-4.282034 l 4.42975,0 19.56441,28.473047 0,-28.473047 4.42974,0 c -0.0821,0.492223 -0.14765,1.099258 -0.19689,1.821094 -0.0489,0.721912 -0.09,1.542221 -0.123,2.46094 -0.0157,0.902375 -0.0333,1.894951 -0.0489,2.977737 -3e-5,1.082837 -3e-5,2.231276 0,3.44531 l 0,25.224607 -4.06059,0 -19.56441,-28.349999" style="fill:#008000;stroke:#008000;stroke-width:1.05000103;stroke-opacity:1" id="path2853"/>
      <path d="m 198.81043,45.179356 0,-16.931249 c 0,-1.148401 -0.0158,-2.214813 -0.0491,-3.199218 -0.0158,-1.00075 -0.0491,-1.894884 -0.0982,-2.682421 -0.0491,-0.787458 -0.12311,-1.427302 -0.2215,-1.919533 0.34456,-0.01638 0.77935,-0.03275 1.30425,-0.04927 0.54144,-0.03276 1.13202,-0.05733 1.77195,-0.07383 0.65623,-0.01643 1.33703,-0.03277 2.04256,-0.04927 0.72182,-0.01641 1.43558,-0.02452 2.14095,-0.02455 0.72198,-0.01642 1.41922,-0.02452 2.09182,-0.02456 0.67272,-0.01644 1.28792,-0.02452 1.84579,-0.02456 0.65624,3.8e-5 1.40261,0.04107 2.23937,0.123043 0.85312,0.06562 1.73911,0.205114 2.65788,0.418365 0.93507,0.213309 1.88664,0.516824 2.85469,0.910544 0.98436,0.377373 1.9277,0.877768 2.83,1.501172 0.91875,0.623465 1.78007,1.378157 2.584,2.264065 0.80388,0.88596 1.50115,1.93596 2.09176,3.149996 0.60711,1.214089 1.08288,2.616818 1.42736,4.208205 0.36093,1.575019 0.54141,3.371501 0.54143,5.389449 -2e-5,2.444547 -0.27068,4.601962 -0.81206,6.472262 -0.54148,1.853918 -1.27155,3.461731 -2.19023,4.823437 -0.90245,1.361726 -1.9524,2.501966 -3.14998,3.420698 -1.19775,0.918763 -2.45277,1.657042 -3.76524,2.214849 -1.31253,0.557827 -2.64147,0.951568 -3.98673,1.181253 -1.34532,0.229686 -2.61691,0.344529 -3.81452,0.344529 -0.39372,0 -0.85312,-0.0081 -1.37806,-0.02457 -0.50859,0 -1.05001,-0.0081 -1.6243,-0.02457 -0.57418,0 -1.16484,-0.0081 -1.77177,-0.02457 -0.60717,-0.01638 -1.19775,-0.03275 -1.77197,-0.04923 -1.34529,-0.03275 -2.7316,-0.0738 -4.15895,-0.123051 0.0982,-0.492187 0.16405,-1.123822 0.19692,-1.894907 0.0491,-0.771094 0.0824,-1.640624 0.0982,-2.60861 0.0333,-0.967965 0.0491,-2.017958 0.0491,-3.149998 0.0158,-1.148428 0.0248,-2.329679 0.0248,-3.543749 m 4.67577,7.136711 c 0.57415,0.04923 1.32071,0.106654 2.2395,0.172274 0.93506,0.04923 1.99325,0.0738 3.17458,0.0738 1.09922,0 2.18196,-0.106644 3.24841,-0.319932 1.08274,-0.213268 2.10812,-0.549598 3.0762,-1.008979 0.98433,-0.475769 1.89487,-1.082798 2.73159,-1.821088 0.83667,-0.738279 1.55858,-1.616008 2.16568,-2.63321 0.60693,-1.03358 1.0827,-2.22304 1.42734,-3.568363 0.34446,-1.345295 0.51679,-2.862868 0.51682,-4.552729 -3e-5,-2.75623 -0.35287,-5.061304 -1.05822,-6.91523 -0.68914,-1.853882 -1.62429,-3.338647 -2.80553,-4.454303 -1.1812,-1.131996 -2.56753,-1.935899 -4.15899,-2.411713 -1.57503,-0.492155 -3.24843,-0.73825 -5.0203,-0.738281 -0.41009,3.1e-5 -0.86957,0.0079 -1.37815,0.02456 -0.50858,3e-5 -1.0254,0.0079 -1.5503,0.02455 -0.50867,0.01652 -0.99259,0.03283 -1.45206,0.04927 -0.45931,3.2e-5 -0.84489,0.0079 -1.15657,0.02455 l 0,28.054684" style="font-size:48px;stroke-width:1.04999983" id="path2857"/>
      <path d="m 260.11238,52.931321 c -0.72188,0.672659 -1.5668,1.263281 -2.53482,1.771864 -0.96792,0.492197 -1.98515,0.910554 -3.05149,1.255083 -1.05005,0.344528 -2.11641,0.59883 -3.19929,0.762885 -1.08276,0.180474 -2.09178,0.27071 -3.02692,0.27071 -2.49381,0 -4.73322,-0.418367 -6.71831,-1.255092 -1.98524,-0.853102 -3.6751,-2.058962 -5.0696,-3.617569 -1.39446,-1.574994 -2.46912,-3.47812 -3.22375,-5.709372 -0.73831,-2.231245 -1.10747,-4.733194 -1.10747,-7.505862 0,-3.166383 0.45936,-5.939041 1.37806,-8.317967 0.91878,-2.395287 2.14111,-4.388644 3.66687,-5.980074 1.54221,-1.591378 3.31398,-2.780832 5.3156,-3.56836 2.0016,-0.803869 4.08519,-1.205822 6.25079,-1.205859 0.8859,3.7e-5 1.7883,0.05742 2.70702,0.172263 0.91874,0.114877 1.83745,0.303552 2.75625,0.566018 0.93514,0.262536 1.86207,0.615267 2.78087,1.058198 0.91875,0.443002 1.82103,0.992617 2.70704,1.648826 l -1.47657,4.429689 c -0.77114,-0.689031 -1.55862,-1.271455 -2.3625,-1.747267 -0.80393,-0.475742 -1.60783,-0.853088 -2.41171,-1.132028 -0.80393,-0.295278 -1.60783,-0.500357 -2.41172,-0.615238 -0.78755,-0.131217 -1.55041,-0.196842 -2.28868,-0.196873 -1.72264,3.1e-5 -3.30587,0.303547 -4.74962,0.910546 -1.44374,0.590663 -2.69063,1.484797 -3.74057,2.682422 -1.03366,1.197688 -1.84581,2.690651 -2.43639,4.478906 -0.59057,1.771899 -0.88588,3.839082 -0.88588,6.201566 0,1.903136 0.25431,3.724229 0.76289,5.463279 0.50856,1.739068 1.25501,3.273055 2.23941,4.60195 0.98442,1.312514 2.19029,2.362517 3.61762,3.149999 1.44369,0.787512 3.09253,1.181253 4.94639,1.181253 0.93524,0 1.87857,-0.106644 2.83016,-0.319922 0.96792,-0.213278 1.91129,-0.516793 2.83004,-0.910544 0.91872,-0.410148 1.79646,-0.894136 2.63322,-1.451952 0.83669,-0.557807 1.59962,-1.181244 2.2887,-1.870321 l 0.98436,4.798843" style="font-size:48px;stroke-width:1.04999983" id="path2859"/>
      <path style="fill:#000000;stroke:#000000;stroke-width:0.69869918px;stroke-linecap:butt;stroke-linejoin:miter;stroke-opacity:1" d="m 171.26808,53.166436 0,0 c 0.76466,0.05586 1.08264,0.04762 1.91924,0 l 0,4.272213 c -0.73565,0.07704 -1.22035,0.07373 -1.91924,0 l 0,-4.272213 0,0 z" id="path4363" sodipodi:nodetypes="ccccccc"/>
      <rect style="fill:#008000;fill-opacity:1;stroke:none" id="rect2825-4" width="3.1986039" height="3.2414503" x="-170.30849" y="37.494476" transform="scale(-1,1)"/>
      <rect style="fill:#008000;fill-opacity:1;stroke:none" id="rect2825-6-4" width="3.1986039" height="3.2414503" x="-167.10986" y="36.197914" transform="scale(-1,1)"/>
      <rect style="fill:#008000;fill-opacity:1;stroke:none" id="rect2825-9-2" width="3.1986039" height="3.2414503" x="-170.29935" y="32.956459" transform="scale(-1,1)"/>
      <rect style="fill:#008000;fill-opacity:1;stroke:none" id="rect2825-61-4" width="3.1986039" height="3.2414503" x="-167.10986" y="29.714998" transform="scale(-1,1)"/>
      <path style="fill:#008000;fill-opacity:1;stroke:none" d="m 170.30855,40.735915 -6.39724,0.01888 0,5.181585 0,5.181584 0,5.181594 6.37911,5.181615 0.004,-5.186323 0.004,-5.186307 0.009,-10.372621 -2e-5,0 z" id="path2848-4" sodipodi:nodetypes="cccccccccc"/>
      <rect style="fill:#008000;fill-opacity:1;stroke:none" id="rect2825-61-4-2" width="3.1986039" height="3.2414503" x="-173.82675" y="27.121832" transform="scale(-1,1)"/>
      <g transform="matrix(1.1910474,0,0,0.9178875,151.33357,31.638275)" style="font-size:56px;font-style:normal;font-weight:normal;fill:#000000;fill-opacity:1;stroke:none;font-family:Bitstream Vera Sans" id="flowRoot3696">
        <path d="M 10,26.862334 C 8.1770723,26.151398 6.6640529,25.148795 5.4609375,23.854522 4.2578053,22.560256 3.3554625,21.010778 2.7539063,19.206084 2.1705678,17.383177 1.8789015,15.359742 1.8789062,13.135772 l 0,-13.94531272 C 1.8789015,-3.5074267 1.8515577,-5.8863305 1.796875,-7.9462595 1.760412,-10.024347 1.6117737,-11.59582 1.4294866,-12.689609 l 6.5433736,0 -0.8986415,24.594912 c -9.9e-6,1.786472 0.1549378,3.399752 0.4648438,4.839844 0.3098851,1.421884 0.8294158,2.643237 1.5585938,3.664062 0.7291539,1.00261 0.9828017,1.43168 0.9150007,1.287213" style="font-variant:normal;font-stretch:normal;font-family:Andika Basic;-inkscape-font-specification:Andika Basic" id="path3708" sodipodi:nodetypes="cscccccccscc"/>
      </g>
      <g transform="matrix(-1.1910474,0,0,0.9178875,193.12182,31.638275)" style="font-size:56px;font-style:normal;font-weight:normal;fill:#000000;fill-opacity:1;stroke:none;font-family:Bitstream Vera Sans" id="flowRoot3696-8">
        <path d="M 10,26.862334 C 8.1770723,26.151398 6.6640529,25.148795 5.4609375,23.854522 4.2578053,22.560256 3.3554625,21.010778 2.7539063,19.206084 2.1705678,17.383177 1.8789015,15.359742 1.8789062,13.135772 l 0,-13.94531272 C 1.8789015,-3.5074267 1.8515577,-5.8863305 1.796875,-7.9462595 1.760412,-10.024347 1.6117737,-11.59582 1.4294866,-12.689609 l 6.5433736,0 -0.8986415,24.594912 c -9.9e-6,1.786472 0.1549378,3.399752 0.4648438,4.839844 0.3098851,1.421884 0.8294158,2.643237 1.5585938,3.664062 0.7291539,1.00261 0.9828017,1.43168 0.9150007,1.287213" style="font-variant:normal;font-stretch:normal;font-family:Andika Basic;-inkscape-font-specification:Andika Basic" id="path3708-0" sodipodi:nodetypes="cscccccccscc"/>
      </g>
      <rect style="fill:#008000;fill-opacity:1;stroke:none" id="rect2825-4-5" width="3.1986039" height="3.2414503" x="174.1467" y="37.494476"/>
      <rect style="fill:#008000;fill-opacity:1;stroke:none" id="rect2825-6-4-5" width="3.1986039" height="3.2414503" x="177.34534" y="36.197914"/>
      <rect style="fill:#008000;fill-opacity:1;stroke:none" id="rect2825-9-2-4" width="3.1986039" height="3.2414503" x="174.15567" y="32.956459"/>
      <rect style="fill:#008000;fill-opacity:1;stroke:none" id="rect2825-61-4-3" width="3.1986039" height="3.2414503" x="177.34534" y="29.714998"/>
      <path style="fill:#008000;fill-opacity:1;stroke:none" d="m 174.14685,40.735915 6.39723,0.01888 0,5.181585 0,5.181584 0,5.181594 -6.3791,5.181615 -0.004,-5.186323 -0.004,-5.186307 -0.009,-10.372621 3e-5,0 z" id="path2848-4-6" sodipodi:nodetypes="cccccccccc"/>
    </g>
  </g>
</svg>