<?xml version="1.0" encoding="UTF-8" standalone="no"?>
<!-- Created with Inkscape (http://www.inkscape.org/) -->
<svg xmlns:dc="http://purl.org/dc/elements/1.1/" xmlns:cc="http://creativecommons.org/ns#" xmlns:rdf="http://www.w3.org/1999/02/22-rdf-syntax-ns#" xmlns:svg="http://www.w3.org/2000/svg" xmlns="http://www.w3.org/2000/svg" xmlns:sodipodi="http://sodipodi.sourceforge.net/DTD/sodipodi-0.dtd" xmlns:inkscape="http://www.inkscape.org/namespaces/inkscape" width="250" height="250" id="svg3791" version="1.1" inkscape:version="0.47 r22583" sodipodi:docname="open-udc_250x250-slogan.svg" inkscape:export-filename="/home/tom/open-udc_250x250-slogan.png" inkscape:export-xdpi="90" inkscape:export-ydpi="90">
  <title id="title2861">Open UDC 250x250 slogan</title>
  <defs id="defs3793">
    <inkscape:perspective sodipodi:type="inkscape:persp3d" inkscape:vp_x="0 : 526.18109 : 1" inkscape:vp_y="0 : 1000 : 0" inkscape:vp_z="744.09448 : 526.18109 : 1" inkscape:persp3d-origin="372.04724 : 350.78739 : 1" id="perspective3799"/>
    <inkscape:perspective id="perspective3809" inkscape:persp3d-origin="0.5 : 0.33333333 : 1" inkscape:vp_z="1 : 0.5 : 1" inkscape:vp_y="0 : 1000 : 0" inkscape:vp_x="0 : 0.5 : 1" sodipodi:type="inkscape:persp3d"/>
    <inkscape:perspective id="perspective2864" inkscape:persp3d-origin="0.5 : 0.33333333 : 1" inkscape:vp_z="1 : 0.5 : 1" inkscape:vp_y="0 : 1000 : 0" inkscape:vp_x="0 : 0.5 : 1" sodipodi:type="inkscape:persp3d"/>
    <inkscape:perspective id="perspective2881" inkscape:persp3d-origin="0.5 : 0.33333333 : 1" inkscape:vp_z="1 : 0.5 : 1" inkscape:vp_y="0 : 1000 : 0" inkscape:vp_x="0 : 0.5 : 1" sodipodi:type="inkscape:persp3d"/>
    <inkscape:perspective id="perspective2896" inkscape:persp3d-origin="0.5 : 0.33333333 : 1" inkscape:vp_z="1 : 0.5 : 1" inkscape:vp_y="0 : 1000 : 0" inkscape:vp_x="0 : 0.5 : 1" sodipodi:type="inkscape:persp3d"/>
    <inkscape:perspective id="perspective2894" inkscape:persp3d-origin="0.5 : 0.33333333 : 1" inkscape:vp_z="1 : 0.5 : 1" inkscape:vp_y="0 : 1000 : 0" inkscape:vp_x="0 : 0.5 : 1" sodipodi:type="inkscape:persp3d"/>
    <filter id="filter2940" inkscape:label="Glow" inkscape:menu="Shadows and Glows" inkscape:menu-tooltip="Glow of object's own color at the edges" color-interpolation-filters="sRGB">
      <feGaussianBlur id="feGaussianBlur2942" stdDeviation="5" result="result91"/>
      <feComposite id="feComposite2944" in2="result91" in="SourceGraphic" operator="over"/>
    </filter>
    <inkscape:perspective id="perspective2921" inkscape:persp3d-origin="0.5 : 0.33333333 : 1" inkscape:vp_z="1 : 0.5 : 1" inkscape:vp_y="0 : 1000 : 0" inkscape:vp_x="0 : 0.5 : 1" sodipodi:type="inkscape:persp3d"/>
    <inkscape:perspective id="perspective2857" inkscape:persp3d-origin="0.5 : 0.33333333 : 1" inkscape:vp_z="1 : 0.5 : 1" inkscape:vp_y="0 : 1000 : 0" inkscape:vp_x="0 : 0.5 : 1" sodipodi:type="inkscape:persp3d"/>
  </defs>
  <sodipodi:namedview id="base" pagecolor="#ffffff" bordercolor="#666666" borderopacity="1.0" inkscape:pageopacity="0" inkscape:pageshadow="2" inkscape:zoom="2.8" inkscape:cx="-12.772793" inkscape:cy="132.1489" inkscape:document-units="px" inkscape:current-layer="layer1" showgrid="true" inkscape:window-width="1760" inkscape:window-height="976" inkscape:window-x="0" inkscape:window-y="50" inkscape:window-maximized="0" showguides="false">
    <inkscape:grid type="xygrid" id="grid3963" empspacing="5" visible="true" enabled="true" snapvisiblegridlinesonly="true"/>
  </sodipodi:namedview>
  <metadata id="metadata3796">
    <rdf:RDF>
      <cc:Work rdf:about="">
        <dc:format>image/svg+xml</dc:format>
        <dc:type rdf:resource="http://purl.org/dc/dcmitype/StillImage"/>
        <dc:title>Open UDC 250x250 slogan</dc:title>
        <dc:creator>
          <cc:Agent>
            <dc:title>Thomas Guillot</dc:title>
          </cc:Agent>
        </dc:creator>
        <cc:license rdf:resource="http://creativecommons.org/licenses/by-sa/3.0/"/>
      </cc:Work>
      <cc:License rdf:about="http://creativecommons.org/licenses/by-sa/3.0/">
        <cc:permits rdf:resource="http://creativecommons.org/ns#Reproduction"/>
        <cc:permits rdf:resource="http://creativecommons.org/ns#Distribution"/>
        <cc:requires rdf:resource="http://creativecommons.org/ns#Notice"/>
        <cc:requires rdf:resource="http://creativecommons.org/ns#Attribution"/>
        <cc:permits rdf:resource="http://creativecommons.org/ns#DerivativeWorks"/>
        <cc:requires rdf:resource="http://creativecommons.org/ns#ShareAlike"/>
      </cc:License>
    </rdf:RDF>
  </metadata>
  <g inkscape:label="Calque 1" inkscape:groupmode="layer" id="layer1" transform="translate(0,-802.36218)">
    <g transform="matrix(1.2783384,0,0,1.2783384,-357.17418,790.81841)" style="font-size:18px;font-style:normal;font-weight:normal;text-align:start;line-height:125%;writing-mode:lr-tb;text-anchor:start;fill:#000000;fill-opacity:1;stroke:none;display:inline;font-family:Bitstream Vera Sans" id="flowRoot3693">
      <path d="m 295.74776,26.288828 5.91467,0 -2.97482,-8.457864 -2.93985,8.457864 m 6.54465,1.808232 -7.17461,0 -1.56324,4.491417 -2.39154,0 c 0.10122,-0.233321 0.20611,-0.478307 0.315,-0.734959 0.10879,-0.256652 0.22554,-0.544413 0.34997,-0.863286 0.1322,-0.326646 0.2761,-0.696069 0.43164,-1.108272 0.15553,-0.412195 0.33443,-0.890502 0.53663,-1.434919 l 4.66642,-12.89095 2.50818,0 4.66642,12.89095 c 0.19441,0.544417 0.3694,1.022724 0.52496,1.434919 0.15554,0.412203 0.29941,0.781626 0.43165,1.108272 0.13219,0.318873 0.25274,0.606634 0.36163,0.863286 0.1088,0.256652 0.21387,0.501638 0.315,0.734959 l -2.39154,0 -1.58657,-4.491417" style="fill:#4d4d4d;font-family:Andika Basic;-inkscape-font-specification:Andika Basic" id="path3735"/>
      <path d="m 313.88843,20.980789 2.33321,0 0,-2.041553 c 0,-1.749885 0.35386,-3.060367 1.0616,-3.931447 0.7155,-0.878821 1.70322,-1.318241 2.96317,-1.318261 0.45885,2e-5 0.90994,0.07392 1.35325,0.221655 0.4433,0.140011 0.84772,0.338334 1.21327,0.594968 l -0.53665,1.749902 c -0.29553,-0.21775 -0.62218,-0.38885 -0.97993,-0.513305 -0.35778,-0.124424 -0.70775,-0.186639 -1.04994,-0.186657 -0.30334,1.8e-5 -0.57164,0.05446 -0.80497,0.163326 -0.23332,0.101128 -0.42774,0.268333 -0.58329,0.501639 -0.15555,0.233335 -0.2761,0.536653 -0.36165,0.909949 -0.0777,0.36555 -0.11665,0.812746 -0.11665,1.341591 l 0,2.508193 3.14983,0 0,1.691573 -3.14983,0 0,4.153103 c -10e-6,0.56775 0.003,1.131608 0.012,1.691572 0.0156,0.552195 0.035,1.081053 0.0584,1.586578 0.031,0.497753 0.0699,0.960504 0.11665,1.388256 0.0466,0.427755 0.10122,0.79329 0.16333,1.096606 l -2.5082,0 0,-9.916115 -2.3332,0 0,-1.691573" style="fill:#4d4d4d;font-family:Andika Basic;-inkscape-font-specification:Andika Basic" id="path3737"/>
      <path d="m 324.00285,32.588477 0,-7.1746 c 0,-1.151039 -0.066,-2.123206 -0.1983,-2.916505 -0.12438,-0.801055 -0.25278,-1.403799 -0.38498,-1.808233 l 2.09986,0 c 0.0934,0.217777 0.17499,0.493874 0.245,0.828288 0.0778,0.326658 0.13999,0.692193 0.18666,1.096605 0.0545,0.404432 0.0934,0.836074 0.11664,1.294929 0.0233,0.458871 0.035,0.921623 0.035,1.388255 l 0,0.758292 c 0.39666,-1.096599 0.78553,-2.002658 1.16661,-2.718183 0.38109,-0.723282 0.75829,-1.298806 1.13161,-1.72657 0.38107,-0.427742 0.76217,-0.727171 1.14327,-0.898284 0.38107,-0.171088 0.76994,-0.256639 1.1666,-0.256652 0.29552,1.3e-5 0.56773,0.02724 0.81662,0.08167 0.24887,0.05445 0.50163,0.143892 0.75829,0.268317 l -0.34997,2.158214 c -0.22556,-0.09333 -0.42389,-0.155537 -0.59498,-0.186657 -0.17111,-0.03109 -0.38109,-0.04666 -0.62996,-0.04667 -0.31889,8e-6 -0.65331,0.136112 -1.00328,0.40831 -0.34998,0.264438 -0.69607,0.618308 -1.03827,1.061607 -0.33444,0.443317 -0.6533,0.944953 -0.95661,1.504916 -0.30333,0.559974 -0.57164,1.1355 -0.80497,1.726571 -0.22555,0.583304 -0.4083,1.15494 -0.54831,1.714905 -0.13219,0.55997 -0.1983,1.057721 -0.1983,1.493248 0,0.194438 0,0.373316 0,0.536639 0.008,0.163324 0.0196,0.322761 0.035,0.478307 0.0233,0.147769 0.0506,0.299427 0.0816,0.454973 0.031,0.147771 0.0699,0.307205 0.11665,0.478308 l -2.39154,0" style="fill:#4d4d4d;font-family:Andika Basic;-inkscape-font-specification:Andika Basic" id="path3739"/>
      <path d="m 339.30868,20.455819 c 0.63773,1.3e-5 1.20158,0.07777 1.69157,0.23332 0.48996,0.147782 0.91382,0.35777 1.2716,0.629965 0.35774,0.264442 0.65716,0.575535 0.89827,0.933281 0.24109,0.357769 0.43165,0.742748 0.57164,1.154937 0.14777,0.412208 0.25276,0.84385 0.31498,1.294927 0.0623,0.443315 0.0934,0.882736 0.0934,1.31826 l 0,0.454975 c 0,0.19444 -0.003,0.346098 -0.012,0.454975 l -8.27121,0 c 0.0233,0.684411 0.12836,1.279377 0.31498,1.7849 0.19443,0.505531 0.45498,0.925507 0.78163,1.259931 0.33442,0.32665 0.72329,0.571635 1.16661,0.734957 0.45108,0.163328 0.94104,0.244989 1.46991,0.244987 0.75439,2e-6 1.49324,-0.08555 2.21654,-0.256653 0.72329,-0.171099 1.4427,-0.474415 2.15821,-0.909948 l 0.23333,1.924892 c -0.41223,0.209989 -0.81664,0.388868 -1.21327,0.536637 -0.39665,0.14777 -0.79331,0.268318 -1.18994,0.361647 -0.39666,0.09333 -0.80108,0.159435 -1.21326,0.198322 -0.40443,0.04667 -0.83218,0.06999 -1.28326,0.06999 -0.74664,0 -1.45825,-0.128326 -2.13489,-0.384978 -0.67663,-0.264429 -1.2716,-0.649408 -1.78489,-1.154935 -0.51332,-0.513304 -0.92162,-1.147157 -1.22494,-1.901561 -0.30332,-0.7544 -0.45498,-1.62935 -0.45498,-2.624854 0,-0.964385 0.12836,-1.835446 0.38498,-2.613188 0.26443,-0.785502 0.63775,-1.454354 1.11993,-2.006555 0.4822,-0.559958 1.06939,-0.987711 1.76158,-1.283262 0.69217,-0.303305 1.46991,-0.454962 2.33321,-0.454974 m -0.17499,1.749902 c -0.85553,10e-6 -1.55547,0.252774 -2.09988,0.758291 -0.54443,0.49776 -0.90217,1.275493 -1.07328,2.333203 l 6.08966,0 c 0,-0.497742 -0.0739,-0.937161 -0.22166,-1.31826 -0.13999,-0.388859 -0.3422,-0.715506 -0.60663,-0.979945 -0.25667,-0.264419 -0.56386,-0.462741 -0.92162,-0.594967 -0.35776,-0.132202 -0.74663,-0.198312 -1.16659,-0.198322" style="fill:#4d4d4d;font-family:Andika Basic;-inkscape-font-specification:Andika Basic" id="path3741"/>
      <path d="m 352.09463,20.455819 c 0.63774,1.3e-5 1.20159,0.07777 1.69157,0.23332 0.48996,0.147782 0.91384,0.35777 1.2716,0.629965 0.35774,0.264442 0.65718,0.575535 0.89828,0.933281 0.2411,0.357769 0.43163,0.742748 0.57164,1.154937 0.14775,0.412208 0.25275,0.84385 0.31497,1.294927 0.0624,0.443315 0.0934,0.882736 0.0934,1.31826 l 0,0.454975 c -10e-6,0.19444 -0.003,0.346098 -0.0119,0.454975 l -8.27123,0 c 0.0233,0.684411 0.12836,1.279377 0.315,1.7849 0.19442,0.505531 0.45497,0.925507 0.78161,1.259931 0.33443,0.32665 0.72329,0.571635 1.16661,0.734957 0.45108,0.163328 0.94106,0.244989 1.46991,0.244987 0.75441,2e-6 1.49325,-0.08555 2.21654,-0.256653 0.7233,-0.171099 1.4427,-0.474415 2.15823,-0.909948 l 0.23331,1.924892 c -0.41219,0.209989 -0.81663,0.388868 -1.21327,0.536637 -0.39665,0.14777 -0.79328,0.268318 -1.18992,0.361647 -0.39665,0.09333 -0.80109,0.159435 -1.21328,0.198322 -0.40441,0.04667 -0.83218,0.06999 -1.28325,0.06999 -0.74663,0 -1.45826,-0.128326 -2.13488,-0.384978 -0.67663,-0.264429 -1.2716,-0.649408 -1.7849,-1.154935 -0.5133,-0.513304 -0.92163,-1.147157 -1.22493,-1.901561 -0.30333,-0.7544 -0.45497,-1.62935 -0.45497,-2.624854 0,-0.964385 0.12834,-1.835446 0.38495,-2.613188 0.26444,-0.785502 0.63776,-1.454354 1.11996,-2.006555 0.48218,-0.559958 1.06939,-0.987711 1.76156,-1.283262 0.69219,-0.303305 1.46993,-0.454962 2.33321,-0.454974 m -0.17499,1.749902 c -0.85553,10e-6 -1.55548,0.252774 -2.09989,0.758291 -0.54442,0.49776 -0.90217,1.275493 -1.07327,2.333203 l 6.08966,0 c -10e-6,-0.497742 -0.0739,-0.937161 -0.22166,-1.31826 -0.13999,-0.388859 -0.34221,-0.715506 -0.60664,-0.979945 -0.25664,-0.264419 -0.56386,-0.462741 -0.92159,-0.594967 -0.35778,-0.132202 -0.74665,-0.198312 -1.16661,-0.198322" style="fill:#4d4d4d;font-family:Andika Basic;-inkscape-font-specification:Andika Basic" id="path3743"/>
      <path d="m 370.62027,20.455819 c 0.41997,1.3e-5 0.81272,0.02724 1.17826,0.08167 0.37331,0.05445 0.71162,0.128339 1.01495,0.221653 0.31108,0.08557 0.59495,0.186668 0.85161,0.303317 0.25664,0.108894 0.48609,0.217777 0.68831,0.326649 l -0.40832,2.041556 c -0.19444,-0.116646 -0.41609,-0.237199 -0.66497,-0.361645 -0.24887,-0.132203 -0.52108,-0.252755 -0.81661,-0.361647 -0.28778,-0.108871 -0.59886,-0.198313 -0.93329,-0.26832 -0.32664,-0.07776 -0.66885,-0.116646 -1.02661,-0.116657 -0.42774,9e-6 -0.7894,0.04667 -1.08494,0.139991 -0.28776,0.09334 -0.52108,0.213888 -0.69996,0.361647 -0.17111,0.140001 -0.29554,0.303326 -0.3733,0.489973 -0.0778,0.178887 -0.11665,0.353877 -0.11665,0.524971 0,0.202219 0.031,0.381097 0.0934,0.536637 0.0623,0.155554 0.19054,0.299434 0.38498,0.431641 0.2022,0.13223 0.48609,0.26055 0.85161,0.384979 0.36554,0.124438 0.85551,0.25666 1.46993,0.396645 0.52885,0.116669 1.0266,0.268325 1.49324,0.454974 0.46664,0.178886 0.87495,0.408317 1.22494,0.688295 0.34998,0.27999 0.62607,0.618304 0.82829,1.014944 0.2022,0.388872 0.30331,0.855512 0.30331,1.399922 0,0.528863 -0.11664,1.018835 -0.34998,1.469917 -0.23334,0.451089 -0.5522,0.847733 -0.95661,1.189935 -0.40443,0.334427 -0.87885,0.594968 -1.42326,0.781623 -0.54442,0.194434 -1.1316,0.291649 -1.76156,0.291649 -0.47443,0 -0.93329,-0.03501 -1.37659,-0.104992 -0.43553,-0.07 -0.84775,-0.167214 -1.23659,-0.291653 -0.38111,-0.124437 -0.73109,-0.268317 -1.04995,-0.431641 -0.31888,-0.163324 -0.59496,-0.334426 -0.82828,-0.513305 l 0.58329,-2.099883 c 0.26444,0.233322 0.55996,0.447201 0.88662,0.64163 0.33442,0.194435 0.67662,0.361649 1.02661,0.501639 0.34999,0.139993 0.69996,0.248877 1.04993,0.32665 0.35776,0.06999 0.69218,0.104993 1.00328,0.104993 0.34221,3e-6 0.65329,-0.04277 0.93329,-0.128326 0.28775,-0.09333 0.53274,-0.209986 0.73496,-0.349979 0.20998,-0.147768 0.3733,-0.314981 0.48997,-0.501639 0.11665,-0.194431 0.17498,-0.392754 0.17498,-0.594967 0,-0.217763 -0.0467,-0.419974 -0.13999,-0.606634 -0.0856,-0.194429 -0.24888,-0.377196 -0.48997,-0.548302 -0.23332,-0.178875 -0.55998,-0.349976 -0.97995,-0.513304 -0.41219,-0.16332 -0.94495,-0.326644 -1.59824,-0.489974 -0.70773,-0.171095 -1.28715,-0.373307 -1.73823,-0.606633 -0.44332,-0.233314 -0.7933,-0.489966 -1.04994,-0.769956 -0.24889,-0.279979 -0.41998,-0.583294 -0.5133,-0.90995 -0.0934,-0.32664 -0.13999,-0.672732 -0.13999,-1.038276 0,-0.17887 0.0271,-0.388858 0.0816,-0.629964 0.0623,-0.241089 0.15945,-0.489963 0.29165,-0.746625 0.14001,-0.26442 0.31888,-0.521072 0.53664,-0.769957 0.22554,-0.256642 0.50553,-0.482185 0.83996,-0.67663 0.33442,-0.202199 0.72718,-0.365524 1.17826,-0.489972 0.45108,-0.124424 0.97217,-0.186644 1.56325,-0.186656" style="fill:#4d4d4d;font-family:Andika Basic;-inkscape-font-specification:Andika Basic" id="path3745"/>
      <path d="m 379.12479,26.697138 c 0,0.676635 0.0816,1.283266 0.24497,1.819899 0.16333,0.53664 0.39276,0.991614 0.68832,1.364923 0.3033,0.365538 0.66106,0.645522 1.07326,0.839955 0.4122,0.194434 0.87106,0.291651 1.3766,0.291649 0.46663,2e-6 0.90605,-0.09722 1.31825,-0.291649 0.41221,-0.194433 0.76996,-0.474417 1.07328,-0.839955 0.31108,-0.373309 0.55219,-0.828283 0.72329,-1.364923 0.17888,-0.536633 0.2683,-1.143264 0.26831,-1.819899 -1e-5,-0.684399 -0.0816,-1.294922 -0.24497,-1.831565 -0.16333,-0.544405 -0.39666,-1.003269 -0.69996,-1.376589 -0.29556,-0.38108 -0.65332,-0.668843 -1.07329,-0.863286 -0.41219,-0.202201 -0.86717,-0.303306 -1.36491,-0.303316 -0.47443,10e-6 -0.91774,0.101118 -1.32993,0.303316 -0.41221,0.194443 -0.76996,0.482206 -1.07328,0.863286 -0.30331,0.37332 -0.5444,0.832184 -0.72329,1.376589 -0.17111,0.536643 -0.25665,1.147166 -0.25665,1.831565 m -2.15822,0 c 0,-1.00327 0.15166,-1.889886 0.45498,-2.659851 0.30331,-0.777726 0.71162,-1.431022 1.22492,-1.959892 0.51332,-0.536625 1.11216,-0.941047 1.79659,-1.213265 0.6844,-0.272195 1.41158,-0.408298 2.18154,-0.408311 0.80105,1.3e-5 1.53212,0.136116 2.19321,0.408311 0.66884,0.272218 1.24047,0.67664 1.71491,1.213265 0.48218,0.52887 0.85548,1.182166 1.11993,1.959892 0.26442,0.769965 0.39664,1.656581 0.39665,2.659851 -1e-5,1.003283 -0.15168,1.889898 -0.45498,2.659852 -0.30334,0.76996 -0.71164,1.415478 -1.22493,1.936559 -0.5133,0.521082 -1.11217,0.917727 -1.79656,1.189934 -0.68444,0.26443 -1.41162,0.396644 -2.18156,0.396644 -0.80107,0 -1.53603,-0.132216 -2.20487,-0.396644 -0.66108,-0.272207 -1.23271,-0.668852 -1.71491,-1.189934 -0.47441,-0.521081 -0.84384,-1.166599 -1.10826,-1.936559 -0.26443,-0.769954 -0.39666,-1.656569 -0.39666,-2.659852" style="fill:#4d4d4d;font-family:Andika Basic;-inkscape-font-specification:Andika Basic" id="path3747"/>
      <path d="m 389.6242,20.980789 2.3332,0 0,-2.041553 c 0,-1.749885 0.35387,-3.060367 1.06161,-3.931447 0.71552,-0.878821 1.70325,-1.318241 2.96318,-1.318261 0.45885,2e-5 0.90993,0.07392 1.35325,0.221655 0.4433,0.140011 0.84773,0.338334 1.21327,0.594968 l -0.53663,1.749902 c -0.29557,-0.21775 -0.6222,-0.38885 -0.97996,-0.513305 -0.35775,-0.124424 -0.70773,-0.186639 -1.04993,-0.186657 -0.30332,1.8e-5 -0.57165,0.05446 -0.80496,0.163326 -0.23332,0.101128 -0.42777,0.268333 -0.5833,0.501639 -0.15556,0.233335 -0.2761,0.536653 -0.36165,0.909949 -0.0777,0.36555 -0.11664,0.812746 -0.11664,1.341591 l 0,2.508193 3.14981,0 0,1.691573 -3.14981,0 0,4.153103 c 0,0.56775 0.003,1.131608 0.0119,1.691572 0.0156,0.552195 0.035,1.081053 0.0582,1.586578 0.031,0.497753 0.0699,0.960504 0.11664,1.388256 0.0467,0.427755 0.10123,0.79329 0.16333,1.096606 l -2.50819,0 0,-9.916115 -2.33321,0 0,-1.691573" style="fill:#4d4d4d;font-family:Andika Basic;-inkscape-font-specification:Andika Basic" id="path3749"/>
      <path d="m 398.28038,20.980789 2.33322,0 0,-3.791455 2.1582,0 0,3.791455 3.79146,0 0,1.691573 -3.79146,0 0,5.366368 c 0,0.59886 0.0271,1.088831 0.0816,1.469918 0.0623,0.381093 0.15165,0.68052 0.26832,0.898284 0.12438,0.209989 0.27998,0.353871 0.46664,0.431642 0.18666,0.07777 0.4122,0.116658 0.67662,0.116658 0.33442,1e-6 0.71162,-0.07387 1.13161,-0.221655 0.41996,-0.147767 0.8866,-0.365532 1.39992,-0.653297 l 0,1.866563 c -0.53664,0.349981 -1.04995,0.591079 -1.53992,0.723293 -0.48997,0.139993 -0.94107,0.209988 -1.35325,0.209988 -0.45886,0 -0.88662,-0.05445 -1.28326,-0.163324 -0.39665,-0.101107 -0.74664,-0.283873 -1.04995,-0.548303 -0.29553,-0.264429 -0.52885,-0.614409 -0.69994,-1.04994 -0.17112,-0.443307 -0.25667,-1.003276 -0.25666,-1.679907 l 0,-6.766291 -2.33322,0 0,-1.691572" style="fill:#4d4d4d;font-family:Andika Basic;-inkscape-font-specification:Andika Basic" id="path3751"/>
      <path d="m 417.59931,20.689139 3.03317,9.391144 2.44986,-9.391144 2.15821,0 c -0.14,0.443321 -0.26443,0.843853 -0.37331,1.201601 -0.10122,0.34999 -0.19833,0.688303 -0.29166,1.014944 -0.0934,0.318879 -0.18666,0.633862 -0.27998,0.944946 -0.0856,0.303325 -0.17888,0.629973 -0.27998,0.979945 l -2.15821,7.757902 -2.21654,0 -2.91651,-9.157824 -2.9165,9.157824 -2.21656,0 -2.15819,-7.757902 c -0.0856,-0.311085 -0.175,-0.61829 -0.26832,-0.921614 -0.0855,-0.303309 -0.17889,-0.61829 -0.27999,-0.944949 -0.0934,-0.326637 -0.19443,-0.676618 -0.30331,-1.049941 -0.1088,-0.373301 -0.23334,-0.781611 -0.37331,-1.224932 l 2.1582,0 2.44987,9.391144 3.03316,-9.391144 1.7499,0" style="fill:#4d4d4d;font-family:Andika Basic;-inkscape-font-specification:Andika Basic" id="path3753"/>
      <path d="m 432.73014,22.439042 c -0.24889,10e-6 -0.50165,0.03113 -0.75829,0.09333 -0.24889,0.05445 -0.49776,0.151668 -0.74663,0.291649 -0.24111,0.140002 -0.47831,0.326657 -0.71163,0.559968 -0.22554,0.225554 -0.43941,0.513314 -0.64162,0.863286 -0.21,0.357766 -0.3811,0.804962 -0.51331,1.341593 -0.12451,0.528864 -0.18665,1.073279 -0.18665,1.633242 0,0.645523 0.0584,1.201604 0.17499,1.66824 0.12437,0.458867 0.28386,0.839956 0.4783,1.143269 0.20221,0.295541 0.42775,0.513306 0.67662,0.653296 0.25665,0.139996 0.51331,0.209991 0.76996,0.209989 0.32664,2e-6 0.68051,-0.101107 1.06162,-0.303315 0.38885,-0.202208 0.76605,-0.470526 1.13161,-0.804956 0.36551,-0.334421 0.70772,-0.7194 1.02659,-1.154936 0.32665,-0.435527 0.59497,-0.886613 0.80496,-1.353258 l 0,-4.374755 c -0.11665,-0.05444 -0.26834,-0.108871 -0.45497,-0.163325 -0.1789,-0.05444 -0.3811,-0.104981 -0.60664,-0.151658 -0.21777,-0.04666 -0.45886,-0.08165 -0.72329,-0.104994 -0.25666,-0.03109 -0.5172,-0.04666 -0.78162,-0.04667 m 4.72474,3.966446 c -2e-5,1.469923 0.0816,2.706521 0.24499,3.709794 0.1633,0.995501 0.3733,1.8199 0.62996,2.473196 l -2.04156,0 c -0.0389,-0.101108 -0.0934,-0.241098 -0.16332,-0.419977 -0.0699,-0.178878 -0.14388,-0.381089 -0.22166,-0.606633 -0.0699,-0.233319 -0.14,-0.482194 -0.20998,-0.746625 -0.0621,-0.264427 -0.11664,-0.528858 -0.16333,-0.793289 -0.30333,0.388868 -0.62609,0.754404 -0.96827,1.096606 -0.33444,0.342204 -0.68831,0.645519 -1.06162,0.909949 -0.37332,0.26443 -0.76219,0.470529 -1.16659,0.618298 -0.40443,0.155547 -0.81663,0.233321 -1.2366,0.233321 -0.48998,0 -0.97996,-0.104994 -1.46992,-0.314983 -0.48221,-0.209989 -0.91773,-0.52497 -1.3066,-0.944947 -0.38887,-0.419976 -0.70384,-0.944945 -0.94494,-1.574912 -0.24111,-0.637739 -0.36166,-1.384364 -0.36165,-2.239876 -10e-6,-0.894389 0.0972,-1.703232 0.29164,-2.426531 0.20222,-0.731062 0.47443,-1.380471 0.81664,-1.948226 0.30331,-0.497739 0.62606,-0.93327 0.96827,-1.306593 0.3422,-0.373301 0.71551,-0.680506 1.11994,-0.921614 0.41219,-0.248865 0.86329,-0.43552 1.35325,-0.55997 0.48998,-0.124424 1.03438,-0.186643 1.63325,-0.186655 0.29553,1.2e-5 0.62217,0.02336 0.97994,0.06999 0.36553,0.03891 0.73495,0.09723 1.10828,0.174991 0.38107,0.07777 0.75828,0.171113 1.1316,0.279983 0.37329,0.108894 0.71939,0.225556 1.03828,0.349981 l 0,5.074717" style="fill:#4d4d4d;font-family:Andika Basic;-inkscape-font-specification:Andika Basic" id="path3755"/>
      <path d="m 441.03634,32.588477 0,-7.1746 c 0,-1.151039 -0.066,-2.123206 -0.19833,-2.916505 -0.12437,-0.801055 -0.25276,-1.403799 -0.38497,-1.808233 l 2.09989,0 c 0.0934,0.217777 0.17498,0.493874 0.24498,0.828288 0.0778,0.326658 0.13998,0.692193 0.18665,1.096605 0.0545,0.404432 0.0934,0.836074 0.11665,1.294929 0.0233,0.458871 0.035,0.921623 0.035,1.388255 l 0,0.758292 c 0.39663,-1.096599 0.7855,-2.002658 1.16661,-2.718183 0.38108,-0.723282 0.75827,-1.298806 1.13158,-1.72657 0.3811,-0.427742 0.76219,-0.727171 1.14329,-0.898284 0.38109,-0.171088 0.76996,-0.256639 1.1666,-0.256652 0.29553,1.3e-5 0.56774,0.02724 0.81661,0.08167 0.24888,0.05445 0.50164,0.143892 0.7583,0.268317 l -0.34998,2.158214 c -0.22557,-0.09333 -0.42387,-0.155537 -0.59497,-0.186657 -0.1711,-0.03109 -0.3811,-0.04666 -0.62996,-0.04667 -0.31888,8e-6 -0.6533,0.136112 -1.00327,0.40831 -0.35001,0.264438 -0.69609,0.618308 -1.03829,1.061607 -0.33442,0.443317 -0.65331,0.944953 -0.95661,1.504916 -0.30333,0.559974 -0.57163,1.1355 -0.80497,1.726571 -0.22554,0.583304 -0.40831,1.15494 -0.54828,1.714905 -0.13222,0.55997 -0.19834,1.057721 -0.19834,1.493248 0,0.194438 0,0.373316 0,0.536639 0.008,0.163324 0.0193,0.322761 0.035,0.478307 0.0233,0.147769 0.0506,0.299427 0.0816,0.454973 0.031,0.147771 0.0699,0.307205 0.11665,0.478308 l -2.39154,0" style="fill:#4d4d4d;font-family:Andika Basic;-inkscape-font-specification:Andika Basic" id="path3757"/>
      <path d="m 456.34215,20.455819 c 0.63774,1.3e-5 1.2016,0.07777 1.69158,0.23332 0.48996,0.147782 0.91382,0.35777 1.2716,0.629965 0.35774,0.264442 0.65717,0.575535 0.89828,0.933281 0.24108,0.357769 0.43163,0.742748 0.57163,1.154937 0.14775,0.412208 0.25275,0.84385 0.31499,1.294927 0.0623,0.443315 0.0934,0.882736 0.0934,1.31826 l 0,0.454975 c -2e-5,0.19444 -0.003,0.346098 -0.012,0.454975 l -8.2712,0 c 0.0233,0.684411 0.12834,1.279377 0.31497,1.7849 0.19444,0.505531 0.45497,0.925507 0.78163,1.259931 0.33442,0.32665 0.72328,0.571635 1.16659,0.734957 0.45108,0.163328 0.94106,0.244989 1.46993,0.244987 0.75439,2e-6 1.49324,-0.08555 2.21654,-0.256653 0.72328,-0.171099 1.44268,-0.474415 2.15821,-0.909948 l 0.23332,1.924892 c -0.4122,0.209989 -0.81663,0.388868 -1.21326,0.536637 -0.39666,0.14777 -0.7933,0.268318 -1.18993,0.361647 -0.39666,0.09333 -0.80107,0.159435 -1.21326,0.198322 -0.40444,0.04667 -0.83219,0.06999 -1.28328,0.06999 -0.74662,0 -1.45825,-0.128326 -2.13487,-0.384978 -0.67663,-0.264429 -1.27161,-0.649408 -1.78491,-1.154935 -0.5133,-0.513304 -0.92159,-1.147157 -1.22493,-1.901561 -0.3033,-0.7544 -0.45497,-1.62935 -0.45497,-2.624854 0,-0.964385 0.12837,-1.835446 0.38499,-2.613188 0.26441,-0.785502 0.63772,-1.454354 1.11993,-2.006555 0.4822,-0.559958 1.06938,-0.987711 1.76158,-1.283262 0.69217,-0.303305 1.4699,-0.454962 2.33318,-0.454974 m -0.17499,1.749902 c -0.8555,10e-6 -1.55547,0.252774 -2.09987,0.758291 -0.54442,0.49776 -0.90219,1.275493 -1.07328,2.333203 l 6.08967,0 c -2e-5,-0.497742 -0.0739,-0.937161 -0.22165,-1.31826 -0.14001,-0.388859 -0.34223,-0.715506 -0.60664,-0.979945 -0.25666,-0.264419 -0.56387,-0.462741 -0.92162,-0.594967 -0.35776,-0.132202 -0.74663,-0.198312 -1.16661,-0.198322" style="fill:#4d4d4d;font-family:Andika Basic;-inkscape-font-specification:Andika Basic" id="path3759"/>
      <path d="m 291.16302,50.845792 2.3332,0 0,-2.041553 c 0,-1.749885 0.35386,-3.060367 1.06162,-3.931447 0.71551,-0.878821 1.70322,-1.318241 2.96316,-1.318261 0.45885,2e-5 0.90993,0.07392 1.35325,0.221655 0.4433,0.140011 0.84775,0.338334 1.21328,0.594968 l -0.53663,1.749903 c -0.29556,-0.217751 -0.62221,-0.388851 -0.97995,-0.513305 -0.35778,-0.124424 -0.70775,-0.18664 -1.04995,-0.186658 -0.30331,1.8e-5 -0.57164,0.05446 -0.80494,0.163324 -0.23335,0.101129 -0.42777,0.268336 -0.58332,0.501639 -0.15555,0.233337 -0.2761,0.536653 -0.36164,0.909951 -0.0778,0.36555 -0.11664,0.812746 -0.11664,1.341591 l 0,2.508193 3.14982,0 0,1.691573 -3.14982,0 0,4.153103 c 0,0.56775 0.003,1.131607 0.0119,1.691572 0.0156,0.552195 0.035,1.081054 0.0584,1.586578 0.031,0.497753 0.0699,0.960503 0.11665,1.388257 0.0466,0.427754 0.10122,0.793288 0.16331,1.096605 l -2.50819,0 0,-9.916115 -2.33321,0 0,-1.691573" style="fill:#4d4d4d;font-family:Andika Basic;-inkscape-font-specification:Andika Basic" id="path3761"/>
      <path d="m 302.73572,56.562142 c 0,0.676635 0.0816,1.283265 0.24497,1.819898 0.16333,0.53664 0.39276,0.991614 0.6883,1.364924 0.30332,0.365537 0.66107,0.645522 1.07328,0.839954 0.41219,0.194435 0.87105,0.29165 1.37658,0.291649 0.46665,1e-6 0.90605,-0.09722 1.31826,-0.291649 0.4122,-0.194432 0.76997,-0.474417 1.07328,-0.839954 0.31109,-0.37331 0.55218,-0.828284 0.72329,-1.364924 0.17887,-0.536633 0.26831,-1.143263 0.26832,-1.819898 -1e-5,-0.6844 -0.0816,-1.294922 -0.24497,-1.831566 -0.16334,-0.544406 -0.39668,-1.003269 -0.69998,-1.37659 -0.29554,-0.381079 -0.65331,-0.668842 -1.07327,-0.863286 -0.41221,-0.2022 -0.86718,-0.303305 -1.36493,-0.303315 -0.47442,1e-5 -0.91772,0.101118 -1.32991,0.303315 -0.41221,0.194444 -0.76996,0.482207 -1.07329,0.863286 -0.3033,0.373321 -0.54442,0.832184 -0.72329,1.37659 -0.17111,0.536644 -0.25664,1.147166 -0.25664,1.831566 m -2.15822,0 c 0,-1.003271 0.15166,-1.889887 0.45497,-2.659852 0.3033,-0.777726 0.71163,-1.431022 1.22493,-1.959892 0.5133,-0.536625 1.11216,-0.941048 1.79657,-1.213266 0.68442,-0.272193 1.41159,-0.408298 2.18154,-0.40831 0.80107,1.2e-5 1.53214,0.136117 2.19322,0.40831 0.66884,0.272218 1.24048,0.676641 1.71492,1.213266 0.48217,0.52887 0.85548,1.182166 1.11993,1.959892 0.26441,0.769965 0.39664,1.656581 0.39665,2.659852 -1e-5,1.003281 -0.15168,1.889897 -0.45498,2.659851 -0.30334,0.769959 -0.71164,1.415479 -1.22493,1.93656 -0.51334,0.521082 -1.11217,0.917726 -1.79659,1.189933 -0.68441,0.264429 -1.41159,0.396644 -2.18154,0.396644 -0.80106,0 -1.53602,-0.132216 -2.20486,-0.396644 -0.66108,-0.272207 -1.23274,-0.668851 -1.71492,-1.189933 -0.47442,-0.521081 -0.84384,-1.166601 -1.10827,-1.93656 -0.26444,-0.769954 -0.39664,-1.65657 -0.39664,-2.659851" style="fill:#4d4d4d;font-family:Andika Basic;-inkscape-font-specification:Andika Basic" id="path3763"/>
      <path d="m 314.57672,62.45348 0,-7.174601 c 0,-1.151038 -0.066,-2.123204 -0.19831,-2.916505 -0.12438,-0.801054 -0.25277,-1.403797 -0.38498,-1.808231 l 2.09987,0 c 0.0934,0.217776 0.17498,0.493873 0.245,0.828287 0.0778,0.326658 0.13998,0.692194 0.18664,1.096605 0.0545,0.404432 0.0934,0.836074 0.11665,1.294929 0.0233,0.458871 0.035,0.921623 0.035,1.388254 l 0,0.758293 c 0.39665,-1.096598 0.78552,-2.002659 1.16661,-2.718183 0.38107,-0.723283 0.75828,-1.298806 1.13161,-1.726571 0.38107,-0.427741 0.76217,-0.727169 1.14327,-0.898283 0.38108,-0.171088 0.76994,-0.25664 1.16659,-0.256652 0.29554,1.2e-5 0.56774,0.02725 0.81663,0.08165 0.24886,0.05446 0.50163,0.143892 0.75829,0.268318 l -0.34999,2.158214 c -0.22555,-0.09332 -0.42387,-0.155537 -0.59496,-0.186656 -0.17111,-0.03109 -0.3811,-0.04666 -0.62997,-0.04667 -0.31887,1e-5 -0.6533,0.136113 -1.00328,0.408311 -0.34997,0.264439 -0.69608,0.618307 -1.03827,1.061607 -0.33443,0.443317 -0.65331,0.944954 -0.95661,1.504916 -0.30333,0.559975 -0.57164,1.135498 -0.80495,1.726571 -0.22555,0.583305 -0.40832,1.154938 -0.54831,1.714903 -0.1322,0.559972 -0.19833,1.057722 -0.19832,1.493251 -1e-5,0.194435 -1e-5,0.373313 0,0.536638 0.008,0.163325 0.0193,0.322761 0.035,0.478306 0.0233,0.14777 0.0506,0.299428 0.0816,0.454975 0.031,0.14777 0.0699,0.307204 0.11664,0.478307 l -2.39154,0" style="fill:#4d4d4d;font-family:Andika Basic;-inkscape-font-specification:Andika Basic" id="path3765"/>
      <path d="m 330.08085,50.845792 2.33321,0 0,-2.041553 c 0,-1.749885 0.35386,-3.060367 1.0616,-3.931447 0.71552,-0.878821 1.70325,-1.318241 2.96317,-1.318261 0.45885,2e-5 0.90996,0.07392 1.35328,0.221655 0.44327,0.140011 0.84771,0.338334 1.21325,0.594968 l -0.53663,1.749903 c -0.29556,-0.217751 -0.62222,-0.388851 -0.97995,-0.513305 -0.35776,-0.124424 -0.70776,-0.18664 -1.04995,-0.186658 -0.30332,1.8e-5 -0.57163,0.05446 -0.80494,0.163324 -0.23334,0.101129 -0.42777,0.268336 -0.58331,0.501639 -0.15557,0.233337 -0.27611,0.536653 -0.36165,0.909951 -0.0777,0.36555 -0.11665,0.812746 -0.11665,1.341591 l 0,2.508193 3.14982,0 0,1.691573 -3.14982,0 0,4.153103 c 0,0.56775 0.003,1.131607 0.012,1.691572 0.0156,0.552195 0.035,1.081054 0.0584,1.586578 0.031,0.497753 0.0699,0.960503 0.11665,1.388257 0.0467,0.427754 0.10122,0.793288 0.16333,1.096605 l -2.50819,0 0,-9.916115 -2.33322,0 0,-1.691573" style="fill:#4d4d4d;font-family:Andika Basic;-inkscape-font-specification:Andika Basic" id="path3767"/>
      <path d="m 340.1953,62.45348 0,-7.174601 c 0,-1.151038 -0.066,-2.123204 -0.19833,-2.916505 -0.12437,-0.801054 -0.25275,-1.403797 -0.38498,-1.808231 l 2.09989,0 c 0.0934,0.217776 0.17498,0.493873 0.24498,0.828287 0.0778,0.326658 0.14,0.692194 0.18667,1.096605 0.0545,0.404432 0.0934,0.836074 0.11665,1.294929 0.0233,0.458871 0.035,0.921623 0.035,1.388254 l 0,0.758293 c 0.39664,-1.096598 0.78551,-2.002659 1.1666,-2.718183 0.38109,-0.723283 0.75828,-1.298806 1.13161,-1.726571 0.38108,-0.427741 0.76217,-0.727169 1.14327,-0.898283 0.38109,-0.171088 0.76996,-0.25664 1.1666,-0.256652 0.29553,1.2e-5 0.56774,0.02725 0.81662,0.08165 0.24887,0.05446 0.50163,0.143892 0.75829,0.268318 l -0.34998,2.158214 c -0.22554,-0.09332 -0.42388,-0.155537 -0.59497,-0.186656 -0.1711,-0.03109 -0.38109,-0.04666 -0.62996,-0.04667 -0.31888,1e-5 -0.65331,0.136113 -1.00328,0.408311 -0.34998,0.264439 -0.69609,0.618307 -1.03827,1.061607 -0.33444,0.443317 -0.6533,0.944954 -0.95662,1.504916 -0.30332,0.559975 -0.57163,1.135498 -0.80495,1.726571 -0.22555,0.583305 -0.40832,1.154938 -0.5483,1.714903 -0.13221,0.559972 -0.19833,1.057722 -0.19833,1.493251 0,0.194435 0,0.373313 0,0.536638 0.008,0.163325 0.0193,0.322761 0.035,0.478306 0.0233,0.14777 0.0506,0.299428 0.0816,0.454975 0.031,0.14777 0.0699,0.307204 0.11664,0.478307 l -2.39153,0" style="fill:#4d4d4d;font-family:Andika Basic;-inkscape-font-specification:Andika Basic" id="path3769"/>
      <path d="m 355.5011,50.320822 c 0.63776,1.2e-5 1.20161,0.07777 1.69159,0.233321 0.48995,0.147782 0.91383,0.357768 1.27157,0.629964 0.35777,0.264442 0.65719,0.575534 0.8983,0.933281 0.24109,0.35777 0.43163,0.742748 0.57164,1.154937 0.14775,0.412208 0.25275,0.84385 0.31497,1.294927 0.0623,0.443316 0.0934,0.882736 0.0934,1.318259 l 0,0.454976 c -1e-5,0.19444 -0.003,0.346098 -0.0119,0.454974 l -8.2712,0 c 0.0233,0.684412 0.12834,1.279378 0.31497,1.784902 0.19444,0.505531 0.45496,0.925506 0.78162,1.25993 0.33442,0.326649 0.72329,0.571636 1.16661,0.734957 0.45108,0.163327 0.94106,0.244989 1.46993,0.244987 0.75438,2e-6 1.49322,-0.08556 2.21652,-0.256653 0.7233,-0.171098 1.4427,-0.474415 2.15823,-0.909948 l 0.23331,1.924892 c -0.4122,0.209988 -0.81661,0.388868 -1.21325,0.536638 -0.39667,0.147769 -0.79331,0.268317 -1.18995,0.361647 -0.39664,0.09333 -0.80106,0.159435 -1.21327,0.198322 -0.40442,0.04667 -0.83218,0.06999 -1.28326,0.06999 -0.74662,0 -1.45825,-0.128328 -2.13488,-0.384979 -0.67662,-0.26443 -1.2716,-0.649408 -1.78489,-1.154936 -0.5133,-0.513304 -0.92163,-1.147156 -1.22493,-1.90156 -0.30331,-0.754399 -0.45498,-1.62935 -0.45498,-2.624854 0,-0.964385 0.12834,-1.835446 0.38498,-2.613187 0.26444,-0.785503 0.63774,-1.454354 1.11994,-2.006557 0.48218,-0.559957 1.06937,-0.987711 1.76155,-1.283261 0.6922,-0.303305 1.46993,-0.454961 2.33321,-0.454974 m -0.17498,1.749902 c -0.85551,1.1e-5 -1.55548,0.252774 -2.0999,0.758291 -0.54439,0.497759 -0.90217,1.275493 -1.07327,2.333203 l 6.08966,0 c -10e-6,-0.497742 -0.0739,-0.937162 -0.22163,-1.31826 -0.14002,-0.388858 -0.34223,-0.715506 -0.60664,-0.979945 -0.25667,-0.26442 -0.56388,-0.462741 -0.92163,-0.594967 -0.35774,-0.132202 -0.74661,-0.198311 -1.16659,-0.198322" style="fill:#4d4d4d;font-family:Andika Basic;-inkscape-font-specification:Andika Basic" id="path3771"/>
      <path d="m 368.28705,50.320822 c 0.63775,1.2e-5 1.2016,0.07777 1.69159,0.233321 0.48995,0.147782 0.91382,0.357768 1.2716,0.629964 0.35774,0.264442 0.65717,0.575534 0.89827,0.933281 0.24109,0.35777 0.43163,0.742748 0.57164,1.154937 0.14777,0.412208 0.25275,0.84385 0.31498,1.294927 0.0621,0.443316 0.0934,0.882736 0.0934,1.318259 l 0,0.454976 c -1e-5,0.19444 -0.003,0.346098 -0.012,0.454974 l -8.2712,0 c 0.0233,0.684412 0.12834,1.279378 0.31499,1.784902 0.19442,0.505531 0.45497,0.925506 0.78161,1.25993 0.33442,0.326649 0.72329,0.571636 1.1666,0.734957 0.45108,0.163327 0.94105,0.244989 1.46992,0.244987 0.75438,2e-6 1.49324,-0.08556 2.21655,-0.256653 0.72328,-0.171098 1.44267,-0.474415 2.1582,-0.909948 l 0.23333,1.924892 c -0.41221,0.209988 -0.81663,0.388868 -1.21326,0.536638 -0.39667,0.147769 -0.79332,0.268317 -1.18995,0.361647 -0.39665,0.09333 -0.80107,0.159435 -1.21325,0.198322 -0.40444,0.04667 -0.83219,0.06999 -1.28327,0.06999 -0.74663,0 -1.45826,-0.128328 -2.13488,-0.384979 -0.67663,-0.26443 -1.27159,-0.649408 -1.78491,-1.154936 -0.5133,-0.513304 -0.9216,-1.147156 -1.22493,-1.90156 -0.30331,-0.754399 -0.45498,-1.62935 -0.45498,-2.624854 0,-0.964385 0.12837,-1.835446 0.38499,-2.613187 0.26443,-0.785503 0.63774,-1.454354 1.11993,-2.006557 0.4822,-0.559957 1.06939,-0.987711 1.76158,-1.283261 0.69217,-0.303305 1.46991,-0.454961 2.3332,-0.454974 m -0.17499,1.749902 c -0.85552,1.1e-5 -1.55547,0.252774 -2.09988,0.758291 -0.54442,0.497759 -0.90217,1.275493 -1.07328,2.333203 l 6.08966,0 c 0,-0.497742 -0.0739,-0.937162 -0.22165,-1.31826 -0.14,-0.388858 -0.34221,-0.715506 -0.60663,-0.979945 -0.25666,-0.26442 -0.56386,-0.462741 -0.92163,-0.594967 -0.35775,-0.132202 -0.74662,-0.198311 -1.16659,-0.198322" style="fill:#4d4d4d;font-family:Andika Basic;-inkscape-font-specification:Andika Basic" id="path3773"/>
      <path d="m 391.82908,62.45348 -2.15821,0 0,-6.649629 c -10e-6,-0.723286 -0.0271,-1.306587 -0.0816,-1.749903 -0.0545,-0.451078 -0.14777,-0.801058 -0.27997,-1.049942 -0.12451,-0.256643 -0.29555,-0.427743 -0.51331,-0.513306 -0.21777,-0.08553 -0.48998,-0.128311 -0.81663,-0.128326 -0.28776,10e-6 -0.57552,0.05833 -0.86327,0.174991 -0.28778,0.116671 -0.56388,0.283884 -0.82829,0.50164 -0.25667,0.209996 -0.49776,0.462761 -0.72329,0.75829 -0.21778,0.287769 -0.40442,0.60664 -0.55998,0.956612 l 0,7.699573 -2.15822,0 0,-7.174601 c 0,-1.151038 -0.066,-2.123204 -0.19831,-2.916505 -0.13221,-0.801054 -0.26054,-1.403797 -0.38498,-1.808231 l 2.09987,0 c 0.0855,0.248887 0.15944,0.544426 0.22165,0.886617 0.0623,0.334436 0.11278,0.641641 0.15167,0.921614 0.35776,-0.412186 0.69996,-0.750501 1.02661,-1.014943 0.32664,-0.264418 0.6494,-0.470517 0.96828,-0.618299 0.32664,-0.155534 0.64941,-0.260528 0.96827,-0.314981 0.31888,-0.06221 0.64553,-0.09332 0.97997,-0.09333 0.38107,1.3e-5 0.72717,0.05445 1.03825,0.163324 0.3111,0.108894 0.58331,0.252776 0.81664,0.431643 0.24108,0.17889 0.44718,0.388879 0.61829,0.629965 0.1711,0.233331 0.30331,0.478318 0.39665,0.734959 0.36553,-0.396634 0.71939,-0.719393 1.0616,-0.968279 0.34219,-0.256642 0.67662,-0.454964 1.00328,-0.594967 0.32663,-0.147759 0.64552,-0.248863 0.95662,-0.303317 0.31886,-0.06221 0.62994,-0.09332 0.93328,-0.09333 0.59107,1.2e-5 1.08881,0.09723 1.49325,0.291649 0.4044,0.186669 0.72717,0.466652 0.96827,0.839955 0.24888,0.373323 0.42386,0.836074 0.52499,1.388255 0.10879,0.5522 0.16329,1.189942 0.1633,1.913226 l 0,7.699572 -2.1582,0 0,-6.41631 c -1e-5,-0.754394 -0.0271,-1.368806 -0.0816,-1.84323 -0.0545,-0.47441 -0.14779,-0.847723 -0.27997,-1.119938 -0.12451,-0.272197 -0.29556,-0.458854 -0.5133,-0.55997 -0.2178,-0.101096 -0.48999,-0.151647 -0.81664,-0.151658 -0.28776,1.1e-5 -0.57163,0.05833 -0.85161,0.17499 -0.28001,0.108894 -0.5522,0.268328 -0.81662,0.478308 -0.25666,0.20222 -0.49777,0.451095 -0.7233,0.746625 -0.21778,0.295548 -0.41221,0.626084 -0.5833,0.991611 l 0,7.699572" style="fill:#008000;font-family:Andika Basic;-inkscape-font-specification:Andika Basic" id="path3775"/>
      <path d="m 403.71675,56.562142 c 0,0.676635 0.0816,1.283265 0.24499,1.819898 0.16332,0.53664 0.39275,0.991614 0.6883,1.364924 0.3033,0.365537 0.66108,0.645522 1.07327,0.839954 0.41219,0.194435 0.87105,0.29165 1.3766,0.291649 0.46662,1e-6 0.90605,-0.09722 1.31825,-0.291649 0.41219,-0.194432 0.76994,-0.474417 1.07326,-0.839954 0.31109,-0.37331 0.55219,-0.828284 0.72332,-1.364924 0.17886,-0.536633 0.2683,-1.143263 0.2683,-1.819898 0,-0.6844 -0.0816,-1.294922 -0.24499,-1.831566 -0.16333,-0.544406 -0.39664,-1.003269 -0.69995,-1.37659 -0.29555,-0.381079 -0.6533,-0.668842 -1.07327,-0.863286 -0.41221,-0.2022 -0.86719,-0.303305 -1.36492,-0.303315 -0.47444,1e-5 -0.91773,0.101118 -1.32994,0.303315 -0.4122,0.194444 -0.76996,0.482207 -1.07326,0.863286 -0.30334,0.373321 -0.54443,0.832184 -0.72329,1.37659 -0.17112,0.536644 -0.25667,1.147166 -0.25667,1.831566 m -2.15821,0 c 0,-1.003271 0.15166,-1.889887 0.45497,-2.659852 0.30332,-0.777726 0.71164,-1.431022 1.22494,-1.959892 0.5133,-0.536625 1.11215,-0.941048 1.79657,-1.213266 0.68439,-0.272193 1.41157,-0.408298 2.18155,-0.40831 0.80105,1.2e-5 1.53211,0.136117 2.1932,0.40831 0.66884,0.272218 1.24048,0.676641 1.7149,1.213266 0.48219,0.52887 0.85549,1.182166 1.11994,1.959892 0.26442,0.769965 0.39663,1.656581 0.39664,2.659852 -1e-5,1.003281 -0.15167,1.889897 -0.45497,2.659851 -0.30333,0.769959 -0.71164,1.415479 -1.22493,1.93656 -0.51331,0.521082 -1.11217,0.917726 -1.79656,1.189933 -0.68442,0.264429 -1.4116,0.396644 -2.18156,0.396644 -0.80105,0 -1.53603,-0.132216 -2.20487,-0.396644 -0.66108,-0.272207 -1.23271,-0.668851 -1.7149,-1.189933 -0.47442,-0.521081 -0.84385,-1.166601 -1.10827,-1.93656 -0.26443,-0.769954 -0.39665,-1.65657 -0.39665,-2.659851" style="fill:#008000;font-family:Andika Basic;-inkscape-font-specification:Andika Basic" id="path3777"/>
      <path d="m 422.1374,50.320822 c 1.24436,1.2e-5 2.19708,0.408324 2.85817,1.224932 0.66106,0.808854 0.9916,2.014341 0.99161,3.616464 l 0,7.291262 -2.15821,0 0,-6.41631 c -1e-5,-0.731063 -0.0506,-1.333807 -0.15167,-1.808233 -0.0934,-0.474409 -0.2372,-0.847721 -0.43163,-1.119938 -0.18667,-0.279974 -0.42776,-0.474407 -0.72329,-0.583299 -0.28778,-0.108871 -0.62998,-0.163316 -1.02662,-0.163326 -0.41998,10e-6 -0.83218,0.101118 -1.23659,0.303318 -0.39664,0.194444 -0.76219,0.451096 -1.09661,0.769957 -0.33443,0.311103 -0.62997,0.664971 -0.88662,1.061607 -0.25666,0.396652 -0.4472,0.793297 -0.57164,1.189934 l 0,6.76629 -2.1582,0 0,-7.174601 c 0,-1.151038 -0.066,-2.123204 -0.19833,-2.916505 -0.12438,-0.801054 -0.25277,-1.403797 -0.38498,-1.808231 l 2.09988,0 c 0.0467,0.124451 0.0934,0.287773 0.13999,0.489972 0.0467,0.194445 0.0895,0.400545 0.12836,0.6183 0.0389,0.217775 0.0739,0.431652 0.10505,0.64163 l 0.0934,0.524971 c 0.73883,-0.886607 1.48546,-1.524348 2.23987,-1.913226 0.75439,-0.396633 1.54379,-0.594956 2.3682,-0.594968" style="fill:#008000;font-family:Andika Basic;-inkscape-font-specification:Andika Basic" id="path3779"/>
      <path d="m 434.27005,50.320822 c 0.63774,1.2e-5 1.20159,0.07777 1.69158,0.233321 0.48995,0.147782 0.91383,0.357768 1.27159,0.629964 0.35775,0.264442 0.65717,0.575534 0.89828,0.933281 0.24108,0.35777 0.43163,0.742748 0.57165,1.154937 0.14776,0.412208 0.25274,0.84385 0.31497,1.294927 0.0624,0.443316 0.0934,0.882736 0.0934,1.318259 l 0,0.454976 c -10e-6,0.19444 -0.003,0.346098 -0.0119,0.454974 l -8.27119,0 c 0.0233,0.684412 0.12834,1.279378 0.31496,1.784902 0.19444,0.505531 0.45497,0.925506 0.78163,1.25993 0.33442,0.326649 0.72329,0.571636 1.16661,0.734957 0.45108,0.163327 0.94105,0.244989 1.46992,0.244987 0.75439,2e-6 1.49323,-0.08556 2.21653,-0.256653 0.72329,-0.171098 1.4427,-0.474415 2.15822,-0.909948 l 0.23332,1.924892 c -0.41221,0.209988 -0.81662,0.388868 -1.21325,0.536638 -0.39668,0.147769 -0.79332,0.268317 -1.18995,0.361647 -0.39665,0.09333 -0.80107,0.159435 -1.21327,0.198322 -0.40442,0.04667 -0.83219,0.06999 -1.28327,0.06999 -0.74661,0 -1.45824,-0.128328 -2.13487,-0.384979 -0.67662,-0.26443 -1.2716,-0.649408 -1.7849,-1.154936 -0.5133,-0.513304 -0.9216,-1.147156 -1.22493,-1.90156 -0.30331,-0.754399 -0.45497,-1.62935 -0.45497,-2.624854 0,-0.964385 0.12836,-1.835446 0.38498,-2.613187 0.26443,-0.785503 0.63773,-1.454354 1.11993,-2.006557 0.4822,-0.559957 1.06938,-0.987711 1.76158,-1.283261 0.69217,-0.303305 1.46991,-0.454961 2.33318,-0.454974 m -0.17498,1.749902 c -0.85551,1.1e-5 -1.55547,0.252774 -2.09987,0.758291 -0.54442,0.497759 -0.9022,1.275493 -1.07329,2.333203 l 6.08968,0 c -4e-5,-0.497742 -0.0739,-0.937162 -0.22166,-1.31826 -0.14001,-0.388858 -0.34223,-0.715506 -0.60663,-0.979945 -0.25667,-0.26442 -0.56386,-0.462741 -0.92163,-0.594967 -0.35775,-0.132202 -0.74662,-0.198311 -1.1666,-0.198322" style="fill:#008000;font-family:Andika Basic;-inkscape-font-specification:Andika Basic" id="path3781"/>
      <path d="m 447.98929,62.45348 c -0.40443,1.119937 -0.80107,2.033774 -1.18993,2.741514 -0.38888,0.707735 -0.78552,1.263814 -1.18994,1.66824 -0.39665,0.412194 -0.81274,0.692179 -1.24827,0.839954 -0.42775,0.15554 -0.89051,0.233314 -1.38826,0.233319 -0.53664,-5e-6 -1.04215,-0.08557 -1.51658,-0.256652 -0.46664,-0.171107 -0.91382,-0.416093 -1.34159,-0.734958 l 0.69997,-1.866563 c 0.12437,0.101107 0.26831,0.202207 0.43164,0.303316 0.17111,0.108881 0.34997,0.202209 0.53664,0.279984 0.19443,0.08556 0.39276,0.155544 0.59496,0.209988 0.2022,0.05444 0.40054,0.08165 0.59496,0.08165 0.23333,-2e-6 0.46275,-0.04278 0.6883,-0.128326 0.22554,-0.07777 0.4511,-0.233324 0.67664,-0.466642 0.23331,-0.225545 0.47051,-0.548304 0.71162,-0.968278 0.24109,-0.412201 0.49775,-0.956615 0.76996,-1.633243 l -3.25482,-8.061218 c -0.21777,-0.528851 -0.47053,-1.123817 -0.75829,-1.784901 -0.28777,-0.661063 -0.65719,-1.446574 -1.10827,-2.356534 l 2.33321,0 3.76812,9.531135 c 0.14776,-0.419973 0.3072,-0.874947 0.4783,-1.364923 0.17887,-0.497746 0.36164,-1.007162 0.5483,-1.528249 0.18665,-0.528854 0.37331,-1.057714 0.55998,-1.586578 0.18664,-0.536629 0.36552,-1.049935 0.53662,-1.539913 0.40442,-1.15104 0.81273,-2.321529 1.22494,-3.511472 l 2.33321,0 c -0.20223,0.451097 -0.38499,0.871073 -0.54831,1.25993 -0.16333,0.381099 -0.31499,0.742745 -0.45497,1.084938 -0.14001,0.334435 -0.26833,0.649419 -0.38498,0.944948 -0.1088,0.295548 -0.21,0.57942 -0.30332,0.851619 l -2.79984,7.757901" style="fill:#008000;font-family:Andika Basic;-inkscape-font-specification:Andika Basic" id="path3783"/>
      <path d="m 458.72203,50.320822 c 0.41997,1.2e-5 0.81273,0.02725 1.17826,0.08165 0.37331,0.05446 0.71162,0.12834 1.01494,0.221655 0.31109,0.08557 0.59497,0.186668 0.85162,0.303317 0.25664,0.108894 0.48608,0.217776 0.68831,0.326648 l -0.40832,2.041556 c -0.19444,-0.116646 -0.41609,-0.237198 -0.66497,-0.361646 -0.24888,-0.132201 -0.52109,-0.252754 -0.81661,-0.361646 -0.28778,-0.108871 -0.59887,-0.198312 -0.9333,-0.268319 -0.32663,-0.07776 -0.66885,-0.116646 -1.02659,-0.116658 -0.42776,1e-5 -0.78941,0.04667 -1.08496,0.139991 -0.28776,0.09334 -0.52107,0.213888 -0.69995,0.361647 -0.17111,0.140002 -0.29554,0.303326 -0.37331,0.489972 -0.0777,0.178888 -0.11665,0.353878 -0.11665,0.524972 0,0.202219 0.031,0.381097 0.0934,0.536636 0.0623,0.155555 0.19053,0.299435 0.38496,0.431643 0.20221,0.132228 0.48609,0.260549 0.85163,0.384978 0.36552,0.124452 0.8555,0.25666 1.46991,0.396644 0.52887,0.11667 1.02662,0.268326 1.49325,0.454975 0.46663,0.178886 0.87496,0.408316 1.22494,0.688296 0.34997,0.279989 0.62606,0.618304 0.82829,1.014944 0.20219,0.388871 0.3033,0.85551 0.3033,1.399921 0,0.528863 -0.11665,1.018834 -0.34997,1.469918 -0.23333,0.451087 -0.5522,0.847732 -0.95661,1.189934 -0.40444,0.334427 -0.87885,0.594967 -1.42327,0.781624 -0.54442,0.194433 -1.13159,0.291649 -1.76154,0.291649 -0.47444,0 -0.9333,-0.03501 -1.3766,-0.104993 -0.43554,-0.06999 -0.84774,-0.167214 -1.23659,-0.291651 -0.38111,-0.124437 -0.73108,-0.268318 -1.04995,-0.431642 -0.31889,-0.163326 -0.59498,-0.334425 -0.82829,-0.513305 l 0.58333,-2.099884 c 0.26444,0.233322 0.55996,0.447199 0.88662,0.64163 0.33442,0.194436 0.67662,0.361649 1.0266,0.501639 0.34998,0.139994 0.69997,0.248877 1.04994,0.326649 0.35775,0.07 0.69217,0.104993 1.00328,0.104993 0.3422,10e-7 0.6533,-0.04277 0.93329,-0.128327 0.28775,-0.09333 0.53273,-0.209984 0.73496,-0.349979 0.20996,-0.147768 0.37328,-0.31498 0.48997,-0.501639 0.11665,-0.19443 0.17498,-0.392753 0.17498,-0.594966 0,-0.217763 -0.0467,-0.419974 -0.14,-0.606634 -0.0856,-0.194429 -0.24886,-0.377196 -0.48998,-0.548303 -0.23331,-0.178874 -0.55997,-0.349976 -0.97993,-0.513304 -0.41221,-0.163318 -0.94495,-0.326643 -1.59825,-0.489973 -0.70772,-0.171096 -1.28715,-0.373308 -1.73823,-0.606632 -0.44332,-0.233315 -0.79329,-0.489967 -1.04994,-0.769958 -0.24887,-0.279978 -0.41997,-0.583294 -0.5133,-0.909949 -0.0934,-0.326641 -0.13998,-0.672733 -0.13998,-1.038276 0,-0.17887 0.0271,-0.388859 0.0816,-0.629965 0.0623,-0.241088 0.15945,-0.489962 0.29165,-0.746625 0.13999,-0.264419 0.31888,-0.521071 0.53662,-0.769957 0.22556,-0.256641 0.50555,-0.482184 0.83998,-0.676629 0.33442,-0.2022 0.72718,-0.365523 1.17826,-0.489972 0.45108,-0.124424 0.97216,-0.186644 1.56325,-0.186656" style="fill:#008000;font-family:Andika Basic;-inkscape-font-specification:Andika Basic" id="path3785"/>
    </g>
    <path transform="matrix(1.8330952,0,0,1.8330952,66.380481,881.54898)" sodipodi:type="arc" style="fill:none;stroke:none;filter:url(#filter2940)" id="path2926" sodipodi:cx="32.269783" sodipodi:cy="30.701698" sodipodi:rx="28.155706" sodipodi:ry="28.155706" d="m 60.425489,30.701698 c 0,15.549968 -12.605739,28.155707 -28.155706,28.155707 -15.549967,0 -28.1557064,-12.605739 -28.1557064,-28.155707 0,-15.549967 12.6057394,-28.1557061 28.1557064,-28.1557061 15.549967,0 28.155706,12.6057391 28.155706,28.1557061 z"/>
    <path style="fill:#000000;stroke:#000000;stroke-width:2.16990304px;stroke-linecap:butt;stroke-linejoin:miter;stroke-opacity:1" d="m 122,981.71074 0,0 c 2.39068,0.1724 3.3845,0.147 6,0 l 0,13.17994 c -2.29972,0.23778 -3.8149,0.22778 -6,0 l 0,-13.17994 0,0 z" id="path4363" sodipodi:nodetypes="ccccccc"/>
    <rect style="fill:#008000;fill-opacity:1;stroke:none" id="rect2825-4" width="10" height="10" x="-119" y="933.36218" transform="scale(-1,1)"/>
    <rect style="fill:#008000;fill-opacity:1;stroke:none" id="rect2825-6-4" width="10" height="10" x="-109.00003" y="929.36218" transform="scale(-1,1)"/>
    <rect style="fill:#008000;fill-opacity:1;stroke:none" id="rect2825-9-2" width="10" height="10" x="-118.97169" y="919.36218" transform="scale(-1,1)"/>
    <rect style="fill:#008000;fill-opacity:1;stroke:none" id="rect2825-61-4" width="10" height="10" x="-109.00003" y="909.36218" transform="scale(-1,1)"/>
    <path style="fill:#008000;fill-opacity:1;stroke:none" d="m 119,943.3621 -20,0.0584 0,15.9854 0,15.9854 0,15.98542 19.94332,15.98548 0.0128,-16.00004 0.0126,-15.99994 0.0282,-31.99994 -8e-5,0 z" id="path2848-4" sodipodi:nodetypes="cccccccccc"/>
    <rect style="fill:#008000;fill-opacity:1;stroke:none" id="rect2825-61-4-2" width="10" height="10" x="-130" y="901.36218" transform="scale(-1,1)"/>
    <g transform="matrix(3.7236488,0,0,2.8317193,59.677094,915.29552)" style="font-size:56px;font-style:normal;font-weight:normal;fill:#000000;fill-opacity:1;stroke:none;font-family:Bitstream Vera Sans" id="flowRoot3696">
      <path d="M 10,26.862334 C 8.1770723,26.151398 6.6640529,25.148795 5.4609375,23.854522 4.2578053,22.560256 3.3554625,21.010778 2.7539063,19.206084 2.1705678,17.383177 1.8789015,15.359742 1.8789062,13.135772 l 0,-13.94531272 C 1.8789015,-3.5074267 1.8515577,-5.8863305 1.796875,-7.9462595 1.760412,-10.024347 1.6117737,-11.59582 1.4294866,-12.689609 l 6.5433736,0 -0.8986415,24.594912 c -9.9e-6,1.786472 0.1549378,3.399752 0.4648438,4.839844 0.3098851,1.421884 0.8294158,2.643237 1.5585938,3.664062 0.7291539,1.00261 0.9828017,1.43168 0.9150007,1.287213" style="font-variant:normal;font-stretch:normal;font-family:Andika Basic;-inkscape-font-specification:Andika Basic" id="path3708" sodipodi:nodetypes="cscccccccscc"/>
    </g>
    <g transform="matrix(-3.7236488,0,0,2.8317193,190.32291,915.29552)" style="font-size:56px;font-style:normal;font-weight:normal;fill:#000000;fill-opacity:1;stroke:none;font-family:Bitstream Vera Sans" id="flowRoot3696-8">
      <path d="M 10,26.862334 C 8.1770723,26.151398 6.6640529,25.148795 5.4609375,23.854522 4.2578053,22.560256 3.3554625,21.010778 2.7539063,19.206084 2.1705678,17.383177 1.8789015,15.359742 1.8789062,13.135772 l 0,-13.94531272 C 1.8789015,-3.5074267 1.8515577,-5.8863305 1.796875,-7.9462595 1.760412,-10.024347 1.6117737,-11.59582 1.4294866,-12.689609 l 6.5433736,0 -0.8986415,24.594912 c -9.9e-6,1.786472 0.1549378,3.399752 0.4648438,4.839844 0.3098851,1.421884 0.8294158,2.643237 1.5585938,3.664062 0.7291539,1.00261 0.9828017,1.43168 0.9150007,1.287213" style="font-variant:normal;font-stretch:normal;font-family:Andika Basic;-inkscape-font-specification:Andika Basic" id="path3708-0" sodipodi:nodetypes="cscccccccscc"/>
    </g>
    <rect style="fill:#008000;fill-opacity:1;stroke:none" id="rect2825-4-5" width="10" height="10" x="131.00008" y="933.36218"/>
    <rect style="fill:#008000;fill-opacity:1;stroke:none" id="rect2825-6-4-5" width="10" height="10" x="141.00005" y="929.36218"/>
    <rect style="fill:#008000;fill-opacity:1;stroke:none" id="rect2825-9-2-4" width="10" height="10" x="131.02838" y="919.36218"/>
    <rect style="fill:#008000;fill-opacity:1;stroke:none" id="rect2825-61-4-3" width="10" height="10" x="141.00005" y="909.36218"/>
    <path style="fill:#008000;fill-opacity:1;stroke:none" d="m 131,943.3621 20,0.0584 0,15.9854 0,15.9854 0,15.98542 -19.94332,15.98548 -0.012,-16.00004 -0.012,-15.99994 -0.0282,-31.99994 8e-5,0 z" id="path2848-4-6" sodipodi:nodetypes="cccccccccc"/>
    <g transform="matrix(0.98908073,0,0,0.98926835,-4.812983,988.1812)" style="font-size:40px;font-style:normal;font-weight:normal;fill:#000000;fill-opacity:1;stroke:#000000;stroke-opacity:1;font-family:Andika Basic;-inkscape-font-specification:Andika Basic" id="flowRoot3676">
      <path d="m 44.65625,38.360795 c -3.1e-5,2.812515 -0.421906,5.328137 -1.265625,7.546875 -0.828154,2.218758 -1.937528,4.101569 -3.328125,5.648438 -1.375025,1.531253 -2.945336,2.703126 -4.710938,3.515625 -1.765645,0.8125 -3.585956,1.218749 -5.460937,1.21875 -1.89064,-1e-6 -3.703138,-0.382813 -5.4375,-1.148438 -1.734384,-0.765623 -3.265633,-1.890622 -4.59375,-3.375 -1.32813,-1.484369 -2.390629,-3.30468 -3.1875,-5.460937 -0.796878,-2.171863 -1.195315,-4.664048 -1.195312,-7.476563 -3e-6,-1.874981 0.187497,-3.617167 0.562499,-5.226562 0.390622,-1.609351 0.921872,-3.0781 1.59375,-4.40625 0.687495,-1.328097 1.499995,-2.507784 2.4375,-3.539063 0.937493,-1.031218 1.953117,-1.898405 3.046875,-2.601562 1.109365,-0.703092 2.273426,-1.234341 3.492188,-1.59375 1.23436,-0.374965 2.484359,-0.562465 3.75,-0.5625 1.859356,3.5e-5 3.648417,0.382847 5.367187,1.148437 1.734351,0.765658 3.257787,1.890657 4.570313,3.375 1.328097,1.484404 2.382783,3.312527 3.164062,5.484375 0.796844,2.156273 1.195282,4.640646 1.195313,7.453125 m -4.570313,0.585938 c -2.6e-5,-2.156231 -0.242214,-4.093729 -0.726562,-5.8125 -0.468776,-1.734351 -1.14065,-3.203099 -2.015625,-4.40625 -0.875023,-1.203097 -1.92971,-2.124971 -3.164063,-2.765625 -1.218769,-0.640595 -2.57033,-0.960907 -4.054687,-0.960938 -1.48439,3.1e-5 -2.843764,0.312531 -4.078125,0.9375 -1.234387,0.609405 -2.296886,1.492216 -3.1875,2.648438 -0.890634,1.140651 -1.585946,2.531275 -2.085938,4.171875 -0.484382,1.625021 -0.726569,3.453144 -0.726562,5.484375 -7e-6,2.14064 0.234368,4.070326 0.703125,5.789062 0.484367,1.71876 1.164054,3.187509 2.039062,4.40625 0.890615,1.203132 1.953114,2.132818 3.1875,2.789063 1.234362,0.640629 2.617173,0.960941 4.148438,0.960937 1.437482,4e-6 2.765605,-0.296871 3.984375,-0.890625 1.218728,-0.60937 2.265602,-1.476556 3.140625,-2.601562 0.8906,-1.140617 1.585912,-2.531241 2.085937,-4.171875 0.499974,-1.640612 0.749974,-3.499985 0.75,-5.578125" style="fill:#008000;stroke:#008000;stroke-opacity:1" id="path2847"/>
      <path d="m 56.023437,45.509233 c -8e-6,2.328133 0.01562,4.382818 0.04687,6.164062 0.03124,1.765628 0.132804,3.109376 0.304688,4.03125 l -5.15625,0 c 0.171871,-0.937499 0.273433,-2.28906 0.304687,-4.054687 0.03125,-1.781244 0.04687,-3.828117 0.04687,-6.140625 l 0,-16.59375 c -4e-6,-1.093722 -0.01563,-2.109346 -0.04687,-3.046875 -0.01563,-0.953094 -0.04688,-1.804656 -0.09375,-2.554688 -0.04688,-0.749966 -0.117191,-1.359341 -0.210937,-1.828125 0.98437,-0.03121 2.023432,-0.07028 3.117187,-0.117187 0.937493,-0.03122 1.992179,-0.05465 3.164063,-0.07031 1.187489,-0.03121 2.41405,-0.04684 3.679687,-0.04687 1.89061,3.5e-5 3.601546,0.218785 5.132813,0.65625 1.53123,0.421909 2.835916,1.070346 3.914062,1.945313 1.078102,0.859406 1.906226,1.93753 2.484375,3.234375 0.593725,1.281277 0.890599,2.773463 0.890625,4.476562 -2.6e-5,1.718773 -0.289088,3.265646 -0.867187,4.640625 -0.562525,1.375019 -1.382836,2.546892 -2.460938,3.515625 -1.062521,0.95314 -2.367207,1.687515 -3.914062,2.203125 -1.531267,0.515639 -3.257828,0.773451 -5.179688,0.773438 -0.859387,1.3e-5 -1.742199,-0.01561 -2.648437,-0.04687 -0.90626,-0.04686 -1.742197,-0.109362 -2.507813,-0.1875 l 0,3.046875 m 0,-6.679688 c 0.749991,0.09377 1.515615,0.156267 2.296875,0.1875 0.781239,0.03127 1.617176,0.04689 2.507813,0.04687 1.64061,1.7e-5 2.992171,-0.187483 4.054687,-0.5625 1.078107,-0.374982 1.929669,-0.882794 2.554688,-1.523437 0.640604,-0.656231 1.085916,-1.40623 1.335937,-2.25 0.249979,-0.859353 0.374979,-1.75779 0.375,-2.695313 -2.1e-5,-0.937475 -0.140646,-1.828099 -0.421875,-2.671875 -0.265645,-0.859347 -0.71877,-1.609347 -1.359375,-2.25 -0.625019,-0.640595 -1.460955,-1.148407 -2.507812,-1.523437 -1.046891,-0.390595 -2.351578,-0.585907 -3.914063,-0.585938 -0.546887,3.1e-5 -1.039074,0.0078 -1.476562,0.02344 -0.437512,3.1e-5 -0.843761,0.0078 -1.21875,0.02344 -0.37501,3.1e-5 -0.742198,0.0078 -1.101563,0.02344 -0.359384,0.01566 -0.734383,0.03128 -1.125,0.04687 l 0,13.710937" style="fill:#008000;stroke:#008000;stroke-opacity:1" id="path2849"/>
      <path d="m 97.414062,35.899858 0,3.75 -13.359375,0 0,12.1875 6.1875,0 c 2.328108,4e-6 4.281231,-0.01562 5.859375,-0.04687 1.578103,-0.03125 2.835915,-0.132808 3.773438,-0.304688 l 0,4.21875 -20.625,0 c 0.171871,-0.937499 0.273433,-2.28906 0.304687,-4.054687 0.03125,-1.781244 0.04687,-3.828117 0.04687,-6.140625 l 0,-13.828125 c -4e-6,-2.312474 -0.01563,-4.351534 -0.04687,-6.117188 -0.03125,-1.781223 -0.132816,-3.140596 -0.304687,-4.07813 l 19.921875,0 0,3.867188 -15.117188,0 0,10.546875 13.359375,0" style="fill:#008000;stroke:#008000;stroke-opacity:1" id="path2851"/>
      <path d="m 110.65625,28.704545 0,27 -4.21875,0 c 0.17187,-0.937499 0.27343,-2.28906 0.30469,-4.054687 0.0312,-1.781244 0.0469,-3.828117 0.0469,-6.140625 l 0,-13.828125 c 0,-2.312474 -0.0156,-4.351534 -0.0469,-6.117188 -0.0313,-1.781218 -0.13282,-3.140591 -0.30469,-4.078125 l 4.21875,0 18.63281,27.117188 0,-27.117188 4.21875,0 c -0.0781,0.468784 -0.14065,1.046909 -0.1875,1.734375 -0.0469,0.687532 -0.086,1.468781 -0.11719,2.34375 -0.0157,0.859405 -0.0313,1.804716 -0.0469,2.835938 -3e-5,1.031276 -3e-5,2.125025 0,3.28125 l 0,24.023437 -3.86719,0 -18.63281,-27" style="fill:#008000;stroke:#008000;stroke-opacity:1" id="path2853"/>
      <path d="m 180.19531,21.485795 c -0.15628,0.937534 -0.25784,2.265657 -0.30469,3.984375 -0.0313,1.703154 -0.0469,3.773464 -0.0469,6.210938 l 0,11.953125 c -3e-5,1.90626 -0.25003,3.640633 -0.75,5.203125 -0.50003,1.54688 -1.26565,2.875004 -2.29688,3.984375 -1.01565,1.109377 -2.30471,1.968751 -3.86718,2.578125 -1.56252,0.59375 -3.39846,0.890624 -5.50782,0.890625 -2.14063,-1e-6 -4.00001,-0.296875 -5.57812,-0.890625 -1.56251,-0.609374 -2.85938,-1.468748 -3.89063,-2.578125 -1.03125,-1.109371 -1.80469,-2.437495 -2.32031,-3.984375 -0.5,-1.562492 -0.75,-3.296865 -0.75,-5.203125 l 0,-11.953125 c 0,-2.312474 -0.0234,-4.351534 -0.0703,-6.117188 -0.0312,-1.781218 -0.125,-3.140591 -0.28125,-4.078125 l 4.80469,0 0,21.09375 c -10e-6,1.531262 0.1328,2.914073 0.39843,4.148438 0.26562,1.218758 0.71093,2.265632 1.33594,3.140625 0.62499,0.85938 1.45312,1.523442 2.48438,1.992187 1.03123,0.453129 2.32029,0.679691 3.86718,0.679688 1.51561,3e-6 2.78124,-0.226559 3.79688,-0.679688 1.0156,-0.468745 1.8281,-1.132807 2.4375,-1.992187 0.62498,-0.874993 1.07029,-1.921867 1.33594,-3.140625 0.2656,-1.234365 0.39841,-2.617176 0.39843,-4.148438 l 0,-21.09375 4.80469,0" style="font-size:48px" id="path2855"/>
      <path d="m 188.63281,45.040483 0,-16.125 c 0,-1.093722 -0.0156,-2.109346 -0.0469,-3.046875 -0.0156,-0.953094 -0.0469,-1.804656 -0.0937,-2.554688 -0.0469,-0.749966 -0.11719,-1.359341 -0.21094,-1.828125 0.32812,-0.01559 0.74218,-0.03121 1.24219,-0.04687 0.51562,-0.03121 1.07812,-0.05465 1.6875,-0.07031 0.62499,-0.01559 1.27343,-0.03122 1.94531,-0.04687 0.68749,-0.01559 1.36718,-0.0234 2.03906,-0.02344 0.68749,-0.01559 1.35155,-0.0234 1.99219,-0.02344 0.64061,-0.01559 1.22655,-0.0234 1.75781,-0.02344 0.62499,3.5e-5 1.33592,0.0391 2.13281,0.117188 0.81249,0.06253 1.65624,0.195347 2.53125,0.398437 0.89061,0.203159 1.79686,0.492221 2.71875,0.867188 0.93748,0.359408 1.83592,0.83597 2.69532,1.429687 0.87497,0.593782 1.69528,1.312531 2.46093,2.15625 0.7656,0.843779 1.42966,1.843778 1.99219,3 0.5781,1.156276 1.03122,2.492212 1.35938,4.007813 0.34372,1.500021 0.51559,3.210957 0.51562,5.132812 -3e-5,2.32814 -0.25784,4.382826 -0.77344,6.164063 -0.51565,1.765634 -1.21096,3.296883 -2.08593,4.59375 -0.8594,1.29688 -1.8594,2.382817 -3,3.257812 -1.14065,0.875003 -2.33596,1.578127 -3.58594,2.109375 -1.25002,0.531251 -2.51564,0.906251 -3.79688,1.125 -1.28126,0.21875 -2.4922,0.328125 -3.63281,0.328125 -0.37501,0 -0.81251,-0.0078 -1.3125,-0.02344 -0.48438,0 -1.00001,-0.0078 -1.54687,-0.02344 -0.54689,0 -1.10939,-0.0078 -1.6875,-0.02344 -0.57814,-0.01563 -1.14064,-0.03125 -1.6875,-0.04687 -1.28126,-0.03125 -2.60157,-0.07031 -3.96094,-0.117188 0.0937,-0.468749 0.15625,-1.070311 0.1875,-1.804687 0.0469,-0.734373 0.0781,-1.562497 0.0937,-2.484375 0.0312,-0.92187 0.0469,-1.921869 0.0469,-3 0.0156,-1.093742 0.0234,-2.218741 0.0234,-3.375 m 4.45313,6.796875 c 0.54686,0.04688 1.2578,0.101566 2.13281,0.164062 0.89061,0.04688 1.89842,0.07032 3.02344,0.07031 1.04686,4e-6 2.07811,-0.101559 3.09375,-0.304688 1.03123,-0.20312 2.00779,-0.523433 2.92968,-0.960937 0.93748,-0.45312 1.80467,-1.031244 2.60157,-1.734375 0.79685,-0.703118 1.48435,-1.539054 2.0625,-2.507813 0.5781,-0.984364 1.03122,-2.117176 1.35937,-3.398437 0.3281,-1.281236 0.49216,-2.726547 0.49219,-4.335938 -3e-5,-2.62498 -0.33596,-4.82029 -1.00781,-6.585937 -0.65628,-1.7656 -1.5469,-3.179661 -2.67188,-4.242188 -1.12502,-1.078096 -2.44533,-1.84372 -3.96094,-2.296875 -1.50001,-0.468719 -3.09376,-0.703094 -4.78125,-0.703125 -0.39063,3.1e-5 -0.82813,0.0078 -1.3125,0.02344 -0.48438,3.1e-5 -0.97657,0.0078 -1.47656,0.02344 -0.48438,0.01566 -0.94532,0.03128 -1.38281,0.04687 -0.43751,3.1e-5 -0.8047,0.0078 -1.10156,0.02344 l 0,26.71875" style="font-size:48px" id="path2857"/>
      <path d="m 247.01562,52.423295 c -0.68752,0.640628 -1.49221,1.203128 -2.41406,1.6875 -0.9219,0.468752 -1.89065,0.867189 -2.90625,1.195313 -1.00002,0.328125 -2.01564,0.570312 -3.04687,0.726562 -1.03127,0.171875 -1.99221,0.257812 -2.88282,0.257813 -2.37501,-1e-6 -4.50782,-0.398438 -6.39843,-1.195313 -1.89064,-0.812498 -3.50001,-1.960934 -4.82813,-3.445312 -1.32813,-1.499994 -2.35156,-3.312493 -3.07031,-5.4375 -0.70313,-2.124988 -1.05469,-4.507799 -1.05469,-7.148438 0,-3.015605 0.4375,-5.656227 1.3125,-7.921875 0.875,-2.281223 2.03906,-4.179658 3.49219,-5.695312 1.46874,-1.515593 3.15624,-2.648405 5.0625,-3.398438 1.90624,-0.76559 3.89061,-1.148402 5.95312,-1.148437 0.84374,3.5e-5 1.70311,0.05472 2.57813,0.164062 0.87498,0.10941 1.74998,0.289097 2.625,0.539063 0.8906,0.250034 1.77341,0.585971 2.64844,1.007812 0.87497,0.421908 1.73434,0.945345 2.57812,1.570313 l -1.40625,4.21875 c -0.7344,-0.656222 -1.4844,-1.210909 -2.25,-1.664063 -0.76565,-0.453095 -1.53127,-0.81247 -2.29687,-1.078125 -0.76565,-0.281219 -1.53127,-0.476532 -2.29688,-0.585937 -0.75002,-0.124969 -1.47658,-0.187469 -2.17969,-0.1875 -1.64064,3.1e-5 -3.14845,0.289093 -4.52343,0.867187 -1.37501,0.56253 -2.56251,1.414091 -3.5625,2.554688 -0.98439,1.140651 -1.75782,2.562525 -2.32032,4.265625 -0.5625,1.687521 -0.84375,3.656269 -0.84375,5.90625 0,1.812515 0.24219,3.546889 0.72657,5.203125 0.48436,1.65626 1.1953,3.117196 2.13281,4.382812 0.93749,1.250007 2.08593,2.250006 3.44531,3 1.37499,0.750004 2.9453,1.125004 4.71094,1.125 0.89061,4e-6 1.78904,-0.101558 2.69531,-0.304687 0.92186,-0.203121 1.82029,-0.492183 2.69531,-0.867188 0.87498,-0.390619 1.71092,-0.851557 2.50782,-1.382812 0.79685,-0.531243 1.52341,-1.124993 2.17968,-1.78125 l 0.9375,4.570312" style="font-size:48px" id="path2859"/>
    </g>
  </g>
</svg>