<?xml version="1.0" encoding="UTF-8" standalone="no"?>
<!-- Created with Inkscape (http://www.inkscape.org/) -->
<svg xmlns:dc="http://purl.org/dc/elements/1.1/" xmlns:cc="http://creativecommons.org/ns#" xmlns:rdf="http://www.w3.org/1999/02/22-rdf-syntax-ns#" xmlns:svg="http://www.w3.org/2000/svg" xmlns="http://www.w3.org/2000/svg" xmlns:sodipodi="http://sodipodi.sourceforge.net/DTD/sodipodi-0.dtd" xmlns:inkscape="http://www.inkscape.org/namespaces/inkscape" width="250" height="250" id="svg3791" version="1.1" inkscape:version="0.47 r22583" sodipodi:docname="open-udc_250x250.svg">
  <title id="title2841">Logo Open UDC 250X250</title>
  <defs id="defs3793">
    <inkscape:perspective sodipodi:type="inkscape:persp3d" inkscape:vp_x="0 : 526.18109 : 1" inkscape:vp_y="0 : 1000 : 0" inkscape:vp_z="744.09448 : 526.18109 : 1" inkscape:persp3d-origin="372.04724 : 350.78739 : 1" id="perspective3799"/>
    <inkscape:perspective id="perspective3809" inkscape:persp3d-origin="0.5 : 0.33333333 : 1" inkscape:vp_z="1 : 0.5 : 1" inkscape:vp_y="0 : 1000 : 0" inkscape:vp_x="0 : 0.5 : 1" sodipodi:type="inkscape:persp3d"/>
    <inkscape:perspective id="perspective2864" inkscape:persp3d-origin="0.5 : 0.33333333 : 1" inkscape:vp_z="1 : 0.5 : 1" inkscape:vp_y="0 : 1000 : 0" inkscape:vp_x="0 : 0.5 : 1" sodipodi:type="inkscape:persp3d"/>
    <inkscape:perspective id="perspective2881" inkscape:persp3d-origin="0.5 : 0.33333333 : 1" inkscape:vp_z="1 : 0.5 : 1" inkscape:vp_y="0 : 1000 : 0" inkscape:vp_x="0 : 0.5 : 1" sodipodi:type="inkscape:persp3d"/>
    <inkscape:perspective id="perspective2862" inkscape:persp3d-origin="0.5 : 0.33333333 : 1" inkscape:vp_z="1 : 0.5 : 1" inkscape:vp_y="0 : 1000 : 0" inkscape:vp_x="0 : 0.5 : 1" sodipodi:type="inkscape:persp3d"/>
    <filter id="filter2940" inkscape:label="Glow" inkscape:menu="Shadows and Glows" inkscape:menu-tooltip="Glow of object's own color at the edges" color-interpolation-filters="sRGB">
      <feGaussianBlur id="feGaussianBlur2942" stdDeviation="5" result="result91"/>
      <feComposite id="feComposite2944" in2="result91" in="SourceGraphic" operator="over"/>
    </filter>
    <inkscape:perspective id="perspective2865" inkscape:persp3d-origin="0.5 : 0.33333333 : 1" inkscape:vp_z="1 : 0.5 : 1" inkscape:vp_y="0 : 1000 : 0" inkscape:vp_x="0 : 0.5 : 1" sodipodi:type="inkscape:persp3d"/>
    <inkscape:perspective id="perspective2893" inkscape:persp3d-origin="0.5 : 0.33333333 : 1" inkscape:vp_z="1 : 0.5 : 1" inkscape:vp_y="0 : 1000 : 0" inkscape:vp_x="0 : 0.5 : 1" sodipodi:type="inkscape:persp3d"/>
  </defs>
  <sodipodi:namedview id="base" pagecolor="#ffffff" bordercolor="#666666" borderopacity="1.0" inkscape:pageopacity="0.0" inkscape:pageshadow="2" inkscape:zoom="4" inkscape:cx="60.53039" inkscape:cy="225.73636" inkscape:document-units="px" inkscape:current-layer="layer1" showgrid="true" inkscape:window-width="1760" inkscape:window-height="976" inkscape:window-x="0" inkscape:window-y="50" inkscape:window-maximized="0" inkscape:snap-to-guides="false" inkscape:snap-grids="false">
    <inkscape:grid type="xygrid" id="grid2832"/>
  </sodipodi:namedview>
  <metadata id="metadata3796">
    <rdf:RDF>
      <cc:Work rdf:about="">
        <dc:format>image/svg+xml</dc:format>
        <dc:type rdf:resource="http://purl.org/dc/dcmitype/StillImage"/>
        <dc:title>Logo Open UDC 250X250</dc:title>
        <dc:creator>
          <cc:Agent>
            <dc:title>Thomas Guillot</dc:title>
          </cc:Agent>
        </dc:creator>
        <cc:license rdf:resource="http://creativecommons.org/licenses/by-sa/3.0/"/>
      </cc:Work>
      <cc:License rdf:about="http://creativecommons.org/licenses/by-sa/3.0/">
        <cc:permits rdf:resource="http://creativecommons.org/ns#Reproduction"/>
        <cc:permits rdf:resource="http://creativecommons.org/ns#Distribution"/>
        <cc:requires rdf:resource="http://creativecommons.org/ns#Notice"/>
        <cc:requires rdf:resource="http://creativecommons.org/ns#Attribution"/>
        <cc:permits rdf:resource="http://creativecommons.org/ns#DerivativeWorks"/>
        <cc:requires rdf:resource="http://creativecommons.org/ns#ShareAlike"/>
      </cc:License>
    </rdf:RDF>
  </metadata>
  <g inkscape:label="Calque 1" inkscape:groupmode="layer" id="layer1" transform="translate(0,-802.36218)">
    <g style="font-size:40px;font-style:normal;font-weight:normal;fill:#000000;fill-opacity:1;stroke:#008000;stroke-opacity:1;display:inline;font-family:Bitstream Vera Sans" id="text3673" transform="matrix(0.77227397,0,0,0.77227397,18.303557,817.444)"/>
    <path transform="matrix(2.8749666,0,0,2.8749666,32.409643,863.20126)" sodipodi:type="arc" style="fill:none;stroke:none;filter:url(#filter2940)" id="path2926" sodipodi:cx="32.269783" sodipodi:cy="30.701698" sodipodi:rx="28.155706" sodipodi:ry="28.155706" d="m 60.425489,30.701698 c 0,15.549968 -12.605739,28.155707 -28.155706,28.155707 -15.549967,0 -28.1557064,-12.605739 -28.1557064,-28.155707 0,-15.549967 12.6057394,-28.1557061 28.1557064,-28.1557061 15.549967,0 28.155706,12.6057391 28.155706,28.1557061 z"/>
    <g transform="matrix(0.98908073,0,0,0.98926835,-4.8129825,792.1812)" style="font-size:40px;font-style:normal;font-weight:normal;fill:#000000;fill-opacity:1;stroke:#000000;stroke-opacity:1;font-family:Andika Basic;-inkscape-font-specification:Andika Basic" id="flowRoot3676">
      <path d="m 44.65625,38.360795 c -3.1e-5,2.812515 -0.421906,5.328137 -1.265625,7.546875 -0.828154,2.218758 -1.937528,4.101569 -3.328125,5.648438 -1.375025,1.531253 -2.945336,2.703126 -4.710938,3.515625 -1.765645,0.8125 -3.585956,1.218749 -5.460937,1.21875 -1.89064,-1e-6 -3.703138,-0.382813 -5.4375,-1.148438 -1.734384,-0.765623 -3.265633,-1.890622 -4.59375,-3.375 -1.32813,-1.484369 -2.390629,-3.30468 -3.1875,-5.460937 -0.796878,-2.171863 -1.195315,-4.664048 -1.195312,-7.476563 -3e-6,-1.874981 0.187497,-3.617167 0.562499,-5.226562 0.390622,-1.609351 0.921872,-3.0781 1.59375,-4.40625 0.687495,-1.328097 1.499995,-2.507784 2.4375,-3.539063 0.937493,-1.031218 1.953117,-1.898405 3.046875,-2.601562 1.109365,-0.703092 2.273426,-1.234341 3.492188,-1.59375 1.23436,-0.374965 2.484359,-0.562465 3.75,-0.5625 1.859356,3.5e-5 3.648417,0.382847 5.367187,1.148437 1.734351,0.765658 3.257787,1.890657 4.570313,3.375 1.328097,1.484404 2.382783,3.312527 3.164062,5.484375 0.796844,2.156273 1.195282,4.640646 1.195313,7.453125 m -4.570313,0.585938 c -2.6e-5,-2.156231 -0.242214,-4.093729 -0.726562,-5.8125 -0.468776,-1.734351 -1.14065,-3.203099 -2.015625,-4.40625 -0.875023,-1.203097 -1.92971,-2.124971 -3.164063,-2.765625 -1.218769,-0.640595 -2.57033,-0.960907 -4.054687,-0.960938 -1.48439,3.1e-5 -2.843764,0.312531 -4.078125,0.9375 -1.234387,0.609405 -2.296886,1.492216 -3.1875,2.648438 -0.890634,1.140651 -1.585946,2.531275 -2.085938,4.171875 -0.484382,1.625021 -0.726569,3.453144 -0.726562,5.484375 -7e-6,2.14064 0.234368,4.070326 0.703125,5.789062 0.484367,1.71876 1.164054,3.187509 2.039062,4.40625 0.890615,1.203132 1.953114,2.132818 3.1875,2.789063 1.234362,0.640629 2.617173,0.960941 4.148438,0.960937 1.437482,4e-6 2.765605,-0.296871 3.984375,-0.890625 1.218728,-0.60937 2.265602,-1.476556 3.140625,-2.601562 0.8906,-1.140617 1.585912,-2.531241 2.085937,-4.171875 0.499974,-1.640612 0.749974,-3.499985 0.75,-5.578125" style="fill:#008000;stroke:#008000;stroke-opacity:1" id="path2847"/>
      <path d="m 56.023437,45.509233 c -8e-6,2.328133 0.01562,4.382818 0.04687,6.164062 0.03124,1.765628 0.132804,3.109376 0.304688,4.03125 l -5.15625,0 c 0.171871,-0.937499 0.273433,-2.28906 0.304687,-4.054687 0.03125,-1.781244 0.04687,-3.828117 0.04687,-6.140625 l 0,-16.59375 c -4e-6,-1.093722 -0.01563,-2.109346 -0.04687,-3.046875 -0.01563,-0.953094 -0.04688,-1.804656 -0.09375,-2.554688 -0.04688,-0.749966 -0.117191,-1.359341 -0.210937,-1.828125 0.98437,-0.03121 2.023432,-0.07028 3.117187,-0.117187 0.937493,-0.03122 1.992179,-0.05465 3.164063,-0.07031 1.187489,-0.03121 2.41405,-0.04684 3.679687,-0.04687 1.89061,3.5e-5 3.601546,0.218785 5.132813,0.65625 1.53123,0.421909 2.835916,1.070346 3.914062,1.945313 1.078102,0.859406 1.906226,1.93753 2.484375,3.234375 0.593725,1.281277 0.890599,2.773463 0.890625,4.476562 -2.6e-5,1.718773 -0.289088,3.265646 -0.867187,4.640625 -0.562525,1.375019 -1.382836,2.546892 -2.460938,3.515625 -1.062521,0.95314 -2.367207,1.687515 -3.914062,2.203125 -1.531267,0.515639 -3.257828,0.773451 -5.179688,0.773438 -0.859387,1.3e-5 -1.742199,-0.01561 -2.648437,-0.04687 -0.90626,-0.04686 -1.742197,-0.109362 -2.507813,-0.1875 l 0,3.046875 m 0,-6.679688 c 0.749991,0.09377 1.515615,0.156267 2.296875,0.1875 0.781239,0.03127 1.617176,0.04689 2.507813,0.04687 1.64061,1.7e-5 2.992171,-0.187483 4.054687,-0.5625 1.078107,-0.374982 1.929669,-0.882794 2.554688,-1.523437 0.640604,-0.656231 1.085916,-1.40623 1.335937,-2.25 0.249979,-0.859353 0.374979,-1.75779 0.375,-2.695313 -2.1e-5,-0.937475 -0.140646,-1.828099 -0.421875,-2.671875 -0.265645,-0.859347 -0.71877,-1.609347 -1.359375,-2.25 -0.625019,-0.640595 -1.460955,-1.148407 -2.507812,-1.523437 -1.046891,-0.390595 -2.351578,-0.585907 -3.914063,-0.585938 -0.546887,3.1e-5 -1.039074,0.0078 -1.476562,0.02344 -0.437512,3.1e-5 -0.843761,0.0078 -1.21875,0.02344 -0.37501,3.1e-5 -0.742198,0.0078 -1.101563,0.02344 -0.359384,0.01566 -0.734383,0.03128 -1.125,0.04687 l 0,13.710937" style="fill:#008000;stroke:#008000;stroke-opacity:1" id="path2849"/>
      <path d="m 97.414062,35.899858 0,3.75 -13.359375,0 0,12.1875 6.1875,0 c 2.328108,4e-6 4.281231,-0.01562 5.859375,-0.04687 1.578103,-0.03125 2.835915,-0.132808 3.773438,-0.304688 l 0,4.21875 -20.625,0 c 0.171871,-0.937499 0.273433,-2.28906 0.304687,-4.054687 0.03125,-1.781244 0.04687,-3.828117 0.04687,-6.140625 l 0,-13.828125 c -4e-6,-2.312474 -0.01563,-4.351534 -0.04687,-6.117188 C 79.523433,23.782702 79.421871,22.423329 79.25,21.485795 l 19.921875,0 0,3.867188 -15.117188,0 0,10.546875 13.359375,0" style="fill:#008000;stroke:#008000;stroke-opacity:1" id="path2851"/>
      <path d="m 110.65625,28.704545 0,27 -4.21875,0 c 0.17187,-0.937499 0.27343,-2.28906 0.30469,-4.054687 0.0312,-1.781244 0.0469,-3.828117 0.0469,-6.140625 l 0,-13.828125 c 0,-2.312474 -0.0156,-4.351534 -0.0469,-6.117188 -0.0313,-1.781218 -0.13282,-3.140591 -0.30469,-4.078125 l 4.21875,0 18.63281,27.117188 0,-27.117188 4.21875,0 c -0.0781,0.468784 -0.14065,1.046909 -0.1875,1.734375 -0.0469,0.687532 -0.086,1.468781 -0.11719,2.34375 -0.0157,0.859405 -0.0313,1.804716 -0.0469,2.835938 -3e-5,1.031276 -3e-5,2.125025 0,3.28125 l 0,24.023437 -3.86719,0 -18.63281,-27" style="fill:#008000;stroke:#008000;stroke-opacity:1" id="path2853"/>
      <path d="m 180.19531,21.485795 c -0.15628,0.937534 -0.25784,2.265657 -0.30469,3.984375 -0.0313,1.703154 -0.0469,3.773464 -0.0469,6.210938 l 0,11.953125 c -3e-5,1.90626 -0.25003,3.640633 -0.75,5.203125 -0.50003,1.54688 -1.26565,2.875004 -2.29688,3.984375 -1.01565,1.109377 -2.30471,1.968751 -3.86718,2.578125 -1.56252,0.59375 -3.39846,0.890624 -5.50782,0.890625 -2.14063,-1e-6 -4.00001,-0.296875 -5.57812,-0.890625 -1.56251,-0.609374 -2.85938,-1.468748 -3.89063,-2.578125 -1.03125,-1.109371 -1.80469,-2.437495 -2.32031,-3.984375 -0.5,-1.562492 -0.75,-3.296865 -0.75,-5.203125 l 0,-11.953125 c 0,-2.312474 -0.0234,-4.351534 -0.0703,-6.117188 -0.0312,-1.781218 -0.125,-3.140591 -0.28125,-4.078125 l 4.80469,0 0,21.09375 c -1e-5,1.531262 0.1328,2.914073 0.39843,4.148438 0.26562,1.218758 0.71093,2.265632 1.33594,3.140625 0.62499,0.85938 1.45312,1.523442 2.48438,1.992187 1.03123,0.453129 2.32029,0.679691 3.86718,0.679688 1.51561,3e-6 2.78124,-0.226559 3.79688,-0.679688 1.0156,-0.468745 1.8281,-1.132807 2.4375,-1.992187 0.62498,-0.874993 1.07029,-1.921867 1.33594,-3.140625 0.2656,-1.234365 0.39841,-2.617176 0.39843,-4.148438 l 0,-21.09375 4.80469,0" style="font-size:48px" id="path2855"/>
      <path d="m 188.63281,45.040483 0,-16.125 c 0,-1.093722 -0.0156,-2.109346 -0.0469,-3.046875 -0.0156,-0.953094 -0.0469,-1.804656 -0.0937,-2.554688 -0.0469,-0.749966 -0.11719,-1.359341 -0.21094,-1.828125 0.32812,-0.01559 0.74218,-0.03121 1.24219,-0.04687 0.51562,-0.03121 1.07812,-0.05465 1.6875,-0.07031 0.62499,-0.01559 1.27343,-0.03122 1.94531,-0.04687 0.68749,-0.01559 1.36718,-0.0234 2.03906,-0.02344 0.68749,-0.01559 1.35155,-0.0234 1.99219,-0.02344 0.64061,-0.01559 1.22655,-0.0234 1.75781,-0.02344 0.62499,3.5e-5 1.33592,0.0391 2.13281,0.117188 0.81249,0.06253 1.65624,0.195347 2.53125,0.398437 0.89061,0.203159 1.79686,0.492221 2.71875,0.867188 0.93748,0.359408 1.83592,0.83597 2.69532,1.429687 0.87497,0.593782 1.69528,1.312531 2.46093,2.15625 0.7656,0.843779 1.42966,1.843778 1.99219,3 0.5781,1.156276 1.03122,2.492212 1.35938,4.007813 0.34372,1.500021 0.51559,3.210957 0.51562,5.132812 -3e-5,2.32814 -0.25784,4.382826 -0.77344,6.164063 -0.51565,1.765634 -1.21096,3.296883 -2.08593,4.59375 -0.8594,1.29688 -1.8594,2.382817 -3,3.257812 -1.14065,0.875003 -2.33596,1.578127 -3.58594,2.109375 -1.25002,0.531251 -2.51564,0.906251 -3.79688,1.125 -1.28126,0.21875 -2.4922,0.328125 -3.63281,0.328125 -0.37501,0 -0.81251,-0.0078 -1.3125,-0.02344 -0.48438,0 -1.00001,-0.0078 -1.54687,-0.02344 -0.54689,0 -1.10939,-0.0078 -1.6875,-0.02344 -0.57814,-0.01563 -1.14064,-0.03125 -1.6875,-0.04687 -1.28126,-0.03125 -2.60157,-0.07031 -3.96094,-0.117188 0.0937,-0.468749 0.15625,-1.070311 0.1875,-1.804687 0.0469,-0.734373 0.0781,-1.562497 0.0937,-2.484375 0.0312,-0.92187 0.0469,-1.921869 0.0469,-3 0.0156,-1.093742 0.0234,-2.218741 0.0234,-3.375 m 4.45313,6.796875 c 0.54686,0.04688 1.2578,0.101566 2.13281,0.164062 0.89061,0.04688 1.89842,0.07032 3.02344,0.07031 1.04686,4e-6 2.07811,-0.101559 3.09375,-0.304688 1.03123,-0.20312 2.00779,-0.523433 2.92968,-0.960937 0.93748,-0.45312 1.80467,-1.031244 2.60157,-1.734375 0.79685,-0.703118 1.48435,-1.539054 2.0625,-2.507813 0.5781,-0.984364 1.03122,-2.117176 1.35937,-3.398437 0.3281,-1.281236 0.49216,-2.726547 0.49219,-4.335938 -3e-5,-2.62498 -0.33596,-4.82029 -1.00781,-6.585937 -0.65628,-1.7656 -1.5469,-3.179661 -2.67188,-4.242188 -1.12502,-1.078096 -2.44533,-1.84372 -3.96094,-2.296875 -1.50001,-0.468719 -3.09376,-0.703094 -4.78125,-0.703125 -0.39063,3.1e-5 -0.82813,0.0078 -1.3125,0.02344 -0.48438,3.1e-5 -0.97657,0.0078 -1.47656,0.02344 -0.48438,0.01566 -0.94532,0.03128 -1.38281,0.04687 -0.43751,3.1e-5 -0.8047,0.0078 -1.10156,0.02344 l 0,26.71875" style="font-size:48px" id="path2857"/>
      <path d="m 247.01562,52.423295 c -0.68752,0.640628 -1.49221,1.203128 -2.41406,1.6875 -0.9219,0.468752 -1.89065,0.867189 -2.90625,1.195313 -1.00002,0.328125 -2.01564,0.570312 -3.04687,0.726562 -1.03127,0.171875 -1.99221,0.257812 -2.88282,0.257813 -2.37501,-1e-6 -4.50782,-0.398438 -6.39843,-1.195313 -1.89064,-0.812498 -3.50001,-1.960934 -4.82813,-3.445312 -1.32813,-1.499994 -2.35156,-3.312493 -3.07031,-5.4375 -0.70313,-2.124988 -1.05469,-4.507799 -1.05469,-7.148438 0,-3.015605 0.4375,-5.656227 1.3125,-7.921875 0.875,-2.281223 2.03906,-4.179658 3.49219,-5.695312 1.46874,-1.515593 3.15624,-2.648405 5.0625,-3.398438 1.90624,-0.76559 3.89061,-1.148402 5.95312,-1.148437 0.84374,3.5e-5 1.70311,0.05472 2.57813,0.164062 0.87498,0.10941 1.74998,0.289097 2.625,0.539063 0.8906,0.250034 1.77341,0.585971 2.64844,1.007812 0.87497,0.421908 1.73434,0.945345 2.57812,1.570313 l -1.40625,4.21875 c -0.7344,-0.656222 -1.4844,-1.210909 -2.25,-1.664063 -0.76565,-0.453095 -1.53127,-0.81247 -2.29687,-1.078125 -0.76565,-0.281219 -1.53127,-0.476532 -2.29688,-0.585937 -0.75002,-0.124969 -1.47658,-0.187469 -2.17969,-0.1875 -1.64064,3.1e-5 -3.14845,0.289093 -4.52343,0.867187 -1.37501,0.56253 -2.56251,1.414091 -3.5625,2.554688 -0.98439,1.140651 -1.75782,2.562525 -2.32032,4.265625 -0.5625,1.687521 -0.84375,3.656269 -0.84375,5.90625 0,1.812515 0.24219,3.546889 0.72657,5.203125 0.48436,1.65626 1.1953,3.117196 2.13281,4.382812 0.93749,1.250007 2.08593,2.250006 3.44531,3 1.37499,0.750004 2.9453,1.125004 4.71094,1.125 0.89061,4e-6 1.78904,-0.101558 2.69531,-0.304687 0.92186,-0.203121 1.82029,-0.492183 2.69531,-0.867188 0.87498,-0.390619 1.71092,-0.851557 2.50782,-1.382812 0.79685,-0.531243 1.52341,-1.124993 2.17968,-1.78125 l 0.9375,4.570312" style="font-size:48px" id="path2859"/>
    </g>
    <path style="fill:#000000;stroke:#000000;stroke-width:3.1644392px;stroke-linecap:butt;stroke-linejoin:miter;stroke-opacity:1" d="m 120.625,1008.9546 0,0 c 3.48639,0.2507 4.9357,0.2127 8.75001,0 l 0,19.2203 c -3.35376,0.3469 -5.5634,0.3324 -8.75001,0 l 0,-19.2203 0,0 z" id="path4363" sodipodi:nodetypes="ccccccc"/>
    <rect style="fill:#008000;fill-opacity:1;stroke:none" id="rect2825-4" width="14.583334" height="14.583311" x="-116.25002" y="938.44525" transform="scale(-1,1)"/>
    <rect style="fill:#008000;fill-opacity:1;stroke:none" id="rect2825-6-4" width="14.583334" height="14.583311" x="-101.66664" y="932.61182" transform="scale(-1,1)"/>
    <rect style="fill:#008000;fill-opacity:1;stroke:none" id="rect2825-9-2" width="14.583334" height="14.583311" x="-116.20876" y="918.02863" transform="scale(-1,1)"/>
    <rect style="fill:#008000;fill-opacity:1;stroke:none" id="rect2825-61-4" width="14.583334" height="14.583311" x="-101.66664" y="903.44562" transform="scale(-1,1)"/>
    <path style="fill:#008000;fill-opacity:1;stroke:none" d="m 116.25,953.02913 -29.16668,0.0845 0,23.31204 0,23.31211 0,23.31222 29.08403,23.3122 0.0175,-23.3333 0.0175,-23.33385 0.0411,-46.66658 -1.3e-4,0 z" id="path2848-4" sodipodi:nodetypes="cccccccccc"/>
    <rect style="fill:#008000;fill-opacity:1;stroke:none" id="rect2825-61-4-2" width="14.583334" height="14.583311" x="-132.29175" y="891.77899" transform="scale(-1,1)"/>
    <g transform="matrix(5.4303211,0,0,4.1295853,29.737429,912.09867)" style="font-size:56px;font-style:normal;font-weight:normal;fill:#000000;fill-opacity:1;stroke:none;font-family:Bitstream Vera Sans" id="flowRoot3696">
      <path d="M 10,26.862334 C 8.1770723,26.151398 6.6640529,25.148795 5.4609375,23.854522 4.2578053,22.560256 3.3554625,21.010778 2.7539063,19.206084 2.1705678,17.383177 1.8789015,15.359742 1.8789062,13.135772 l 0,-13.94531272 C 1.8789015,-3.5074267 1.8515577,-5.8863305 1.796875,-7.9462595 1.760412,-10.024347 1.6117737,-11.59582 1.4294866,-12.689609 l 6.5433736,0 -0.8986415,24.594912 c -9.9e-6,1.786472 0.1549378,3.399752 0.4648438,4.839844 0.3098851,1.421884 0.8294158,2.643237 1.5585938,3.664062 0.7291539,1.00261 0.9828017,1.43168 0.9150007,1.287213" style="font-variant:normal;font-stretch:normal;font-family:Andika Basic;-inkscape-font-specification:Andika Basic" id="path3708" sodipodi:nodetypes="cscccccccscc"/>
    </g>
    <g transform="matrix(-5.4303211,0,0,4.1295853,220.26257,912.09867)" style="font-size:56px;font-style:normal;font-weight:normal;fill:#000000;fill-opacity:1;stroke:none;font-family:Bitstream Vera Sans" id="flowRoot3696-8">
      <path d="M 10,26.862334 C 8.1770723,26.151398 6.6640529,25.148795 5.4609375,23.854522 4.2578053,22.560256 3.3554625,21.010778 2.7539063,19.206084 2.1705678,17.383177 1.8789015,15.359742 1.8789062,13.135772 l 0,-13.94531272 C 1.8789015,-3.5074267 1.8515577,-5.8863305 1.796875,-7.9462595 1.760412,-10.024347 1.6117737,-11.59582 1.4294866,-12.689609 l 6.5433736,0 -0.8986415,24.594912 c -9.9e-6,1.786472 0.1549378,3.399752 0.4648438,4.839844 0.3098851,1.421884 0.8294158,2.643237 1.5585938,3.664062 0.7291539,1.00261 0.9828017,1.43168 0.9150007,1.287213" style="font-variant:normal;font-stretch:normal;font-family:Andika Basic;-inkscape-font-specification:Andika Basic" id="path3708-0" sodipodi:nodetypes="cscccccccscc"/>
    </g>
    <rect style="fill:#008000;fill-opacity:1;stroke:none" id="rect2825-4-5" width="14.583334" height="14.583311" x="133.75031" y="938.44525"/>
    <rect style="fill:#008000;fill-opacity:1;stroke:none" id="rect2825-6-4-5" width="14.583334" height="14.583311" x="148.33366" y="932.61182"/>
    <rect style="fill:#008000;fill-opacity:1;stroke:none" id="rect2825-9-2-4" width="14.583334" height="14.583311" x="133.79156" y="918.02863"/>
    <rect style="fill:#008000;fill-opacity:1;stroke:none" id="rect2825-61-4-3" width="14.583334" height="14.583311" x="148.33366" y="903.44562"/>
    <path style="fill:#008000;fill-opacity:1;stroke:none" d="m 133.75001,953.02913 29.16667,0.0845 0,23.31204 0,23.31211 0,23.31222 -29.084,23.3122 -0.0175,-23.3333 -0.0175,-23.33385 -0.0411,-46.66658 1.1e-4,0 z" id="path2848-4-6" sodipodi:nodetypes="cccccccccc"/>
  </g>
</svg>